<svg width="12" height="12" viewBox="0 0 12 12" fill="none" xmlns="http://www.w3.org/2000/svg">
<g clip-path="url(#clip0)">
<path d="M0.674534 6.94098L0.655802 6.93689L8.68566 6.93689L6.16136 9.46674C6.03775 9.59025 5.96995 9.75757 5.96995 9.93318C5.96995 10.1088 6.03775 10.2749 6.16136 10.3987L6.55414 10.7917C6.67766 10.9152 6.84224 10.9835 7.01775 10.9835C7.19336 10.9835 7.35805 10.9157 7.48156 10.7922L11.8087 6.46547C11.9327 6.34147 12.0005 6.1763 12 6.00059C12.0005 5.82391 11.9327 5.65864 11.8087 5.53484L7.48156 1.20771C7.35805 1.0843 7.19346 1.0164 7.01775 1.0164C6.84224 1.0164 6.67766 1.0844 6.55414 1.20771L6.16136 1.60069C6.03775 1.72401 5.96995 1.88869 5.96995 2.0643C5.96995 2.23981 6.03775 2.39581 6.16136 2.51923L8.71414 5.06323L0.665558 5.06323C0.3039 5.06323 -2.39767e-06 5.37494 -2.36607e-06 5.7364L-2.31748e-06 6.2922C-2.28588e-06 6.65367 0.312876 6.94098 0.674534 6.94098Z" fill="black"/>
</g>
<defs>
<clipPath id="clip0">
<rect width="12" height="12" fill="white" transform="translate(12 12) rotate(180)"/>
</clipPath>
</defs>
</svg>
