<svg width="22" height="22" viewBox="0 0 22 22" fill="none" xmlns="http://www.w3.org/2000/svg">
<path d="M11 0C4.92105 0 0 4.92105 0 11C0 17.0789 4.92105 22 11 22C17.0789 22 22 17.0789 22 11C21.9035 4.92105 16.9825 0 11 0ZM11.7719 20.2632V18.8158C11.7719 18.3333 11.386 18.0439 11 18.0439C10.614 18.0439 10.2281 18.4298 10.2281 18.8158V20.2632C5.69298 19.8772 2.12281 16.307 1.73684 11.7719H3.18421C3.66667 11.7719 3.95614 11.386 3.95614 11C3.95614 10.5175 3.57018 10.2281 3.18421 10.2281H1.64035C2.02632 5.69298 5.59649 2.12281 10.1316 1.73684V3.18421C10.1316 3.66667 10.5175 3.95614 10.9035 3.95614C11.2895 3.95614 11.6754 3.57018 11.6754 3.18421V1.64035C16.2105 2.02632 19.7807 5.59649 20.1667 10.1316H18.7193C18.2368 10.1316 17.9474 10.5175 17.9474 10.9035C17.9474 11.386 18.3333 11.6754 18.8158 11.6754H20.2632C19.8772 16.307 16.307 19.8772 11.7719 20.2632Z" fill="white"/>
<path d="M16.0175 14.9562L11.7719 10.6141V6.17549C11.7719 5.69304 11.3859 5.40356 11 5.40356C10.5175 5.40356 10.228 5.78953 10.228 6.17549V11.0001C10.228 11.193 10.3245 11.386 10.421 11.579L14.8596 16.1141C15.0526 16.3071 15.2456 16.4036 15.4386 16.4036C15.6315 16.4036 15.8245 16.3071 16.0175 16.2106C16.2105 16.0176 16.307 15.8246 16.307 15.6316C16.307 15.3422 16.2105 15.1492 16.0175 14.9562Z" fill="white"/>
</svg>
