<svg width="27" height="27" viewBox="0 0 27 27" fill="none" xmlns="http://www.w3.org/2000/svg">
<path d="M25.6561 18.7943L22.4559 15.5892C21.8147 14.926 21.0394 14.5712 20.2175 14.5712C19.3956 14.5712 18.6145 14.9202 17.9558 15.5775L16.312 17.2179C16.2945 17.2062 16.277 17.2004 16.2537 17.1888C16.2012 17.1655 16.1546 17.1364 16.108 17.1132H16.1021C15.8981 17.0143 15.7116 16.9154 15.56 16.8223C13.8696 15.752 12.3307 14.3502 10.8559 12.5469C10.2205 11.75 9.7775 11.0753 9.44524 10.3947C9.80665 10.0515 10.1506 9.70833 10.4828 9.37095L10.6052 9.24879C10.6869 9.16736 10.7685 9.08592 10.8501 8.99867C10.9317 8.91723 11.0133 8.8358 11.0949 8.75436C12.4589 7.39322 12.4589 5.56091 11.0949 4.19395L9.50354 2.60013C9.32283 2.41981 9.14213 2.23949 8.96725 2.05917L8.96142 2.05335C8.6175 1.69852 8.24444 1.32043 7.85389 0.959781C7.22434 0.331561 6.45489 0 5.64464 0C4.83439 0 4.05911 0.331561 3.40042 0.959781L1.40102 2.97241C0.590766 3.78095 0.130263 4.76982 0.0253385 5.91574C-0.12039 7.68406 0.392575 9.3186 0.794786 10.3947C1.7566 12.989 3.1964 15.3798 5.31821 17.9275C7.90635 21.0163 11.0249 23.4477 14.5807 25.1637C15.9622 25.8152 17.8042 26.583 19.8503 26.711H19.8561C19.996 26.7168 20.1184 26.7226 20.2408 26.7226C21.6981 26.7226 22.9222 26.1991 23.884 25.1579L23.919 25.1172L23.9249 25.1055C23.9249 25.0997 23.9307 25.0997 23.9307 25.0939C24.193 24.774 24.5019 24.4773 24.8284 24.1632L24.91 24.0876C25.2131 23.7967 25.4579 23.5524 25.6794 23.3256C26.3265 22.6566 26.6646 21.8714 26.6646 21.0512C26.6646 20.231 26.3148 19.4457 25.6561 18.7943ZM23.9307 21.7957C23.7733 21.9644 23.6101 22.1215 23.4352 22.2902L23.307 22.4181C22.9339 22.773 22.5375 23.1627 22.1586 23.6048C21.6398 24.1574 21.0511 24.4017 20.2467 24.4017C20.165 24.4017 20.0776 24.4017 20.0018 24.3959C18.3347 24.2912 16.7667 23.6339 15.595 23.0696C12.3423 21.4991 9.48605 19.2654 7.11941 16.4442C5.16665 14.0942 3.84926 11.9129 2.98655 9.58035C2.46775 8.19594 2.27539 7.11983 2.357 6.10769C2.40946 5.51438 2.63097 5.03739 3.05067 4.61276L5.03258 2.63503C5.24826 2.43144 5.46393 2.32674 5.6563 2.32674C5.89529 2.32674 6.10514 2.48961 6.23921 2.6234L6.26836 2.65248C6.60062 2.96078 6.92122 3.28652 7.30595 3.68207C7.39921 3.77514 7.49248 3.87402 7.58574 3.96709C7.67901 4.06016 7.76645 4.15323 7.86554 4.25212L9.4569 5.84012C9.69007 6.07279 9.80665 6.28802 9.80665 6.47416C9.80665 6.6603 9.69007 6.87552 9.4569 7.10819C9.39861 7.16636 9.34615 7.22453 9.28786 7.27688C9.1771 7.3874 9.07218 7.49792 8.96142 7.60263L8.9556 7.60844C8.4368 8.13778 7.99379 8.57404 7.50997 9.0103L7.50414 9.01612C7.49248 9.02775 7.46916 9.04521 7.44584 9.07429C6.75801 9.77813 6.99117 10.5111 7.07278 10.7554L7.09027 10.8135L7.10193 10.8368C7.52162 11.8606 8.12203 12.832 9.0372 13.9895L9.06052 14.0128C10.6985 16.0196 12.4123 17.5785 14.3184 18.7768C14.5749 18.9397 14.8255 19.0618 15.0704 19.184C15.2744 19.2829 15.4609 19.3817 15.6183 19.4748L15.6533 19.4923C15.6766 19.5039 15.6999 19.5214 15.7174 19.533C15.9681 19.6551 16.2129 19.7191 16.4635 19.7191C16.8891 19.7191 17.2796 19.5446 17.6177 19.2072L19.6113 17.2179C19.7337 17.0957 19.9727 16.8921 20.2233 16.8921C20.4798 16.8921 20.7013 17.1015 20.7829 17.1946L24.0181 20.423C24.432 20.8301 24.467 21.1792 24.123 21.598" fill="#616161"/>
</svg>
