<svg width="30" height="30" viewBox="0 0 30 30" fill="none" xmlns="http://www.w3.org/2000/svg">
<circle cx="15" cy="15" r="15" fill="white"/>
<g clip-path="url(#clip0)">
<path d="M22.6 5.90007C21.8 4.80007 20.5 4.10007 19.2 4.00007C18 3.90007 16.8 4.30007 15.9 5.00007C14.9 5.70007 14.3 6.80007 14.1 7.90007C11.3 8.30007 8.4 8.60007 5.5 8.80007V11.3001C8.5 11.1001 11.4 10.8001 14.4 10.5001C15 12.0001 16.4 13.2001 18 13.4001C19.3 13.6001 20.7 13.3001 21.7 12.6001C22.8 11.8001 23.5 10.6001 23.6 9.30007C23.8 8.10007 23.4 6.80007 22.6 5.90007ZM21.2 11.3001C20.4 12.0001 19.3 12.3001 18.3 12.1001C17.2 11.9001 16.3 11.3001 15.8 10.3001C15.3 9.40007 15.2 8.10007 15.6 7.20007C16.1 6.20007 17.1 5.40007 18.1 5.30007C19 5.10007 20 5.30007 20.8 5.80007C21.6 6.40007 22.2 7.40007 22.3 8.40007C22.4 9.60007 22 10.6001 21.2 11.3001ZM18.8 7.30007C18.1 7.40007 17.5 7.70007 17 8.20007C16.7 8.50007 16.5 8.90007 16.2 9.30007C16.1 8.50007 16.3 7.70007 16.7 7.10007C17.2 6.50007 18 6.30007 18.7 6.20007C18.8 6.60007 18.8 6.90007 18.8 7.30007ZM20.1 14.6001C18.5 14.6001 16.9 14.6001 15.2 14.6001C15.2 14.8001 15.2 15.0001 15.2 15.2001C14.7 15.2001 14.4 15.2001 13.9 15.2001C13.9 15.0001 13.9 14.8001 13.9 14.6001C12.4 14.6001 10.8 14.6001 9.3 14.6001C8.8 14.6001 8.2 14.4001 7.7 14.3001C7.7 13.7001 7.7 13.0001 7.7 12.4001C7.2 12.4001 6.8 12.5001 6.3 12.6001V14.8001C7.1 15.1001 8.1 15.5001 9 15.8001C9.1 16.7001 9.7 17.7001 10.5 18.0001C11.3 18.3001 12.3 18.2001 13 17.6001C13.5 17.2001 13.7 16.8001 13.8 16.2001C14.3 16.2001 14.7 16.2001 15.3 16.2001C15.5 16.9001 15.9 17.6001 16.6 17.9001C17.2 18.2001 18 18.3001 18.6 18.0001C19.3 17.7001 19.8 17.0001 20 16.2001C20.1 15.6001 20 15.0001 20.1 14.6001ZM12.2 16.9001C11.7 17.2001 11 17.3001 10.5 16.9001C10 16.6001 9.7 16.0001 9.7 15.4001C10.8 15.4001 11.9 15.4001 12.9 15.4001C12.9 16.0001 12.7 16.6001 12.2 16.9001ZM18.5 16.8001C18 17.3001 17.2 17.3001 16.7 16.9001C16.2 16.6001 16 16.0001 15.9 15.4001C17 15.4001 18.1 15.4001 19.1 15.4001C19.2 16.0001 19 16.5001 18.5 16.8001ZM21.2 14.4001C21.7 14.1001 22.1 13.8001 22.6 13.4001C22.6 14.9001 22.6 16.6001 22.6 18.1001C22.5 20.1001 21.6 22.0001 20.1 23.5001C18.6 25.0001 16.5 25.9001 14.3 25.8001C12.4 25.8001 10.7 25.2001 9.2 24.0001C7.7 22.8001 6.6 21.0001 6.2 19.0001C6 17.9001 6.1 16.8001 6 15.7001C6.6 16.0001 7 16.2001 7.5 16.3001C7.5 16.9001 7.5 17.5001 7.6 18.2001C7.8 19.7001 8.4 21.1001 9.5 22.2001C10.4 23.2001 11.6 23.9001 12.9 24.1001C14.3 24.4001 15.8 24.3001 17.1 23.7001C18.6 23.1001 19.9 21.8001 20.6 20.4001C21.1 19.5001 21.3 18.4001 21.3 17.3001C21.2 16.4001 21.2 15.4001 21.2 14.4001Z" fill="#002340"/>
</g>
<defs>
<clipPath id="clip0">
<rect width="19" height="22" fill="white" transform="translate(5.5 4)"/>
</clipPath>
</defs>
</svg>
