<svg width="16" height="22" viewBox="0 0 16 22" fill="none" xmlns="http://www.w3.org/2000/svg">
<g clip-path="url(#clip0)">
<path d="M8.00156 0.599976C3.90156 0.599976 0.601562 3.89998 0.601562 7.99998C0.601562 9.39998 1.00156 10.7 1.70156 11.9L7.30156 20.9C7.50156 21.2 7.80156 21.4 8.10156 21.4C8.40156 21.4 8.70156 21.2 8.90156 20.9L14.3016 11.8C15.0016 10.7 15.3016 9.29998 15.3016 7.99998C15.4016 3.89998 12.1016 0.599976 8.00156 0.599976ZM8.00156 2.49998C11.0016 2.49998 13.5016 4.99998 13.5016 7.99998C13.5016 8.99998 13.2016 9.99998 12.7016 10.8L8.10156 18.5L3.30156 10.8C2.80156 9.99998 2.50156 8.99998 2.50156 7.99998C2.50156 4.99998 5.00156 2.49998 8.00156 2.49998Z" fill="white"/>
<path d="M8.00156 4.09998C5.90156 4.09998 4.10156 5.79998 4.10156 7.99998C4.10156 10.2 5.80156 11.9 8.00156 11.9C10.2016 11.9 11.9016 10.2 11.9016 7.99998C11.9016 5.79998 10.2016 4.09998 8.00156 4.09998ZM8.00156 9.99998C6.90156 9.99998 6.00156 9.09998 6.00156 7.99998C6.00156 6.89998 6.90156 5.99998 8.00156 5.99998C9.10156 5.99998 10.0016 6.89998 10.0016 7.99998C10.0016 9.09998 9.10156 9.99998 8.00156 9.99998Z" fill="white"/>
</g>
<defs>
<clipPath id="clip0">
<rect width="14.8" height="20.8" fill="white" transform="translate(0.601562 0.599976)"/>
</clipPath>
</defs>
</svg>
