<svg width="16" height="16" viewBox="0 0 16 16" fill="none" xmlns="http://www.w3.org/2000/svg">
<path d="M15.3936 11.2529L13.4735 9.33391C13.0888 8.93687 12.6236 8.72442 12.1305 8.72442C11.6373 8.72442 11.1687 8.93339 10.7735 9.32695L9.78717 10.3091C9.77668 10.3021 9.76619 10.2987 9.7522 10.2917C9.72072 10.2778 9.69274 10.2603 9.66476 10.2464H9.66127C9.53885 10.1872 9.42693 10.128 9.336 10.0723C8.32173 9.43143 7.39839 8.59208 6.51353 7.51241C6.1323 7.03526 5.86649 6.63126 5.66714 6.22377C5.88398 6.01828 6.09033 5.8128 6.28969 5.6108L6.36314 5.53766C6.4121 5.4889 6.46107 5.44014 6.51003 5.3879C6.559 5.33914 6.60796 5.29038 6.65693 5.24162C7.47534 4.42664 7.47534 3.32956 6.65693 2.5111L5.70211 1.55681C5.59369 1.44885 5.48527 1.34088 5.38034 1.23291L5.37685 1.22943C5.17049 1.01698 4.94666 0.790596 4.71232 0.574663C4.3346 0.19852 3.87293 0 3.38678 0C2.90063 0 2.43546 0.19852 2.04025 0.574663L0.840609 1.77971C0.354459 2.26382 0.0781578 2.8559 0.0152031 3.54201C-0.072234 4.60078 0.235545 5.57945 0.476871 6.22377C1.05396 7.7771 1.91783 9.20853 3.19092 10.734C4.7438 12.5834 6.61496 14.0392 8.74842 15.0666C9.57733 15.4567 10.6825 15.9164 11.9101 15.993H11.9136C11.9976 15.9965 12.071 16 12.1445 16C13.0189 16 13.7533 15.6865 14.3304 15.0631L14.3514 15.0387L14.3549 15.0318C14.3549 15.0283 14.3584 15.0283 14.3584 15.0248C14.5158 14.8333 14.7011 14.6556 14.897 14.4676L14.946 14.4223C15.1278 14.2482 15.2747 14.1019 15.4076 13.966C15.7959 13.5655 15.9987 13.0953 15.9987 12.6043C15.9987 12.1132 15.7889 11.643 15.3936 11.2529ZM14.3584 13.0501C14.264 13.1511 14.166 13.2451 14.0611 13.3461L13.9842 13.4227C13.7603 13.6352 13.5225 13.8685 13.2952 14.1332C12.9839 14.4641 12.6306 14.6104 12.148 14.6104C12.099 14.6104 12.0465 14.6104 12.0011 14.6069C11.0008 14.5442 10.06 14.1506 9.35698 13.8128C7.40539 12.8724 5.69162 11.535 4.27164 9.84589C3.09998 8.43883 2.30955 7.13278 1.79193 5.73618C1.48065 4.90727 1.36523 4.26295 1.4142 3.65694C1.44567 3.3017 1.57858 3.01611 1.8304 2.76186L3.01954 1.57771C3.14895 1.45581 3.27836 1.39312 3.39377 1.39312C3.53717 1.39312 3.66308 1.49064 3.74352 1.57074L3.76101 1.58816C3.96037 1.77275 4.15273 1.96778 4.38356 2.20461C4.43952 2.26034 4.49548 2.31955 4.55144 2.37527C4.6074 2.431 4.65986 2.48672 4.71932 2.54593L5.67413 3.49673C5.81403 3.63605 5.88398 3.76491 5.88398 3.87636C5.88398 3.98781 5.81403 4.11667 5.67413 4.25599C5.63916 4.29081 5.60768 4.32564 5.57271 4.35699C5.50625 4.42316 5.4433 4.48933 5.37685 4.55202L5.37335 4.55551C5.06207 4.87244 4.79626 5.13365 4.50597 5.39486L4.50248 5.39835C4.49548 5.40531 4.48149 5.41576 4.4675 5.43317C4.0548 5.85459 4.1947 6.29343 4.24366 6.4397L4.25415 6.47453L4.26115 6.48846C4.51297 7.10144 4.87321 7.68306 5.42231 8.37614L5.4363 8.39007C6.4191 9.59164 7.44736 10.525 8.59103 11.2425C8.74492 11.34 8.89532 11.4131 9.04221 11.4863C9.16462 11.5455 9.27654 11.6047 9.37097 11.6604L9.39196 11.6709C9.40595 11.6778 9.41994 11.6883 9.43043 11.6953C9.58082 11.7684 9.72772 11.8067 9.87811 11.8067C10.1334 11.8067 10.3678 11.7022 10.5706 11.5002L11.7668 10.3091C11.8402 10.236 11.9836 10.1141 12.134 10.1141C12.2879 10.1141 12.4208 10.2394 12.4697 10.2952L14.4108 12.2281C14.6592 12.4719 14.6802 12.6809 14.4738 12.9317" fill="white"/>
</svg>
