<svg width="22" height="22" viewBox="0 0 22 22" fill="none" xmlns="http://www.w3.org/2000/svg">
<g clip-path="url(#clip0)">
<path d="M2.64166 20.5004C2.18374 20.5004 1.80559 20.2478 1.63033 19.8247C1.45508 19.4016 1.54385 18.9554 1.86772 18.6316L2.61649 17.8828C3.12591 18.2212 3.72346 18.403 4.34912 18.403C5.18797 18.403 5.97663 18.0764 6.56976 17.4832L14.5482 9.50473L13.6597 8.61634L15.1433 7.1327C15.5565 7.47814 16.0723 7.66648 16.6172 7.66648C17.0171 7.66648 17.4009 7.56463 17.7405 7.37433L18.6907 8.32452L19.5784 7.43678L18.6281 6.48659C18.8184 6.14719 18.9202 5.76333 18.9202 5.36344C18.9202 4.74823 18.6805 4.16998 18.2457 3.73494L14.8404 0.329666L11.5836 3.58649L12.472 4.47505L10.9952 5.95166L10.1068 5.06327L2.12848 13.0418C1.05584 14.1143 0.922927 15.7759 1.72924 16.9947L0.979984 17.7438C0.295138 18.4288 0.0997709 19.4103 0.470559 20.305C0.841184 21.2 1.67317 21.7558 2.64183 21.7558H21.7142V20.5004H2.64166ZM14.8404 2.10514L17.3579 4.62268C17.5558 4.8205 17.6648 5.08355 17.6648 5.36344C17.6648 5.64333 17.5558 5.90638 17.3579 6.1042C17.1601 6.30202 16.8971 6.41106 16.6173 6.41106C16.3375 6.41106 16.0744 6.30202 15.8766 6.1042L13.359 3.58649L14.8404 2.10514ZM13.3597 5.36262L14.2487 6.25183L12.7721 7.72861L11.8829 6.8394L13.3597 5.36262ZM3.01621 13.9293L10.1068 6.83875L12.7728 9.50473L5.68219 16.5955C4.94716 17.3304 3.75125 17.3305 3.01621 16.5955C2.66014 16.2394 2.46395 15.766 2.46395 15.2624C2.46395 14.7589 2.66014 14.2854 3.01621 13.9293Z" fill="white"/>
<path d="M8.11694 10.6045L9.00467 9.71678L9.89306 10.6053L9.00533 11.4931L8.11694 10.6045Z" fill="white"/>
<path d="M6.33984 12.3812L7.22758 11.4935L8.11597 12.3819L7.22823 13.2696L6.33984 12.3812Z" fill="white"/>
</g>
<defs>
<clipPath id="clip0">
<rect width="21.4286" height="21.4286" fill="white" transform="translate(0.285889 0.285812)"/>
</clipPath>
</defs>
</svg>
