<svg width="20" height="22" viewBox="0 0 20 22" fill="none" xmlns="http://www.w3.org/2000/svg">
<path d="M19.102 5.81408L19.1014 5.79741C19.0921 5.59158 19.0858 5.37381 19.0821 5.13153C19.0646 3.95001 18.1254 2.97269 16.9437 2.90664C14.4799 2.76915 12.574 1.96577 10.9455 0.378482L10.9316 0.365239C10.4005 -0.121787 9.5992 -0.121787 9.06787 0.365239L9.05398 0.378482C7.42549 1.96577 5.51956 2.76915 3.05582 2.9068C1.8743 2.97269 0.934907 3.95001 0.917414 5.13169C0.913817 5.37234 0.907441 5.59011 0.898122 5.79741L0.897142 5.83615C0.84924 8.34845 0.789731 11.4751 1.83572 14.3131C2.41086 15.8737 3.28192 17.2304 4.42453 18.3455C5.72588 19.6155 7.43039 20.6237 9.49065 21.342C9.55768 21.3654 9.62732 21.3844 9.69828 21.3986C9.79833 21.4186 9.89904 21.4285 9.99975 21.4285C10.1005 21.4285 10.2013 21.4186 10.3012 21.3986C10.3722 21.3844 10.4423 21.3653 10.5097 21.3417C12.5675 20.622 14.2702 19.6133 15.5704 18.3435C16.7125 17.2281 17.5836 15.8711 18.1592 14.3102C19.2091 11.4637 19.1498 8.33112 19.102 5.81408ZM16.9795 13.8751C15.8763 16.8663 13.6242 18.9205 10.0947 20.1548C10.0821 20.1591 10.0687 20.1628 10.0548 20.1656C10.0184 20.1728 9.98127 20.1728 9.94432 20.1654C9.93059 20.1626 9.91719 20.1591 9.90476 20.1548C6.37149 18.9228 4.11799 16.8697 3.0156 13.8784C2.05152 11.2624 2.10612 8.39227 2.15435 5.86019L2.15468 5.84613C2.16449 5.62853 2.17103 5.40063 2.17463 5.15017C2.18247 4.62554 2.60034 4.19148 3.12595 4.16222C4.52017 4.0844 5.74501 3.81497 6.87045 3.33857C7.99442 2.86282 8.99267 2.1922 9.92193 1.28845C9.96917 1.24856 10.0305 1.24839 10.0776 1.28845C11.007 2.1922 12.0052 2.86282 13.129 3.33857C14.2545 3.81497 15.4793 4.0844 16.8737 4.16222C17.3993 4.19148 17.8172 4.62554 17.8249 5.15033C17.8286 5.4021 17.8352 5.63 17.845 5.84613C17.893 8.38115 17.9463 11.2536 16.9795 13.8751Z" fill="white"/>
<path d="M9.99924 5.37433C7.05451 5.37433 4.65894 7.77007 4.65894 10.7146C4.65894 13.6594 7.05451 16.0551 9.99924 16.0551C12.9438 16.0551 15.3395 13.6594 15.3395 10.7146C15.3395 7.77007 12.9438 5.37433 9.99924 5.37433ZM9.99924 14.7976C7.74786 14.7976 5.91631 12.966 5.91631 10.7146C5.91631 8.46325 7.74786 6.63171 9.99924 6.63171C12.2505 6.63171 14.082 8.46325 14.082 10.7146C14.082 12.966 12.2505 14.7976 9.99924 14.7976Z" fill="white"/>
<path d="M11.5343 9.0567L9.05386 11.5371L8.38062 10.8639C8.13507 10.6183 7.73698 10.6183 7.49142 10.8639C7.24602 11.1094 7.24602 11.5075 7.49142 11.7529L8.60934 12.8708C8.73212 12.9936 8.89299 13.0549 9.05386 13.0549C9.21473 13.0549 9.37561 12.9936 9.49838 12.8708L12.4235 9.94574C12.6689 9.70018 12.6689 9.30209 12.4235 9.0567C12.1779 8.81098 11.7798 8.81098 11.5343 9.0567Z" fill="white"/>
</svg>
