<svg width="22" height="20" viewBox="0 0 22 20" fill="none" xmlns="http://www.w3.org/2000/svg">
<path d="M15.1851 9.13037H13.2924V7.09824C13.2924 6.75358 13.0275 6.45179 12.6739 6.45179H9.3257C8.97213 6.45179 8.70716 6.75358 8.70716 7.09824V9.13037H6.81454C6.46097 9.13037 6.196 9.43215 6.196 9.77681V13.3482C6.196 13.6929 6.46097 13.9947 6.81454 13.9947H8.70716V16.0268C8.70716 16.3715 8.97213 16.6732 9.3257 16.6732H12.6739C13.0275 16.6732 13.2924 16.3715 13.2924 16.0268V13.9947H15.1851C15.5386 13.9947 15.8036 13.6929 15.8036 13.3482V9.77681V9.77678C15.8035 9.43218 15.5387 9.13037 15.1851 9.13037ZM14.5665 12.7018H12.6739C12.3203 12.7018 12.0554 13.0036 12.0554 13.3482V15.3804H9.9442V13.3482C9.9442 13.0036 9.67922 12.7018 9.32566 12.7018H7.43304V10.4232H9.32566C9.67922 10.4232 9.9442 10.1214 9.9442 9.77677V7.74464H12.0554V9.77677C12.0554 10.1214 12.3203 10.4232 12.6739 10.4232H14.5665V12.7018Z" fill="white" stroke="white" stroke-width="0.4"/>
<path d="M18.6345 3.77322H18.6343H14.5482V2.69554C14.5482 1.57522 13.6763 0.648206 12.5849 0.648206H9.26515C8.19514 0.648206 7.45172 1.54082 7.45172 2.69554V3.77322H3.3656L3.36538 3.77322C1.91256 3.77482 0.75679 5.02671 0.755322 6.54399V6.54419L0.755322 16.5808L0.755322 16.581C0.75679 18.0983 1.91256 19.3502 3.36538 19.3518H3.3656H18.6343H18.6345C20.0873 19.3502 21.2431 18.0983 21.2446 16.581V16.5808V6.54419V6.544C21.2431 5.02675 20.0874 3.77482 18.6345 3.77322ZM20.0075 16.5795V16.5905C20.0018 17.4141 19.3775 18.0581 18.6341 18.0589H3.36583C2.61958 18.0581 1.99326 17.4091 1.99236 16.5807C1.99236 16.5807 1.99236 16.5806 1.99236 16.5806V6.54439C1.99236 6.54435 1.99236 6.54432 1.99236 6.54428C1.99326 5.7159 2.61957 5.06693 3.36584 5.06606H18.6341C19.3804 5.06693 20.0067 5.71596 20.0075 6.54438V16.5795ZM8.6888 2.69554C8.6888 2.48797 8.74178 2.29296 8.83896 2.15584C8.93094 2.02605 9.06588 1.94109 9.26518 1.94109H12.5849C12.9795 1.94109 13.3111 2.27397 13.3111 2.69554V3.77322H8.6888V2.69554Z" fill="white" stroke="white" stroke-width="0.4"/>
</svg>
