<svg width="220" height="403" viewBox="0 0 220 403" fill="none" xmlns="http://www.w3.org/2000/svg">
<path d="M340.866 32.3704C334.43 24.8536 327.96 19.7105 323.647 16.7003C320.703 14.6534 314.455 10.68 305.52 7.08499C292.853 1.9763 279.878 -0.380237 266.972 0.0497872C250.899 0.600219 235.614 5.4337 217.915 11.0068C217.47 11.1444 217.162 11.2476 216.802 11.368L216.768 11.3852C216.323 11.5228 215.81 11.6948 214.902 11.9701C198.984 16.9928 188.388 20.3297 182.757 20.3297C182.671 20.3297 182.585 20.3297 182.517 20.3297C178.614 20.2609 175.807 19.5385 169.08 17.8012C164.51 16.6143 158.365 14.6706 149.875 11.9873C148.779 11.6432 147.958 11.3852 147.615 11.2648L147.496 11.2304C129.471 5.4681 113.912 0.514214 97.5995 0.0497872C85.7032 -0.277031 73.7384 1.75268 62.0304 6.10453C54.1052 9.0459 48.1827 12.3657 44.6224 14.6362C37.8098 18.9537 31.2711 24.4752 25.7081 30.5987C19.3234 37.6167 13.9658 45.7356 9.77214 54.6801C6.40009 61.8873 3.78119 69.6794 1.94967 77.8326C-1.14851 91.7138 -0.258425 113.697 2.54876 122.624C5.0992 130.777 9.58385 143.644 19.2207 171.062C21.3603 177.185 23.209 182.432 24.8009 186.938L25.3657 188.521C34.2152 213.703 34.3864 214.219 34.9513 216.541C38.9737 232.968 38.5458 241.672 37.9638 253.713C37.4674 263.913 36.8512 276.59 38.6656 297.042L38.9395 299.949H38.9737C39.5728 305.333 41.1476 317.563 44.4854 331.685C50.5962 357.572 59.3259 376.218 70.4348 387.141C77.3501 393.935 89.5716 400.11 94.9292 401.383C99.6193 402.501 104.19 402.673 105.644 402.69C107.887 402.897 110.146 403 112.337 403C114.22 403 116.086 402.931 117.883 402.776C124.987 402.192 131.166 397.599 136.284 389.119C139.314 384.096 142.138 377.422 144.705 369.286C149.019 355.56 151.159 342.195 151.176 342.091C152.853 327.264 153.726 310.063 153.76 290.936C159.358 285.982 165.913 280.821 172.812 275.352L173 275.197C173.103 275.111 173.222 275.025 173.325 274.939C207.713 312.901 213.944 334.11 221.783 360.823V360.84C224.197 369.028 226.679 377.508 230.119 387.106C231.865 391.974 236.008 398.321 245.833 400.867C250.848 402.174 255.675 401.968 258.26 401.865H258.277C258.568 401.848 258.91 401.848 259.064 401.83C263.549 401.779 272.176 398.769 274.709 397.84C285.082 394.056 293.846 386.711 301.514 375.375C310.21 362.509 315.448 347.63 320.206 322.31C320.463 320.951 326.522 288.149 329.569 226.965L329.655 225.4C329.706 224.351 329.946 219.775 330.185 215.131C330.853 202.832 340.524 182.931 343.862 176.945L345.231 174.485V174.468C349.202 167.14 352.711 159.52 355.638 151.797C361.766 135.68 365.087 120.095 365.481 105.492C365.789 95.4292 364.813 60.3392 340.866 32.3704ZM203.656 249C218.531 233.932 228.134 219.293 238.832 200.579C240.253 198.085 240.629 195.195 239.876 192.426C239.123 189.656 237.36 187.334 234.878 185.906C229.76 182.965 223.204 184.737 220.277 189.88C210.452 207.098 201.705 220.463 188.474 233.863C182.209 240.21 174.54 246.54 167.882 251.889C167.831 251.924 167.796 251.958 167.745 251.993C165.058 254.16 162.285 256.327 159.632 258.443L159.597 258.477C157.458 260.18 155.369 261.814 153.35 263.431C153.144 257.17 152.853 250.702 152.494 244.132C150.936 215.337 148.454 193.664 148.437 193.458C148.112 190.602 146.691 188.057 144.449 186.268C142.206 184.479 139.416 183.687 136.575 184.014C130.721 184.702 126.493 190.035 127.178 195.935C127.195 196.141 129.591 217.109 131.132 245.422C133.665 292.105 131.919 322.276 130.002 339.374C129.745 340.922 127.862 351.483 124.542 362.182C120.125 376.442 116.445 380.484 115.401 381.396C112.799 381.568 110.078 381.516 107.253 381.241C106.894 381.206 106.535 381.189 106.175 381.189C106.124 381.189 106.09 381.189 106.038 381.189C105.525 381.172 102.563 381.086 99.8589 380.449C98.1301 380.037 89.4689 375.754 85.4122 371.763C77.3843 363.885 70.4519 348.387 65.3682 326.937C61.3457 309.925 59.9934 295.287 59.9934 295.15C58.316 276.177 58.8637 264.807 59.3601 254.762C60.0105 241.431 60.5069 230.887 55.7484 211.415C54.9268 208.044 54.7385 207.545 45.5638 181.4L45.5467 181.365C43.835 176.515 41.8152 170.752 39.4188 163.906C21.9423 114.109 20.7099 110.239 20.5216 104.89C20.436 102.482 20.3676 93.7779 22.8666 82.5457C26.1873 67.684 32.4522 55.0929 41.5413 45.0992C45.8205 40.3861 50.853 36.1374 56.0736 32.8177C60.4727 30.0311 76.4086 20.9662 97.0175 21.551C110.317 21.9294 123.857 26.2469 141.008 31.7168L141.128 31.7512C141.47 31.8544 142.309 32.1296 143.439 32.4908C152.254 35.2774 158.622 37.3071 163.757 38.6316C171.22 40.5581 175.721 41.7278 182.14 41.831C182.346 41.831 182.551 41.831 182.757 41.831C191.657 41.831 202.184 38.5112 221.304 32.4908C222.28 32.1812 222.81 32.0092 223.29 31.8544C223.615 31.7512 223.923 31.648 224.334 31.5276C240.544 26.4189 254.545 21.9982 267.708 21.5338C290.696 20.7426 308.19 32.078 311.459 34.3657C314.746 36.6535 319.693 40.5925 324.639 46.372C343.571 68.5097 344.324 96.7881 344.119 104.924C343.793 117.102 340.952 130.278 335.68 144.125C331.435 155.271 326.916 163.39 325.221 166.435L323.852 168.877V168.981C322.448 171.681 320.018 176.549 317.536 182.329C312.23 194.765 309.303 205.395 308.84 213.944C308.84 213.996 308.601 218.451 308.43 221.684L308.224 225.881C305.263 285.19 299.255 317.993 299.204 318.302C295.044 340.457 290.731 353.066 283.832 363.266C278.783 370.731 273.425 375.41 267.434 377.611C263.121 379.194 259.441 380.14 258.38 380.329C258.089 380.329 257.78 380.346 257.438 380.363C251.961 380.587 250.557 379.899 250.232 379.675C247.031 370.714 244.635 362.578 242.324 354.717C238.181 340.629 234.279 327.316 226.542 312.213C218.274 296.061 206.635 279.858 190.031 261.419C195.509 256.843 199.874 252.853 203.656 249Z" fill="#57ABF5"/>
</svg>
