<svg width="30" height="30" viewBox="0 0 30 30" fill="none" xmlns="http://www.w3.org/2000/svg">
<path d="M29.0714 19.6905C29.6726 19.0893 30 18.2917 30 17.4464C30 16.6012 29.6726 15.7976 29.0714 15.2024C29.0536 15.1845 29.0357 15.1667 29.0119 15.1488L21.0238 8.33929C19.9345 7.41071 18.5417 6.89881 17.1071 6.89881H17.0833C15.4762 6.90476 13.9702 7.53571 12.8333 8.66667L11.756 9.74405C11.2202 10.2798 10.3452 10.2857 9.80357 9.7619C9.54167 9.5119 9.39286 9.16072 9.39286 8.78572C9.3869 8.39286 9.54167 8.0119 9.82143 7.7381C9.82738 7.73214 9.83929 7.72024 9.84524 7.71429L12.1845 5.22024C14.0179 3.2619 16.6071 2.07738 19.2857 1.97024L19.3631 1.96429L28.4107 9.34524C28.6131 9.5119 28.869 9.58929 29.131 9.55952C29.3929 9.53572 29.625 9.40476 29.7917 9.20238C30.131 8.78572 30.0714 8.16667 29.6488 7.82143L20.3095 0.220238C20.1369 0.0773809 19.9167 0 19.6905 0C17.5119 0 15.3631 0.589286 13.4762 1.69643L13.369 1.75595L13.2619 1.69643C11.381 0.589286 9.23214 0 7.04167 0C6.77976 0 6.53571 0.10119 6.35119 0.285714L0.285714 6.34524C-0.0952381 6.72619 -0.0952381 7.35119 0.285714 7.73214C0.470238 7.91667 0.714286 8.01786 0.97619 8.01786C1.2381 8.01786 1.48214 7.91667 1.66667 7.73214L7.44048 1.96429L7.52976 1.97024C8.85119 2.02976 10.131 2.34524 11.3333 2.89286L11.619 3.02381L11.3869 3.2381C11.1607 3.44643 10.9405 3.66071 10.7381 3.88095L8.41071 6.3631C7.77381 7.0119 7.41071 7.89881 7.42262 8.80952C7.42857 9.72024 7.79167 10.5595 8.43452 11.1786C9.07143 11.7917 9.91071 12.125 10.7917 12.1131C11.6786 12.1071 12.506 11.756 13.1369 11.131L14.2143 10.0536C14.9821 9.28571 16 8.8631 17.0893 8.85714H17.1012C18.0714 8.85714 19.0119 9.20238 19.75 9.83333L27.7083 16.6071L27.7143 16.619C28.1607 17.1012 28.1488 17.8452 27.6845 18.3095C27.4583 18.5357 27.1488 18.6607 26.8214 18.6607C26.494 18.6607 26.1905 18.5357 25.9583 18.3036L25.7143 18.0595C25.5298 17.875 25.2857 17.7738 25.0238 17.7738C24.7619 17.7738 24.5179 17.875 24.3333 18.0595C24.1488 18.244 24.0476 18.4881 24.0476 18.75C24.0476 19.0119 24.1488 19.256 24.3333 19.4405L24.5774 19.6845C24.6429 19.75 24.7143 19.8155 24.7857 19.875L24.8036 19.8929L24.8155 19.9107C24.8512 19.9583 24.875 19.9881 24.9048 20.0179C25.381 20.494 25.381 21.2679 24.9048 21.7381C24.6726 21.9702 24.369 22.0952 24.0417 22.0952C23.7143 22.0952 23.4107 21.9702 23.1786 21.7381L22.7738 21.3393C22.3929 20.9583 21.7679 20.9583 21.3869 21.3393C21.2024 21.5238 21.1012 21.7679 21.1012 22.0298C21.1012 22.2917 21.2024 22.5357 21.3869 22.7202L21.6607 22.994C21.9048 23.2381 22.0476 23.5833 22.0595 23.9405C22.0655 24.1429 22.0357 24.5179 21.744 24.8095C21.5238 25.0298 21.2143 25.1429 20.8869 25.125C20.5655 25.1071 20.256 24.9643 20.0179 24.7262C20 24.7083 19.9821 24.6905 19.9583 24.6726L19.7798 24.5179C19.381 24.1726 18.7798 24.2083 18.4226 24.6012C18.0655 24.9881 18.0774 25.5833 18.4464 25.9583C18.6845 26.1964 18.8155 26.506 18.8214 26.8333C18.8274 27.1548 18.7024 27.4524 18.4762 27.6786C18 28.1548 17.2202 28.1429 16.7321 27.6548L16.4702 27.3929L16.5179 27.2679C16.9881 26.0655 16.7083 24.7024 15.7976 23.7917L15.7738 23.7679C15.3631 23.3631 14.8571 23.0714 14.3095 22.9286L14.131 22.881L14.1548 22.6964C14.2976 21.6905 13.9702 20.7083 13.256 19.994C12.7262 19.4643 12.0238 19.1429 11.2798 19.0774L11.1012 19.0595L11.0893 18.881C11.0357 18.1429 10.7083 17.4405 10.1667 16.8988C9.6369 16.369 8.92857 16.0417 8.17857 15.9821L8 15.9702L7.9881 15.7917C7.92857 15.0417 7.60119 14.3333 7.07143 13.8036C5.83929 12.5714 3.82143 12.5655 2.58333 13.7976L0.910714 15.4167C0.327381 16.0298 0 16.8274 0 17.6726C0 18.5238 0.327381 19.3214 0.928571 19.9167C1.3869 20.375 1.96429 20.6786 2.60119 20.7917L2.77976 20.8214L2.77381 21C2.74405 21.881 3.08333 22.7381 3.70238 23.3571C4.28571 23.9405 5.07738 24.256 5.92262 24.244H6.10714L6.13095 24.4286C6.22619 25.119 6.53571 25.744 7.02381 26.2381C7.61905 26.8333 8.41667 27.1607 9.2619 27.1607C9.32143 27.1607 9.3869 27.1607 9.46429 27.1548L9.64881 27.1429L9.68452 27.3274C9.80357 27.9821 10.1131 28.5774 10.5893 29.0476C11.2024 29.6607 12.0119 29.994 12.881 29.994C13.7202 29.994 14.5179 29.6726 15.125 29.0893L15.2679 28.9524L15.4107 29.0893C16.0119 29.6726 16.8036 29.994 17.6429 29.994C18.494 29.994 19.2857 29.6667 19.881 29.0714C20.375 28.5774 20.6786 27.9583 20.7679 27.2738L20.7917 27.0952H20.9762C21.8036 27.0952 22.5714 26.7798 23.1429 26.2083C23.6607 25.6905 23.9702 25.0119 24.0238 24.256L24.0357 24.0714L24.2202 24.0595C25.006 24.0179 25.744 23.6905 26.2976 23.1369C26.9167 22.5179 27.256 21.6607 27.2262 20.7798L27.2202 20.6012L27.3988 20.5714C28.0357 20.4524 28.6131 20.1488 29.0714 19.6905ZM4.03571 18.5357C3.80952 18.7619 3.5 18.8869 3.17262 18.8869C2.84524 18.8869 2.54167 18.7619 2.30952 18.5298C2.08333 18.3036 1.95833 17.994 1.95833 17.6667C1.95833 17.3452 2.08333 17.0417 2.30357 16.8155L3.97619 15.1964C4.20833 14.9702 4.51191 14.8393 4.83929 14.8393C5.16667 14.8393 5.47024 14.9643 5.70238 15.1905C5.92857 15.4167 6.05952 15.7262 6.05952 16.0536C6.05952 16.3214 5.97619 16.5774 5.80952 16.7917L5.79762 16.8036L5.78571 16.8155C5.75595 16.8393 5.72619 16.869 5.70238 16.8988L4.48214 18.0952L4.03571 18.5357ZM6.77381 21.9405C6.51786 22.1786 6.19048 22.2976 5.875 22.2976C5.57738 22.2976 5.29167 22.1905 5.08333 21.9821C4.6131 21.5119 4.60714 20.7381 5.07738 20.2619L5.83929 19.5119L7.08333 18.3095C7.1131 18.2798 7.14286 18.25 7.17262 18.2202L7.18452 18.2083L7.19643 18.1964C7.67857 17.8274 8.36905 17.875 8.79762 18.3036C9.27381 18.7798 9.27381 19.4702 8.80357 19.9464L6.77381 21.9405ZM10.1488 24.8393C9.90476 25.0833 9.58333 25.2083 9.2619 25.2083C8.95238 25.2083 8.64286 25.0893 8.41071 24.8571C7.93452 24.381 7.94643 23.6012 8.42857 23.119L10.1726 21.3929C10.3988 21.1667 10.7083 21.0417 11.0357 21.0417C11.3631 21.0417 11.6667 21.1667 11.8988 21.3929C12.375 21.869 12.375 22.6369 11.8988 23.1131L10.1488 24.8393ZM14.4286 26.994L14.4226 27L13.7798 27.6667C13.5298 27.9107 13.2024 28.0357 12.881 28.0357C12.5536 28.0357 12.2262 27.9107 11.9762 27.6607C11.7321 27.4167 11.5952 27.0893 11.5952 26.744C11.5893 26.3988 11.7202 26.0833 11.9524 25.8452L12.6667 25.131C12.8869 24.9107 13.1845 24.7857 13.506 24.7857C13.8512 24.7857 14.1786 24.9286 14.4345 25.1845C14.9286 25.6845 14.9286 26.5 14.4286 26.994Z" fill="white"/>
</svg>
