<?xml version="1.0" standalone="no"?>
<!DOCTYPE svg PUBLIC "-//W3C//DTD SVG 1.1//EN" "http://www.w3.org/Graphics/SVG/1.1/DTD/svg11.dtd" >
<svg xmlns="http://www.w3.org/2000/svg" xmlns:xlink="http://www.w3.org/1999/xlink" version="1.1">
<metadata>
Created by FontForge 20170731 at Thu Dec  3 11:06:03 2020
 By Aleksey,,,
Funky Signature (c) (Ef Studio). 2018. All Rights Reserved
</metadata>
<defs>
<font id="FunkySignature" horiz-adv-x="612" >
  <font-face 
    font-family="Funky Signature"
    font-weight="400"
    font-stretch="normal"
    units-per-em="2048"
    panose-1="2 0 5 0 0 0 0 0 0 0"
    ascent="1638"
    descent="-410"
    x-height="440"
    cap-height="1513"
    bbox="-2122 -1340.22 9499 2388.41"
    underline-thickness="102"
    underline-position="-255"
    unicode-range="U+001D-E060"
  />
<missing-glyph horiz-adv-x="0" 
 />
    <glyph glyph-name="ee" unicode="ee" horiz-adv-x="1136" 
d="M-137 98q-48 0 -72 21q-37 27 -37 78l2 20q13 83 82 159.5t150 106.5q35 15 63 15q39 0 53 -29q5 -15 5 -20q0 -36 -49 -65.5t-103 -29.5q-45 0 -70 25q-37 -37 -66.5 -89.5t-29.5 -92.5q0 -32 21 -50q21 -16 59 -16q156 0 591 277q10 7 15 10q27 24 70.5 43.5t77.5 19.5
q35 0 49 -26q4 -12 4 -19q0 -33 -44.5 -59.5t-92.5 -26.5q-39 0 -64 19q-84 -97 -84 -158q0 -30 21 -43q17 -14 49 -14q136 0 549 260q8 4 12 4q6 0 10 -4l2 -6q0 -10 -10 -15q-86 -56 -143.5 -91t-144 -83.5t-156.5 -73t-121 -24.5q-44 0 -70 20q-35 25 -35 70q0 54 45 121
q-387 -234 -538 -234zM541 385q33 0 66.5 18t33.5 33l-2 6q-7 7 -16 7q-22 0 -58.5 -18.5t-58.5 -35.5q12 -10 35 -10zM-43 389q36 0 76.5 23.5t40.5 38.5l-2 4q-3 12 -21 12q-27 0 -73 -25t-64 -41q18 -12 43 -12z" />
    <glyph glyph-name="ll" unicode="ll" horiz-adv-x="1210" 
d="M659 -100q-9 0 -12 14q-14 49 -14 117q0 151 80 325q-279 -169 -467 -227q-103 -35 -185 -35q-78 0 -118 37q-37 37 -37 100t32.5 149t85 172t85 134t63.5 90q42 54 108.5 127.5t158 164t185 151.5t156.5 61q20 0 35 -6q35 -14 35 -49q0 -18 -8 -37q-22 -55 -115.5 -155
t-196 -191.5t-239 -202.5t-195 -157t-112.5 -87v-2q-41 -95 -41 -162q0 -46 24 -73q32 -29 94 -29t172 35q121 37 258.5 103t241.5 132q68 133 171.5 282t234.5 290.5t247 216.5q89 61 160 61q33 0 51.5 -16.5t18.5 -46.5q0 -54 -64 -142q-108 -145 -370.5 -364t-415.5 -293
q-109 -216 -109 -377q0 -53 11 -90l2 -8q0 -12 -11 -12zM14 465q98 75 196.5 155t238.5 198.5t238.5 221.5t121.5 160q4 16 4 21q0 15 -12 18q-16 4 -27 4q-54 0 -142.5 -61.5t-176 -148.5t-153 -159.5t-99.5 -117.5q-119 -157 -189 -291zM788 428q162 94 390.5 290
t343.5 345q59 76 59 121q0 30 -35 30q-53 0 -141 -61q-164 -111 -337.5 -320.5t-279.5 -404.5z" />
    <glyph glyph-name="oo" unicode="oo" horiz-adv-x="1136" 
d="M-264 92q-34 0 -55 21q-17 17 -17 49q0 42 35 110q57 101 166 166q4 4 10 4q8 0 13.5 -5.5t5.5 -12.5q0 -8 -9 -14q-113 -70 -161 -166q-25 -56 -25 -80q0 -35 33 -35h4q36 0 92 35q65 42 131 127q-43 43 -43 96q0 32 16 54t41 22q17 0 37 -17q23 -20 23 -57
q0 -41 -27 -90q27 -12 66 -12q79 0 188 44t178 89q8 4 11 4q6 0 14 -8q4 -8 4 -13q0 -9 -8 -12q-62 -40 -110.5 -97.5t-55.5 -111.5v-12q0 -26 14 -29q4 -2 17 -2q45 0 103.5 47t94.5 99q-37 40 -37 86q0 29 15 48t37 19q12 0 20 -4q37 -14 37 -61q0 -39 -23 -80
q17 -10 54 -10q73 0 175.5 45.5t166.5 85.5q8 4 12 4q6 0 10 -4l2 -6q0 -10 -10 -15q-42 -28 -92.5 -56t-130.5 -58.5t-137 -30.5q-43 0 -68 14q-46 -61 -110 -110.5t-119 -49.5q-9 0 -25 4q-43 12 -43 62q0 67 68 151q-145 -67 -252 -67q-54 0 -84 18q-40 -57 -100 -107.5
t-115 -64.5q-18 -6 -37 -6zM-20 324q18 38 18 61q0 18 -8 28.5t-17 10.5q-22 0 -22 -31v-10q7 -34 29 -59zM543 315q16 31 16 56q0 14 -6 23t-14 9q-19 0 -19 -28v-8q3 -26 23 -52z" />
    <glyph glyph-name="rr" unicode="rr" horiz-adv-x="1363" 
d="M94 84q-24 0 -41 10q-28 20 -28 56q0 43 50 135.5t50 115.5q0 7 -4 15q-21 24 -25 59q-5 -4 -57 -44.5t-59 -45.5q-4 -2 -13 -2q-6 0 -8 2q-4 8 -4 10q0 8 10 13q104 80 123 100v4q0 51 21 77.5t47 26.5q14 0 23 -8.5t9 -23.5q0 -20 -18 -47q-16 -24 -43 -43
q6 -36 20 -58q11 -14 11 -33q0 -39 -49.5 -131t-49.5 -118q0 -19 13 -29q12 -6 28 -6q89 0 328 136t322 206q-5 10 -5 16q0 20 20.5 37.5t39.5 17.5t22 -22v-2q0 -19 -28 -43q37 -27 37 -59q-2 -22 -46.5 -109t-44.5 -117q0 -13 9 -22q8 -8 30 -8q55 0 187 62t222.5 114.5
t145.5 87.5q8 4 13 4q4 0 8 -4l4 -6q0 -8 -10 -15q-62 -43 -157 -100t-224 -116.5t-195 -59.5q-32 0 -49 14q-18 18 -18 47q0 35 22 85.5t44 90.5t22 49v3q-2 17 -27 34q-100 -84 -336 -220t-342 -136zM123 530q13 9 25 26t12 28q0 8 -4 8h-2q-9 0 -20 -18.5t-11 -43.5z" />
    <glyph glyph-name="ss" unicode="ss" horiz-adv-x="827" 
d="M-481 35h-11q-53 0 -79.5 31.5t-26.5 68.5q0 33 18 33l15 -6q26 -23 65 -23q40 0 101 23q12 27 30 82t34.5 97.5t40 87t56.5 70t74 27.5q9 0 14 -6t5 -14q0 -16 -17 -19q-25 -1 -48 -17.5t-38.5 -38.5t-32 -58t-26.5 -63t-24 -68.5t-21 -61.5q57 26 169.5 90t208 111.5
t162.5 60.5h5q7 0 12.5 -5t5.5 -13q0 -9 -8 -14q-16 -11 -30 -27t-23 -28.5t-19 -35t-13.5 -33t-12.5 -38t-11 -33.5q107 37 228 92.5t204 106.5q8 4 13 4q9 0 12 -10q0 -10 -10 -15q-92 -59 -224 -123t-239 -98q-38 -92 -115 -92q-34 0 -60 23t-30 63q0 16 16 16
q2 0 14.5 -3t24.5 -3q39 0 123 25q5 14 19 58.5t27 73.5t32 56q-88 -32 -253 -127.5t-249 -128.5q-47 -93 -108 -98zM-483 72q37 3 59 45q-44 -13 -78 -13q-24 0 -57 11q15 -43 65 -43h11zM-37 115q43 0 68 43q-73 -17 -111 -17q14 -26 43 -26z" />
    <glyph glyph-name="tt" unicode="tt" horiz-adv-x="1259" 
d="M287 -313q-11 0 -17 14q-14 55 -14 123q0 212 170 508q-419 -244 -623 -244q-77 0 -116 39q-33 29 -33 84q0 125 149.5 346t348.5 426q-432 -26 -693 -68h-4q-16 0 -16 15q0 14 14 14q274 45 731 74q108 108 195.5 173.5t126.5 65.5q10 0 16 -6q13 -10 13 -28
q0 -55 -123 -193q292 15 589 21q1 1 3.5 4t3.5 4q192 192 270 192q25 0 33 -16q4 -4 4 -12q0 -47 -80 -156l-10 -12q308 0 469 -8q16 -3 16 -15t-16 -12h-2q-156 4 -281 4l-211 -2q-141 -177 -338.5 -360.5t-369.5 -290.5q-205 -334 -205 -555q0 -60 14 -109v-6
q0 -14 -14 -14zM1051 1051l127 4l26 35q78 104 78 122v2q-1 0 -4 1.5t-4 1.5q-18 0 -72 -35q-67 -47 -151 -131zM242 1020l114 8q144 161 144 189l-2 4q0 2 -4 2q-25 0 -88 -49q-60 -47 -164 -154zM-205 481q94 83 238.5 221.5t261.5 260.5l31 30l-117 -6
q-118 -125 -233 -264t-181 -242zM-199 123q68 0 168 32t203.5 83t171 87t123.5 70q193 310 502 623q-296 -6 -590 -21l-60 -59q-144 -152 -341 -336.5t-238 -216.5q-55 -96 -55 -166q0 -40 24 -67q37 -29 92 -29zM543 451q168 123 329.5 274t280.5 297l-137 -2
q-126 -126 -258 -286.5t-215 -282.5z" />
    <glyph glyph-name="um" unicode="um" horiz-adv-x="1781" 
d="M348 94q-6 0 -11 4.5t-5 10.5t6 12q24 30 88 112t90 115q-347 -233 -461 -233q-49 0 -49 49q0 55 64 162q-223 -185 -312 -185q-45 0 -45 47q0 38 38 97.5t72.5 98t65.5 67.5q6 6 13 6t13.5 -6.5t6.5 -12.5q0 -8 -6 -14q-63 -58 -115.5 -127.5t-52.5 -106.5q3 -16 16 -16
q47 0 198 109.5t171 138.5q6 6 12 6q7 0 13 -6t6 -14t-30 -51t-59.5 -96t-29.5 -85q0 -5 0.5 -8.5t2 -6t2 -4t4.5 -3t4.5 -1.5t6.5 -1.5t7 -1.5q41 0 128 42.5t167 94t152.5 98.5t84.5 51q17 -3 17 -16q0 -8 -9 -14q-33 -30 -116 -140q49 45 184.5 122t196.5 77
q19 0 26.5 -6.5t9.5 -20.5q0 -18 -20 -55t-41.5 -67.5t-50.5 -69.5t-33 -45q287 223 377 223q15 0 25 -8t10 -23q0 -33 -61.5 -125t-61.5 -108q0 -13 16 -13q26 0 93.5 27.5t145.5 66.5t151.5 78.5t122.5 66.5l50 28q8 4 13 4q9 0 12 -10q0 -8 -12 -17l-25 -15
q-25 -14 -57 -32.5t-79 -44t-93.5 -50t-97.5 -49.5t-94.5 -43.5t-82 -30t-61.5 -11.5q-37 0 -37 35q0 29 30 81t60.5 96.5t30.5 57.5q-3 8 -13 8q-44 0 -214 -120.5t-211 -161.5q-7 -7 -15 -7q-14 0 -14 15q0 8 4 12q11 18 62.5 91t93 135t41.5 73q-4 4 -11 4q-27 0 -71 -22
q-90 -34 -211 -119.5t-219 -190.5q-8 -8 -17 -8z" />
    <glyph glyph-name="un" unicode="un" horiz-adv-x="1560" 
d="M383 94q-8 0 -14.5 6t-6.5 13l5 10q117 168 182 252q-379 -260 -494 -260q-10 0 -22 4q-27 12 -27 45q0 60 66 162q-223 -185 -312 -185q-32 0 -41 23q-6 12 -6 24q0 54 62.5 133t118.5 130q3 6 10 6t12.5 -6.5t5.5 -14.5t-4 -12q-64 -58 -116 -126t-52 -105
q7 -17 17 -19q32 0 119.5 57t162 116t86.5 75q6 6 10 6q8 0 14.5 -6.5t6.5 -13.5q-3 -8 -35 -54t-59 -97t-27 -83q0 -16 12 -22l15 -2q37 0 119.5 40.5t181 103.5t148 96t87.5 59q4 4 10 4h3q6 0 12 -6.5t6 -12.5t-6 -12q-13 -13 -37.5 -44.5t-57.5 -76.5t-44 -59
q224 198 321 198q24 0 39 -10.5t22 -32t9 -43.5t2 -57v-29q0 -81 22 -94q6 -6 21 -6q47 0 165 59.5t187 102t133 84.5q4 4 10 4q10 0 13 -6l2 -6q0 -8 -8 -13q-2 -1 -28 -18.5t-41 -27.5t-48 -31t-56.5 -35t-58.5 -35t-62 -35t-59.5 -29.5t-58 -25t-50.5 -15.5t-44 -6
q-24 0 -37 8q-17 11 -26 37.5t-10 47.5t-1 61v10q0 51 -6 77.5t-27 29.5q-107 0 -424 -308q-8 -4 -12 -4z" />
    <glyph glyph-name=".notdef" horiz-adv-x="0" 
 />
    <glyph glyph-name=".null" horiz-adv-x="0" 
 />
    <glyph glyph-name=".null" horiz-adv-x="0" 
 />
    <glyph glyph-name="nonmarkingreturn" horiz-adv-x="1040" 
 />
    <glyph glyph-name="space" unicode=" " horiz-adv-x="509" 
 />
    <glyph glyph-name="space" unicode="&#xa0;" horiz-adv-x="509" 
 />
    <glyph glyph-name="A" unicode="A" horiz-adv-x="1802" 
d="M-43 -199q-14 0 -14 15q0 6 6 12q415 415 1108 936q-860 -45 -1151 -107h-6q-15 0 -15 11t17 14q173 38 416.5 64.5t366 33.5t423.5 23q40 30 108.5 80t251 178t333.5 225.5t302.5 177.5t212.5 80q26 0 39 -16q4 -6 4 -23q0 -49 -90 -162q-58 -70 -414 -512q144 3 252 3
q15 0 15 -17q0 -8 -5 -14t-14 -6q-169 0 -278 -4q-64 -80 -243.5 -302t-299.5 -372.5t-170 -220.5q-9 -9 -16 -9q-6 0 -10.5 4.5t-4.5 10.5t6 12q80 106 300.5 385t392.5 492q-320 -7 -660 -27q-749 -557 -1149 -959q-9 -6 -14 -6zM1171 807q375 16 637 22l433 535
q77 96 83 133v4q0 15 -18 15q-48 0 -222.5 -101.5t-384 -243t-343 -234t-185.5 -130.5z" />
    <glyph glyph-name="B" unicode="B" horiz-adv-x="1742" 
d="M469 -258q-132 0 -236.5 29t-168.5 91t-64 148q0 75 49 166q7 10 17 10q8 0 14 -5.5t6 -12.5q0 -2 -4 -10q-43 -79 -43 -144q0 -76 58 -130.5t152 -79.5t214 -25q153 0 307 39.5t292 125.5t206 203q51 81 51 164q0 73 -45.5 134t-121.5 101.5t-156.5 67t-168.5 41.5
q-49 -68 -147.5 -203.5t-175.5 -242.5t-144 -205q-3 -10 -12 -10q-14 0 -14 16l2 10q149 222 448 642q-69 8 -96 10q-7 0 -11.5 5.5t-4.5 12.5q0 19 18 19l115 -7q33 73 33 132q0 51 -22.5 96t-55 77t-65 61t-55 61t-22.5 65q0 16 7 41q29 78 154.5 142t296 98t345.5 34
q116 0 215 -17t179.5 -51t126 -92.5t45.5 -134.5q0 -71 -39 -153q-184 -395 -992 -395q80 -22 149 -53.5t127.5 -75t92 -102.5t33.5 -126q0 -87 -58 -180q-74 -124 -215 -214t-299 -131.5t-317 -41.5zM954 700q787 0 961 375q35 69 35 135q0 68 -42 120t-116 83t-166.5 46.5
t-200.5 15.5q-167 0 -333.5 -32.5t-287 -91.5t-147.5 -128q-4 -16 -4 -27q0 -27 23 -56t56 -58t66 -62t56 -81t23 -103q0 -30 -9 -60q257 359 430 619q5 8 15 8q7 0 12.5 -5.5t5.5 -13.5l-4 -10q-165 -248 -467 -672z" />
    <glyph glyph-name="C" unicode="C" horiz-adv-x="1452" 
d="M313 -164q-65 0 -120 21q-100 38 -146.5 118.5t-46.5 186.5q0 152 76 311q142 301 407.5 554.5t571.5 393.5q228 103 385 103q105 0 155 -47q37 -34 37 -95q0 -73 -47.5 -163t-99.5 -144q-6 -6 -12 -6q-7 0 -13 6t-6 12q0 5 4 13q47 48 93 133t46 149q0 55 -41 78
q-50 29 -120 29q-146 0 -367 -100q-299 -138 -561 -389t-397 -541q-74 -162 -74 -299q0 -95 40.5 -166t129.5 -103q41 -16 104 -16q65 0 148.5 21t162 51t176 78.5t169.5 88t164 95.5t138 86t112.5 74t68.5 45q6 4 14 4q7 0 9 -4l4 -8q0 -10 -9 -13q-20 -13 -108.5 -71.5
t-172.5 -113.5t-207.5 -126t-232 -122.5t-226.5 -87.5t-208 -36z" />
    <glyph glyph-name="D" unicode="D" horiz-adv-x="1720" 
d="M201 -285q-123 0 -209 49t-117 154l-2 6q0 17 18 17q11 0 17 -13q53 -176 293 -176q60 0 112 8q167 26 353 110.5t350.5 203t306 262t229.5 287.5q172 282 172 487q0 245 -245 352q-155 64 -369 64q-241 0 -455.5 -73.5t-273.5 -184.5q-8 -11 -8 -25q0 -24 27 -50.5
t66 -56.5t78 -67t66 -95.5t27 -129.5q0 -81 -35 -176l504 708q3 8 12 8q8 0 13.5 -5.5t5.5 -12.5l-2 -10l-699 -983q-43 -63 -121 -173.5t-123.5 -177t-72.5 -112.5q-7 -10 -15 -10q-14 0 -14 16l4 10q75 126 326 484q178 262 178 432q0 57 -19.5 105.5t-48.5 80t-63 61.5
t-63 51t-48.5 47t-19.5 52t12 45q42 79 161.5 143.5t279 100t321.5 35.5q223 0 381 -68q268 -117 268 -387q0 -222 -176 -504q-91 -147 -235.5 -293.5t-312.5 -267t-357.5 -206t-360.5 -111.5q-75 -11 -116 -11z" />
    <glyph glyph-name="E" unicode="E" horiz-adv-x="1460" 
d="M100 -279q-48 0 -75 17q-25 19 -25 49q0 48 57 131q200 290 523 705q-69 -5 -170.5 -20t-102.5 -15h-4q-14 0 -14 12q0 13 14 16q70 15 305 43q332 421 512 611q6 6 13 6t12.5 -5.5t5.5 -13.5q0 -6 -6 -12q-206 -222 -488 -581q400 41 621 41h22q17 0 17 -19
q0 -18 -17 -18h-38q-220 0 -635 -43q-320 -412 -539 -725q-53 -76 -53 -111q0 -13 10 -20q19 -13 64 -13q92 0 311 51q12 3 72.5 16t81.5 17.5t79 16.5t88 17t83.5 14t91.5 13.5t86.5 9.5t93 7t88.5 2q64 0 129 -6q16 0 16 -18q0 -7 -5 -13t-15 -6q-71 6 -142 6
q-120 0 -267 -19t-239 -37t-235 -50q-247 -56 -326 -56zM993 1350h-2q-16 0 -16 18t16 18q43 2 164.5 9.5t178.5 10.5t151 7t168.5 6t144.5 2q217 0 373 -20q14 0 14 -17q0 -18 -16 -18h-4q-131 18 -357 18q-205 0 -815 -34z" />
    <glyph glyph-name="F" unicode="F" horiz-adv-x="1490" 
d="M227 -217q-5 0 -9.5 4t-4.5 10q0 5 4 13q22 29 60 82t93 133t105 153t128.5 187t131.5 192q21 37 33 72q-46 0 -98.5 -4t-111.5 -11t-73 -8h-4q-14 0 -14 12q0 14 14 17q109 19 299 31q11 50 11 75q0 72 -36 139t-89 116.5t-106 91.5t-93 79.5t-45 65.5v8
q0 52 117.5 88.5t317.5 54.5t404 25.5t435 7.5q446 0 588 -14q16 0 16 -19q0 -7 -4.5 -12.5t-11.5 -5.5h-3q-88 10 -524 10q-229 0 -435.5 -6t-412 -19.5t-328 -42t-122.5 -67.5v-6q6 -21 36 -50t70.5 -58.5t87 -70.5t85 -84.5t64 -103t25.5 -123.5q0 -29 -6 -63l436 627
q8 8 15 8t12.5 -6.5t5.5 -14.5q0 -6 -2 -10q-124 -173 -430 -616q399 20 705 20q16 0 16 -18q0 -19 -16 -19q-88 0 -323.5 -6t-408.5 -16l-589 -840q-5 -8 -15 -8z" />
    <glyph glyph-name="G" unicode="G" horiz-adv-x="1816" 
d="M940 -299q-8 0 -13 5.5t-5 12.5l2 9q43 100 153.5 269.5t216.5 307.5q-69 -54 -154.5 -113.5t-201 -127.5t-226 -121t-229.5 -88t-213 -35q-100 0 -168 39q-102 57 -102 194q0 99 53 228t147 266.5t231.5 277t295.5 258t351 211.5t388 136q87 20 160 20q93 0 141 -34.5
t48 -96.5q0 -126 -175 -301q-6 -6 -12 -6q-7 0 -12.5 6t-5.5 14t6 12q164 167 164 273q0 96 -152 96q-64 0 -153 -18q-199 -44 -410.5 -151.5t-397 -253t-337.5 -329.5t-234 -372q-59 -131 -59 -238q0 -116 82 -162q57 -32 147 -32q130 0 312.5 71t350.5 173.5t309 208.5
t214 184q-75 -2 -184.5 -8t-193 -12t-169.5 -12t-94 -7h-4q-14 0 -14 12q0 14 18 14q118 12 418 28.5t467 16.5h55q16 0 16 -18q0 -16 -16 -16h-2q-102 4 -190 4h-54q-160 -177 -317 -393.5t-232 -389.5q-6 -12 -16 -12z" />
    <glyph glyph-name="H" unicode="H" horiz-adv-x="1558" 
d="M18 -297q-6 0 -12 6t-6 15l2 8q148 295 148 508q0 25 -1.5 47t-6.5 47t-6.5 35t-9 38t-7.5 29q-17 71 -17 88q0 15 2 21q38 114 547 125q382 493 699 798q7 7 12 7q7 0 12.5 -5.5t5.5 -13.5q0 -6 -6 -12q-313 -301 -676 -774h43q236 0 611 -25q256 389 673 838q6 6 13 6
q6 0 12 -6.5t6 -12.5t-6 -12q-400 -431 -655 -817q157 -12 211 -27q14 -4 14 -18q0 -16 -18 -16l-9 2q-48 10 -221 24q-42 -64 -86.5 -140.5t-97 -178t-86 -200.5t-33.5 -167q0 -46 14 -74l2 -10q0 -14 -12 -14q-10 0 -16 12q-19 40 -19 88q0 73 31.5 171.5t82.5 199.5
t93 175t86 142q-383 25 -616 25h-45q-352 -462 -637 -922q-7 -10 -15 -10zM125 -76q242 373 500 709q-5 0 -37.5 -0.5t-55 -1t-63 -2.5t-71.5 -5t-69.5 -7.5t-67.5 -12t-56 -17t-43.5 -23t-22.5 -29.5l-2 -17q0 -14 24.5 -103t24.5 -175q0 -141 -61 -316z" />
    <glyph glyph-name="I" unicode="I" horiz-adv-x="1159" 
d="M608 1393q-7 0 -12.5 6t-5.5 14q0 11 10 14q222 86 1255 86h334q19 0 19 -14q0 -5 -5.5 -9.5t-13.5 -4.5h-196q-1147 0 -1379 -90zM-395 -209q-7 0 -13 5t-6 11q0 10 8 15q89 52 588 63q152 280 471 731q335 478 584 768q11 7 14 7q8 0 13 -5q6 -4 6 -14q0 -8 -4 -12
q-227 -258 -584 -764q-322 -461 -459 -711l230 2q129 0 314.5 -2t219.5 -2q21 0 21 -14t-19 -14l-463 2q-806 0 -913 -64z" />
    <glyph glyph-name="J" unicode="J" horiz-adv-x="1114" 
d="M94 -231q-26 0 -39 8q-55 24 -55 88q0 106 166 309q123 141 292.5 264.5t342.5 184.5h6q7 0 12.5 -5.5t5.5 -13.5q0 -10 -12 -16q-168 -60 -333 -180t-285 -258q-51 -56 -105.5 -140.5t-54.5 -142.5q0 -40 35 -57q14 -7 28 -7q69 0 202.5 95.5t286.5 245t315 337
t292 365.5t213.5 336t83.5 245v17q-10 84 -119 84q-26 0 -80 -8q-71 -13 -141 -31t-153.5 -47t-156.5 -64t-142.5 -83.5t-119.5 -103.5t-80 -127t-30 -151q0 -43 8 -79v-5q0 -14 -12 -14q-11 0 -14 16q-9 47 -9 89q0 83 30.5 158t81 133t121.5 108.5t145.5 86.5t160 66.5
t158.5 49t147 32.5q47 9 86 9q138 0 154 -109v-22q0 -92 -83.5 -255.5t-215 -346t-296 -373.5t-321.5 -342.5t-297 -248.5t-219 -97z" />
    <glyph glyph-name="K" unicode="K" horiz-adv-x="1413" 
d="M1284 -201q-13 0 -16 15q-36 136 -137 291.5t-244 289.5t-287 197q-462 -612 -571 -776q-6 -9 -15 -9q-6 0 -10 5.5t-4 11.5l4 10q58 86 222 310.5t343 459.5q-7 2 -59.5 16.5t-81.5 28t-29 29.5q0 90 432 274q282 365 408 510q6 6 12 6q8 0 13.5 -5.5t5.5 -12.5
q0 -4 -4 -12q-105 -119 -369 -459q304 124 676.5 246t525.5 153h4q19 0 19 -18q0 -13 -15 -17q-160 -33 -554.5 -163.5t-700.5 -257.5q-142 -184 -229 -301q145 -66 288.5 -202.5t245 -296t139.5 -302.5v-6q0 -6 -3.5 -10.5t-8.5 -4.5zM590 633q29 38 95.5 126t102.5 134
q-84 -34 -218 -104.5t-134 -100.5q0 -2 4 -6q3 -3 34 -13t67.5 -20.5t48.5 -15.5z" />
    <glyph glyph-name="L" unicode="L" horiz-adv-x="839" 
d="M555 -240q-70 0 -152 12.5t-147 27.5t-159 45t-143 48t-146 54.5t-125 46.5q-122 -68 -234 -68q-73 0 -119.5 27t-46.5 67q0 20 8 33q22 51 103 51q85 0 284 -71q74 45 167 148.5t185 229.5t191 269t197 276t191 241.5t185 175t167 67.5h2q14 0 14 -17q0 -7 -4.5 -12.5
t-11.5 -5.5q-59 -1 -133.5 -52t-151 -135t-163.5 -195t-169 -228.5t-170 -239.5t-164.5 -225t-153 -187.5t-135.5 -124.5q14 -5 117 -44.5t143 -53.5t136.5 -45.5t156.5 -45t141 -26t148 -12.5q139 0 234 45l8 2q14 0 14 -14q0 -9 -10 -14q-111 -50 -254 -50zM-551 -37
q95 0 189 47q-171 60 -242 60q-58 0 -72 -33q-4 -6 -4 -17q0 -25 39 -40t78 -17h12z" />
    <glyph glyph-name="M" unicode="M" horiz-adv-x="1773" 
d="M1272 -358q-10 0 -15 8q-20 29 -20 82q0 107 92 300.5t222.5 400.5t261.5 405t223 352.5t92 204.5q0 23 -17 26l-12 2q-51 0 -158 -91t-241.5 -236t-267 -296t-268.5 -302t-212 -222q-4 -3 -21.5 -20.5t-30.5 -28.5t-32 -21.5t-34 -10.5q-14 0 -27 10q-12 9 -12 33
q0 52 67 176.5t163 271.5t191.5 294t162.5 269.5t67 171.5q0 26 -16 31q-12 4 -21 4q-69 0 -213.5 -131t-314.5 -329t-335 -400t-310.5 -376.5t-204.5 -225.5q-4 -4 -13 -4q-8 0 -13 5t-5 13q0 6 6 12q53 46 166.5 179.5t241.5 293.5t279.5 339t284 323.5t252 240
t185.5 95.5q17 0 29 -6q33 -14 33 -58q0 -64 -67 -195.5t-162.5 -278t-191 -290t-162.5 -260t-67 -159.5v-11q3 -8 11 -8q25 0 115 91t208 227t261.5 295.5t272.5 295.5t243.5 227t172.5 91q20 0 33 -10q17 -14 17 -39q0 -65 -92.5 -228t-224.5 -361t-263.5 -401t-224 -389
t-92.5 -286q0 -45 18 -72l4 -10q0 -14 -14 -14z" />
    <glyph glyph-name="N" unicode="N" horiz-adv-x="2127" 
d="M18 -219h-2q-16 0 -16 18q0 17 14 17q94 12 206 72.5t224 152t231 207t231.5 240.5t220 248.5t202.5 234.5t173 196t137 135t90 50h6q26 -9 26 -56q0 -34 -16 -96q-16 -63 -120 -342.5t-191.5 -548t-87.5 -370.5q0 -50 20 -60l14 -4q47 0 159 115t248.5 290t301.5 385.5
t313.5 396.5t290 329t227.5 178l9 2q6 0 10 -5t4 -10q0 -8 -12 -14q-75 -32 -189.5 -143t-239.5 -263t-261.5 -328.5t-267.5 -346t-246 -309t-209.5 -225t-145.5 -85.5q-14 0 -22 4q-35 18 -35 95q0 103 65.5 319.5t143.5 419.5t143.5 387.5t65.5 230.5q0 16 -9 19h-4
q-28 0 -107.5 -80.5t-190.5 -210.5t-245.5 -288.5t-287 -320t-300.5 -297.5t-299.5 -229.5t-271.5 -109.5z" />
    <glyph glyph-name="O" unicode="O" horiz-adv-x="1507" 
d="M143 -184q-53 0 -94 30q-49 41 -49 125q0 75 36.5 180t92.5 207.5t100.5 175t81.5 123.5v15q0 123 77.5 267.5t193 261.5t259.5 195.5t267 78.5q94 0 162 -43q135 -84 135 -252q0 -151 -107 -349q-148 -273 -446 -567l70 -2q153 0 306.5 40t278.5 112q4 4 13 4q8 0 10 -4
l2 -8q0 -8 -10 -13q-131 -77 -290 -121.5t-314 -44.5q-68 0 -101 4q-54 -50 -120.5 -106t-169.5 -133t-206.5 -126.5t-177.5 -49.5zM145 -150q65 0 161 47t195.5 121.5t159.5 124t111 95.5q-112 18 -206 63.5t-162.5 124t-86.5 178.5q-23 -28 -67 -101.5t-92 -167.5
t-83.5 -197t-35.5 -171q0 -63 33 -92q28 -25 73 -25zM805 270q88 84 177.5 186t181 227.5t149 257t57.5 235.5q0 23 -8 69q-18 97 -111 156q-62 39 -145 39q-112 0 -245.5 -73.5t-241.5 -181.5t-185 -238.5t-86 -237.5q159 209 320 344t278 135h10q8 0 13.5 -6t5.5 -13
q0 -6 -6 -12t-15 -6h-10q-114 0 -276.5 -143.5t-319.5 -360.5q6 -84 48.5 -153t108.5 -114t142 -72.5t158 -37.5z" />
    <glyph glyph-name="P" unicode="P" horiz-adv-x="1325" 
d="M14 -98q-5 0 -9.5 4t-4.5 10l4 10q88 148 326 484l67 102q-64 24 -131 72q-10 7 -10 14q0 6 5.5 12t12.5 6l13 -4q57 -40 129 -69q162 265 162 426q0 59 -21 107t-51 76.5t-59.5 51.5t-50.5 45t-21 43q0 27 31 58q63 71 259.5 121.5t411.5 50.5q118 0 219 -18t185 -55
t132 -102.5t48 -152.5q0 -99 -62 -223q-76 -150 -220 -268.5t-322 -183t-357 -64.5q-139 0 -264 43q-315 -442 -405 -588q-5 -8 -17 -8zM700 492q172 0 344 62t311.5 176t211.5 257q57 117 57 205q0 79 -44 137.5t-121 91.5t-169.5 48.5t-202.5 15.5q-203 0 -396 -46
t-253 -106q-18 -15 -18 -33q0 -17 20.5 -36.5t50 -43.5t59.5 -54.5t50.5 -81t20.5 -111.5q0 -98 -56 -230l451 633q3 8 12 8q8 0 13.5 -5.5t5.5 -12.5l-3 -10l-587 -828q109 -36 243 -36z" />
    <glyph glyph-name="Q" unicode="Q" horiz-adv-x="1286" 
d="M1434 -350h-4q-419 73 -785 330q-183 -125 -342 -125q-40 0 -88 10q-215 50 -215 239q0 180 178 449q94 142 220 281.5t249 246.5q30 109 103.5 192.5t162.5 125t179 41.5q120 0 198 -77t78 -226q0 -175 -119 -422q-87 -179 -243.5 -382.5t-329.5 -332.5
q359 -253 760 -322q14 -3 14 -14q0 -14 -16 -14zM303 -111q141 0 311 113q-112 81 -229 191q-6 6 -6 12q0 7 6.5 13.5t13.5 6.5t13 -6q109 -106 233 -196q174 126 333 332.5t245 385.5q110 228 110 392q0 133 -69 201.5t-174 68.5q-117 0 -230.5 -77t-167.5 -206
q115 90 178 115l9 2q7 0 11.5 -5.5t4.5 -12.5q0 -15 -10 -17q-78 -29 -211 -143q-12 -53 -12 -107l2 -53q0 -7 -5 -11.5t-10 -4.5q-16 0 -16 16q-4 50 -4 70q0 17 4 53q-81 -73 -167 -166t-171.5 -202t-151.5 -226t-92 -215q-16 -59 -16 -104q0 -167 188 -209q49 -11 80 -11
z" />
    <glyph glyph-name="R" unicode="R" horiz-adv-x="1353" 
d="M1270 -207l-10 2q-78 46 -185.5 157t-207.5 240t-171.5 228t-113.5 164l-4 8q0 7 6 12.5t14 5.5h6q92 -32 211 -32q159 0 321 58t289.5 162t180.5 230q30 80 30 141q0 74 -41.5 129.5t-115.5 87.5t-164 47t-197 15q-173 0 -346.5 -35.5t-287 -96t-113.5 -124.5
q0 -20 8 -33q12 -25 37.5 -49.5t51.5 -45t51 -45.5t40.5 -62t15.5 -83q0 -74 -36 -167l376 528q3 8 13 8q8 0 13 -5.5t5 -12.5l-2 -11l-616 -870q-235 -333 -297 -434q-5 -10 -17 -10q-5 0 -9.5 4.5t-4.5 11.5l4 10q79 131 320 477q215 313 215 467q0 42 -15 75.5t-38.5 57
t-48.5 43.5t-50.5 45t-38.5 52q-12 24 -12 47q0 78 117.5 147t296.5 108.5t362 39.5q115 0 213 -17.5t177.5 -54t125 -98.5t45.5 -144q0 -74 -35 -157q-56 -133 -188.5 -242.5t-301 -170t-333.5 -60.5q-95 0 -174 20q53 -79 117.5 -168t159.5 -211t191 -220t167 -140
q8 -5 8 -15q0 -14 -14 -14z" />
    <glyph glyph-name="S" unicode="S" horiz-adv-x="1083" 
d="M250 -205q-109 0 -179.5 33.5t-70.5 97.5v2q0 94 162 224q4 4 12 4q12 0 12 -11q0 -9 -8 -14q-145 -117 -145 -194q0 -51 60 -77t155 -26q114 0 231 34.5t176 90.5q84 81 84 168q0 65 -46 140t-111.5 144t-131 137.5t-111.5 144t-46 141.5q0 49 22 92q36 69 171.5 157.5
t294.5 159t314 119.5t232 49h4q162 -3 162 -129q0 -62 -39 -140t-96.5 -144t-128 -111t-129.5 -45q-61 0 -99 47l-4 10q0 7 6.5 13t14.5 6q5 0 12 -7q25 -32 70 -32q66 0 151 68.5t145 163.5t60 165q0 97 -125 100h-2q-98 0 -315 -78t-420 -191.5t-246 -197.5
q-18 -37 -18 -73q0 -61 46 -133t111.5 -140.5t131 -138.5t111.5 -148.5t46 -148.5q0 -104 -96 -195q-65 -63 -187 -100t-243 -37z" />
    <glyph glyph-name="T" unicode="T" horiz-adv-x="825" 
d="M-20 -295q-6 0 -11.5 4.5t-5.5 11.5l4 11q6 10 19 30q52 83 84 135t91 153.5t97 184t78.5 182.5t61 194.5t20.5 176.5q0 234 -174 351q-64 43 -149.5 69.5t-150 34t-115.5 18t-60 27.5q-7 14 -7 21q0 59 167 102.5t449.5 67t600 34.5t672.5 11q458 0 836.5 -17t463.5 -39
q12 -3 12 -16q0 -8 -5.5 -14t-14.5 -6h-2q-87 24 -427.5 38.5t-787.5 14.5q-350 0 -676.5 -9.5t-613.5 -29.5t-461 -54.5t-176 -80.5q0 -7 15.5 -11.5t56.5 -10.5q13 -2 20 -3q70 -10 117 -19t123.5 -35t132.5 -63q187 -126 187 -376q0 -248 -183 -617q72 101 237.5 337.5
t292.5 413t244 330.5q6 9 15 9q6 0 12 -6t6 -13q0 -6 -2 -10q-102 -145 -489.5 -684t-587.5 -840q-8 -8 -16 -8z" />
    <glyph glyph-name="U" unicode="U" horiz-adv-x="1196" 
d="M858 -430q-8 0 -12 2q-125 58 -125 219l2 45q18 164 107 372t188 380q-181 -194 -270 -281q-427 -418 -621 -418q-47 0 -76 23q-51 39 -51 115q0 106 93 283.5t225.5 360t265.5 352t227 292t96 147.5v2q0 13 -20 13q-45 0 -163 -54.5t-247.5 -133t-241.5 -177.5
t-139 -176q-7 -10 -16 -10q-7 0 -13 5t-6 13l2 6q33 93 199 228.5t351 233t274 97.5q57 0 57 -43v-6q-2 -30 -97 -156.5t-228 -297.5t-266.5 -352.5t-226.5 -353t-93 -267.5q0 -60 37 -90q24 -21 61 -21q52 0 130.5 41.5t155.5 99.5t175.5 148t168 159t156.5 162
t118.5 127.5t74.5 83.5q19 32 73 114.5t129.5 191.5t147 189.5t101.5 80.5l10 -2q6 -3 6 -12q0 -14 -13 -40t-37 -62t-51.5 -73.5t-64.5 -83.5t-67.5 -83.5t-68.5 -82t-59.5 -69.5t-48.5 -56t-28 -32q-45 -72 -90 -152t-105.5 -196.5t-107.5 -239t-66 -221.5
q-16 -90 -16 -129q0 -127 106 -188q12 -6 12 -17q0 -10 -14 -10zM1288 954l236 301q-88 -88 -236 -301z" />
    <glyph glyph-name="V" unicode="V" horiz-adv-x="1007" 
d="M387 -236q-61 0 -70 70l-2 31q0 87 59.5 258t145 358.5t171 367.5t145 319.5t59.5 181.5l-2 10q-3 12 -21 12q-31 0 -92 -32t-132.5 -89t-136.5 -125t-108 -149.5t-43 -153.5q0 -81 58 -145q6 -6 6 -12q0 -7 -6 -13t-12 -6q-9 0 -15 6q-65 71 -65 168q0 76 42 162
t107.5 158.5t139.5 132.5t144 94.5t115 34.5q43 0 54 -33l2 -16q0 -49 -59.5 -193t-145 -323.5t-171 -365t-145 -353.5t-59.5 -252l2 -29q6 -37 35 -37l12 2q36 5 135.5 123t294.5 371q336 431 492 617q355 420 623 632q4 4 12 4q6 0 11 -4t5 -10q0 -7 -8 -12
q-129 -102 -271 -245.5t-283 -311.5t-252.5 -308.5t-244.5 -312.5q-37 -49 -55 -72q-247 -318 -326 -405q-88 -96 -126 -102z" />
    <glyph glyph-name="W" unicode="W" horiz-adv-x="1718" 
d="M1118 -279l-14 3q-47 13 -47 139q0 82 21 211t40.5 212t36.5 148q55 203 111 344q-38 -46 -156 -191.5t-205 -249t-194.5 -224.5t-185 -186.5t-115.5 -65.5h-7q-45 5 -45 73q0 79 64 242t146.5 324.5t189 351.5t160 280.5t92.5 153.5q16 24 16 41q0 16 -22 16
q-30 0 -89 -22q-61 -21 -134.5 -60t-149 -93t-138 -113.5t-102 -127.5t-39.5 -128q0 -34 13 -66l2 -6q0 -18 -21 -18q-11 0 -16 10q-15 37 -15 76q0 84 62 176t154.5 167t191 132.5t180.5 85.5q56 20 98 20q64 0 64 -47q0 -21 -25 -63q-34 -52 -131.5 -223.5t-218.5 -394.5
t-212 -429.5t-91 -281.5q0 -38 23 -41h4q33 0 116.5 79t193 206.5t215.5 256.5t214 261t158 188q6 6 14 6q18 0 18 -16l-2 -9q-81 -175 -157 -469q-92 -391 -92 -557q0 -76 22 -84h8q19 0 46 24t71.5 83.5t79.5 111t104 156.5q64 99 104.5 160t116 170t136 188.5t148 187.5
t169.5 196t183.5 185.5t205.5 182.5q4 4 13 4q16 0 16 -16q0 -11 -6 -15q-80 -65 -160 -139.5t-145.5 -141t-138.5 -151t-124.5 -145.5t-118 -151t-104 -141t-99.5 -142t-86.5 -128t-80.5 -122q-155 -237 -212 -306q-74 -88 -122 -88z" />
    <glyph glyph-name="X" unicode="X" horiz-adv-x="2009" 
d="M14 -305q-14 0 -14 14q0 6 6 12q124 124 560.5 455.5t893.5 624.5q-33 105 -59 178.5t-59 152t-62 126.5t-63.5 79t-69.5 31l-12 -2q-84 -12 -199.5 -101t-199 -199.5t-83.5 -178.5q0 -31 21 -49q6 -6 6 -13t-5 -12.5t-11 -5.5q-9 0 -13 4q-35 28 -35 76q0 83 91 202
t213 210t208 104l17 2q42 0 82 -32t72.5 -81.5t68 -130t62.5 -157.5t61 -183q964 615 1388 643h3q16 0 16 -18q0 -16 -14 -19q-124 -8 -295.5 -67.5t-362 -156.5t-364.5 -198.5t-359 -220.5q7 -23 44 -144.5t51 -165.5t49 -149t58 -157.5t57 -125.5t67 -118t67 -74
q7 -7 7 -12q0 -7 -5.5 -12.5t-11.5 -5.5q-8 0 -12 4q-32 26 -63.5 70t-57.5 88.5t-56 115.5t-50 122t-49 139t-44 135t-44 142t-40 130q-456 -295 -890 -621.5t-551 -443.5q-6 -6 -15 -6z" />
    <glyph glyph-name="Y" unicode="Y" horiz-adv-x="1474" 
d="M176 -489h-10q-77 0 -115.5 35t-38.5 94q0 61 37 137.5t108 153t161.5 140.5t210 104t241.5 40q102 0 201 -29q175 225 585 822q-66 -70 -151.5 -152.5t-205.5 -184.5t-232.5 -183t-229.5 -136t-200 -55q-44 0 -72 12q-76 29 -76 111q0 88 87 238.5t191 281.5
t220.5 273.5t146.5 187.5q37 56 37 84q0 13 -8 18q-11 8 -33 8q-61 0 -178.5 -53.5t-233 -130t-202 -170.5t-86.5 -164q0 -33 18 -57l6 -12q0 -7 -6 -13t-14 -6q-12 0 -17 8q-26 33 -26 78q0 80 88.5 181.5t208.5 182.5t246 137t200 56q31 0 51 -10q25 -19 25 -49
q0 -47 -43 -109q-23 -37 -101.5 -133.5t-165 -204.5t-172.5 -224.5t-142 -222.5t-56 -169t51 -82q27 -10 56 -10q90 0 230.5 79t282.5 194.5t286 250.5t246 242.5t157 175.5q5 8 14 8q8 0 15.5 -6.5t7.5 -13.5l-4 -13q-59 -85 -181 -263.5t-196 -285t-181.5 -256
t-201.5 -270.5q168 -60 315 -182q6 -6 6 -14q0 -9 -6 -16t-14 -7q-7 0 -10 6q-148 123 -318 178q-117 -150 -218.5 -260t-203.5 -195t-198.5 -129t-188.5 -46zM174 -451q167 4 354 157.5t416 447.5q-81 20 -170 20q-115 0 -229 -38t-200.5 -97.5t-154.5 -130.5t-103.5 -140
t-35.5 -122q0 -45 28.5 -71t86.5 -26h8z" />
    <glyph glyph-name="Z" unicode="Z" horiz-adv-x="1306" 
d="M2017 -240q-4 0 -12 4q-85 71 -274 118.5t-407 66t-468 18.5q-256 0 -481.5 -18t-351.5 -49h-5q-18 0 -18 16q0 11 8 16q323 202 835.5 627.5t825.5 722.5q-41 12 -135 12q-177 0 -446.5 -34.5t-356.5 -63.5h-6q-14 0 -14 12q0 11 12 17q61 24 341.5 64t461.5 40
q180 0 180 -47q0 -12 -10 -25q-43 -58 -361 -336t-694 -578t-530 -386q253 51 710 51q258 0 485.5 -19.5t430 -70t291.5 -127.5q8 -5 8 -12t-6 -13t-13 -6z" />
    <glyph glyph-name="a" unicode="a" horiz-adv-x="751" 
d="M59 117q-27 0 -41 16t-14 43q0 57 76 174q-276 -229 -385 -229q-29 0 -46.5 17t-17.5 44q0 50 50 116t127 114.5t143 48.5q61 0 100 -45l4 -13q0 -7 -5.5 -12.5t-12.5 -5.5q-9 0 -14 8q-29 33 -76 33q-55 0 -123 -45t-113 -102.5t-45 -94.5q0 -12 9.5 -21t21.5 -9
q43 0 145 66t176 125t140 116q8 4 12 4q6 0 12 -6.5t6 -12.5l-4 -10q-102 -144 -125 -191q-20 -40 -20 -65q0 -35 31 -35q61 0 218 92.5t277 176.5q6 4 15 4q2 0 6 -4t4 -8q0 -7 -6 -13q-50 -35 -108 -73t-141.5 -88.5t-158 -82.5t-117.5 -32z" />
    <glyph glyph-name="b" unicode="b" horiz-adv-x="768" 
d="M-162 59q-76 0 -76 76q6 69 56 171t119 202.5t155 208.5t154.5 185.5t126.5 137.5q240 250 340 250q23 0 35 -12q14 -14 14 -37q0 -56 -88 -164t-213.5 -222t-251 -220t-213.5 -174l-88 -68q-98 -163 -109 -239l-2 -17q0 -36 29 -39l18 -2q71 0 158.5 71t136.5 146
q-57 33 -69 90l-2 17q0 31 23 50t54 19q29 0 49.5 -18t20.5 -53q0 -39 -25 -88q55 -21 121 -21q160 0 334 105q8 4 12 4q13 0 13 -12q0 -10 -8 -13q-77 -51 -174 -84t-187 -33q-70 0 -129 23q-66 -104 -164.5 -172t-169.5 -68zM158 344q22 43 22 72q0 19 -9.5 28t-23.5 9
q-16 0 -29.5 -10.5t-13.5 -24.5q5 -25 16.5 -41t37.5 -33zM-31 485q33 25 110 87.5t191.5 161.5t215 193t173 180t72.5 124q0 26 -24 26q-49 0 -179 -116.5t-285.5 -298.5t-273.5 -357z" />
    <glyph glyph-name="c" unicode="c" horiz-adv-x="634" 
d="M-256 94q-92 0 -92 72q0 9 4 33q15 65 80 135.5t141 115t127 44.5q15 0 29 -7q24 -12 24 -34q0 -31 -39 -80q-6 -6 -12 -6q-8 0 -14 6.5t-6 13.5l4 10q30 34 30 52q0 6 -4 6q-4 2 -14 2q-37 0 -104.5 -39t-130 -104t-76.5 -124l-2 -20q0 -45 65 -45q79 0 248.5 68
t295.5 132.5t163 88.5q4 4 12 4q6 0 8 -4q4 -4 4 -6q0 -12 -10 -15q-26 -19 -112 -65.5t-198 -100t-231.5 -93.5t-189.5 -40z" />
    <glyph glyph-name="d" unicode="d" horiz-adv-x="860" 
d="M-276 111q-17 0 -29 6q-39 20 -39 61q0 56 64.5 135t151 136t146.5 57q62 0 68 -70v-2q0 -16 -20 -16q-17 0 -17 16q-3 37 -39 37q-43 0 -120.5 -54t-138 -124.5t-60.5 -112.5q0 -21 20 -30q7 -5 23 -5q78 0 297 164q29 80 145 245t254.5 329t278 287.5t206.5 123.5
q13 0 25 -6q18 -12 18 -37q0 -22 -13.5 -53.5t-39.5 -68.5t-51 -71.5t-60.5 -75t-56.5 -64t-49 -54.5l-29 -30q-305 -322 -593 -539q-1 0 -5 -9t-8 -25t-4 -30q0 -42 33 -53q20 -4 35 -4q69 0 193.5 50t215 98.5t160.5 91.5q4 4 12 4q9 0 11 -4l2 -6q0 -9 -9 -15
q-98 -71 -295 -162.5t-303 -91.5q-28 0 -43 6q-47 15 -47 76q0 25 4 39q-206 -149 -294 -149zM90 354q273 219 537 498q299 323 299 391q0 8 -4 12q-8 5 -19 5q-52 0 -176 -116.5t-253 -270t-240 -303t-144 -216.5z" />
    <glyph glyph-name="e" unicode="e" horiz-adv-x="604" 
d="M-141 96q-43 0 -76 23q-37 25 -37 74q0 8 4 32q14 78 74 145t137 103q56 23 86 23q38 0 49 -27q4 -12 4 -20q0 -36 -48.5 -65.5t-102.5 -29.5q-44 0 -70 23q-36 -36 -66 -88t-30 -92q0 -33 22 -50q19 -16 60 -16h8q49 0 129 29.5t160 71.5t152.5 84.5t120.5 72t50 29.5
q7 0 11 -4t4 -8q0 -8 -11 -13q-242 -156 -381 -222q-159 -75 -249 -75zM-51 389q36 0 76.5 20t40.5 37q-6 17 -25 17q-25 0 -71 -24t-62 -38q15 -12 41 -12z" />
    <glyph glyph-name="f" unicode="f" horiz-adv-x="630" 
d="M-1313 -741q-24 0 -45 12q-26 14 -26 55q0 28 12.5 68.5t32.5 84t50 98t59.5 103t68 106.5t68.5 101t67 94.5t57.5 79t46 62t27.5 37.5v4q0 3 -3 17t-3 22q0 16 14 18h4q5 0 29 -8q45 59 119.5 153t219.5 265t272.5 307t254 240t189.5 104q28 0 43 -18q8 -12 8 -27
q0 -32 -33.5 -82.5t-96 -113.5t-131.5 -126.5t-160 -137t-160 -128.5t-152.5 -117.5t-117 -87t-73.5 -53.5q-30 -38 -143 -186q40 -4 67 -4q156 0 357 65t328 148q4 4 10 4q8 0 10 -4l2 -6q0 -8 -10 -15q-130 -88 -336.5 -158.5t-366.5 -70.5q-32 0 -86 8l-16 -22
q0 -10 1 -32t1 -32q0 -137 -44.5 -281t-117.5 -272q-25 -40 -53.5 -79t-70.5 -87t-87.5 -78t-85.5 -30zM-575 506q63 48 160 125.5t256 209.5t266.5 240.5t107.5 147.5q0 10 -4 14q-9 6 -18 6q-39 0 -126 -69.5t-181.5 -165t-198.5 -209.5t-166.5 -186t-95.5 -113z
M-1311 -709q31 0 73 32.5t81 80t66.5 85.5t41.5 62q70 119 114 257.5t44 267.5v28q-36 -48 -97.5 -134t-151 -218.5t-151 -250t-61.5 -169.5q0 -23 15 -32q9 -9 26 -9z" />
    <glyph glyph-name="g" unicode="g" horiz-adv-x="737" 
d="M-1487 -811h-12q-57 0 -57 57q0 29 14 64q54 123 235 295q197 190 545 395l256 358q-292 -235 -395 -235q-22 0 -35 8q-22 16 -22 47q0 55 63.5 132t157 134.5t168.5 57.5q61 0 96 -41q6 -6 6 -12q0 -7 -6 -13t-12 -6q-9 0 -15 6q-24 31 -71 31q-64 0 -150.5 -57
t-145.5 -126t-59 -106q0 -14 13 -20q4 -2 14 -2q35 0 107.5 42t155 104.5t136.5 106t90 74.5q8 4 13 4q7 0 12.5 -5.5t5.5 -12.5q0 -6 -6 -12q-12 -12 -38.5 -47t-64 -87t-69.5 -97t-73 -102.5t-56 -78.5q70 40 206 113.5t243.5 135.5t193.5 120q4 4 14 4q7 0 9 -4l4 -6
q0 -8 -11 -15q-101 -69 -220 -140t-264 -152.5t-226 -129.5q-113 -156 -205 -273.5t-199 -240.5t-196 -192.5t-150 -75.5zM-1491 -776q53 6 131 67t172 167t181 216t190 250q-284 -171 -465 -344q-97 -95 -168.5 -189.5t-71.5 -144.5v-2q2 -20 31 -20z" />
    <glyph glyph-name="h" unicode="h" horiz-adv-x="827" 
d="M-346 94q-14 0 -14 17q0 19 15 52.5t51.5 88.5t52 77.5t59.5 84.5q23 38 142.5 192t176.5 221q103 124 199 225.5t197 181t157 79.5q29 0 43 -17q12 -12 12 -32q0 -52 -83.5 -155t-203 -213t-251.5 -221t-227.5 -184.5t-133.5 -99.5q-50 -70 -120 -180q242 242 352 242
q38 0 52.5 -25.5t14.5 -75.5q0 -23 -4 -70.5t-4 -66.5q0 -60 29 -65q15 -3 18 -3q31 0 109 41.5t153 90.5t140 93.5t67 45.5q7 0 11 -4q9 -13 -5 -21q-29 -17 -104.5 -70t-138 -96t-133.5 -78.5t-111 -35.5q-40 6 -55 31t-15 79q0 24 3.5 71.5t3.5 65.5q0 56 -27 58
q-37 0 -95.5 -35t-120.5 -91t-109 -102t-87 -90q-6 -6 -16 -6zM-88 483q103 76 241.5 189.5t295 262.5t219.5 243q39 60 39 84q0 14 -21 14q-44 0 -125.5 -63t-169 -154.5t-185 -206.5t-168.5 -205t-126 -164z" />
    <glyph glyph-name="i" unicode="i" horiz-adv-x="598" 
d="M10 528q-8 0 -8 13v8q11 38 44.5 72t68.5 34h4q7 0 11.5 -5.5t4.5 -12.5t-5 -13t-13 -6h-6q-21 0 -48.5 -25.5t-37.5 -49.5q-6 -15 -15 -15zM-213 96q-40 0 -59 19t-19 49q0 42 36.5 105t70.5 104.5t69 77.5q6 6 13 6t13.5 -6.5t6.5 -14.5q0 -6 -6 -12
q-47 -45 -107.5 -128.5t-60.5 -129.5q0 -17 10 -27q13 -10 35 -10q64 0 219 65.5t266 123.5t177 96l12 4q8 0 8 -4l4 -8q0 -6 -10 -13q-27 -19 -142.5 -83.5t-285 -139t-250.5 -74.5z" />
    <glyph glyph-name="j" unicode="j" horiz-adv-x="456" 
d="M-915 551q-9 0 -9 10l2 10q11 38 40.5 70.5t60.5 38.5h4q10 0 16 -6.5t6 -14.5q0 -13 -14 -16q-23 -6 -52 -30t-38 -46q-6 -16 -16 -16zM-2054 -795q-28 0 -47 19q-21 21 -21 61q0 31 15 72q27 74 93 156t144.5 151t175 138.5t176.5 118.5t158 91q9 13 70 103.5t99 143.5
t90.5 115.5t84.5 80.5q4 2 10 2t11.5 -6t5.5 -13q0 -9 -8 -14q-22 -13 -52 -44.5t-69.5 -85t-61 -83.5t-66.5 -96l-44 -66q73 38 217 109t256.5 131t210.5 125q6 4 12 4q12 0 12 -10q0 -8 -10 -15q-105 -71 -227 -138.5t-278.5 -146.5t-235.5 -122q-6 -9 -44 -63.5
t-73.5 -104t-92 -125t-106.5 -138.5t-110 -130t-110.5 -113.5t-99.5 -76.5t-85 -30zM-2048 -760q27 0 67 25.5t89.5 74.5t96 100t104 123.5t95.5 121.5t88 118t63.5 88t39.5 56q-89 -50 -182 -112.5t-196 -144t-181.5 -173.5t-108.5 -174q-14 -35 -14 -62q0 -21 10 -31
q13 -10 29 -10z" />
    <glyph glyph-name="k" unicode="k" horiz-adv-x="790" 
d="M-414 94q-6 0 -11 5.5t-5 11.5q0 4 4 12q4 5 54 76t93.5 131t118 161.5t141.5 185.5t148 183t154 175t143.5 141t131.5 100t104 35q35 0 59 -27q12 -15 12 -37q0 -32 -27 -78.5t-78.5 -102t-109.5 -112t-136 -122t-142.5 -118t-144 -112.5t-124.5 -93.5t-100.5 -74
t-56.5 -41.5q-143 -195 -146 -200l156 116l-2 13q0 22 16 22l23 -8q142 103 205 131q41 18 69 18q20 0 31 -8q18 -12 18 -35q0 -51 -69.5 -104t-163.5 -53q-41 0 -84 12v-2q37 -109 135 -133l31 -4q30 0 67.5 9.5t83.5 29.5t83 37.5t90 49t78.5 46.5t75.5 47t56 35
q12 6 19 6q4 0 8 -4t4 -8q0 -6 -10 -13q-7 -5 -58.5 -38.5t-78 -50t-81 -49.5t-92.5 -51.5t-85.5 -39.5t-88 -31t-73.5 -10q-13 0 -37 4q-56 14 -97 52t-61 95l-237 -176q-8 -4 -13 -4zM-49 319q85 0 140.5 45.5t55.5 75.5q0 4 -2 6q-3 3 -12 3q-12 0 -33 -8.5t-42 -19.5
t-48 -28t-44 -28.5t-38 -25.5t-22 -15q40 -5 45 -5zM-113 492q4 3 58.5 45.5t105 82.5t130 104t145.5 120t137.5 121t121 115.5t81.5 95.5t32 69q0 7 -4 15q-11 20 -39 20q-57 0 -173.5 -103t-248.5 -258t-211.5 -254.5t-134.5 -172.5z" />
    <glyph glyph-name="l" unicode="l" horiz-adv-x="808" 
d="M57 92q-76 0 -115.5 37t-39.5 104q0 63 33.5 149.5t84 169.5t86 135t64.5 89q30 39 78.5 95.5t120 129.5t141.5 134t143 103t123 42q31 0 50.5 -14.5t19.5 -40.5q0 -46 -76 -137.5t-176.5 -184.5t-232.5 -204t-211.5 -173.5t-146.5 -114.5q-16 -12 -21 -16l-2 -2
q-41 -95 -41 -162q0 -102 116 -102q119 0 332.5 94t362.5 189q9 6 14 6q12 0 12 -10q0 -8 -10 -15q-164 -108 -370.5 -204.5t-338.5 -96.5zM10 463q102 79 217 173.5t257 217.5t233.5 224t91.5 143q0 22 -37 22q-54 0 -142.5 -61.5t-176.5 -148.5t-154 -160t-100 -117
q-121 -159 -189 -293z" />
    <glyph glyph-name="m" unicode="m" horiz-adv-x="1058" 
d="M-473 94q-14 0 -14 15q0 6 6 12q18 22 78 100.5t105.5 133t70.5 75.5q6 6 12 6q16 0 16 -16q0 -9 -8 -14q-43 -39 -119 -140q47 45 183 122t198 77q19 0 29 -8t8 -21q0 -14 -11.5 -39t-32 -56t-36.5 -53.5t-38.5 -52t-24.5 -32.5q2 1 36 27t61 45.5t71.5 49.5t78.5 49.5
t70 34.5t58 15q36 0 36 -31q0 -33 -61 -124.5t-61 -108.5q0 -10 16 -10q26 0 93.5 27t145.5 66t151.5 78t123.5 66l49 27q4 4 12 4t13 -10q0 -8 -13 -15q-41 -25 -89 -52.5t-160 -89t-204.5 -100t-135.5 -38.5q-39 0 -39 37q0 29 30.5 81t60.5 96.5t30 57.5q-3 8 -11 8
q-44 0 -215 -121t-211 -161q-10 -7 -14 -7q-6 0 -11 5t-5 12l4 10q9 14 62 89t93.5 136t40.5 72q-3 6 -10 6q-28 0 -72 -22q-91 -35 -211 -119.5t-217 -190.5q-8 -8 -18 -8z" />
    <glyph glyph-name="n" unicode="n" horiz-adv-x="839" 
d="M-418 94q-8 0 -14 6t-6 13l4 10q182 264 241 323q3 7 11 7q7 0 13.5 -6.5t6.5 -14.5q0 -6 -6 -12q-29 -29 -137 -178q90 81 178.5 139.5t142.5 58.5h9q38 -4 49.5 -40t11.5 -99v-37q0 -78 23 -90q4 -4 22 -4q47 0 161 57t193.5 105.5t128.5 81.5q6 4 11 4q6 0 12 -6
q6 -11 -6 -19q-227 -150 -345 -207q-106 -51 -161 -51q-24 0 -35 8q-25 15 -33.5 58.5t-6 86.5t-3.5 78t-27 37h-8q-19 0 -46.5 -11.5t-54 -27.5t-62.5 -43t-61.5 -48t-62 -53.5t-54 -48.5t-46.5 -43.5t-31 -29.5q-4 -4 -12 -4z" />
    <glyph glyph-name="o" unicode="o" 
d="M-262 92q-21 0 -31 4q-43 13 -43 66q0 51 33 110q65 106 168 168l8 2q7 0 12.5 -6t5.5 -12q0 -9 -8 -14q-82 -52 -133 -123q-16 -20 -33.5 -58t-17.5 -65q0 -18 8 -28t29 -11h4q47 0 119 60.5t100 105.5q-45 42 -45 98q0 31 16 51.5t39 20.5q15 0 23 -4q41 -17 41 -68
q0 -41 -27 -90q27 -12 68 -12q79 0 189.5 42t178.5 85q6 4 11 4q3 1 6 -1.5t5 -6t1 -4.5q0 -8 -8 -13q-76 -48 -189 -95.5t-200 -47.5q-48 0 -82 18q-47 -65 -118 -120.5t-130 -55.5zM-23 324q19 34 19 61q0 16 -6.5 26.5t-14.5 12.5h-4q-22 0 -22 -33q0 -17 8 -37t20 -30z
" />
    <glyph glyph-name="p" unicode="p" horiz-adv-x="729" 
d="M-1395 -715q-8 0 -15 5t-7 12l4 10q13 25 89.5 149.5t90.5 145.5q436 710 561 852q3 6 10 6t14 -7.5t7 -15.5q0 -6 -2 -10q-68 -76 -205 -285q272 334 410 334q27 0 51 -12q33 -17 33 -59q0 -51 -45.5 -122t-83.5 -104q296 93 506 230q6 4 8 4t10 -4l4 -8q0 -5 -8 -13
q-306 -201 -666 -287h-4q-9 0 -14.5 6.5t-5.5 14.5q0 12 12 14q114 32 181 120t67 151q0 19 -10 26q-16 8 -35 8q-51 0 -127.5 -58t-159.5 -154.5t-164 -201t-158.5 -219t-124 -185.5t-77.5 -122l-131 -215q-6 -6 -15 -6z" />
    <glyph glyph-name="q" unicode="q" horiz-adv-x="841" 
d="M-819 -752q-11 0 -29 9q-24 15 -24 51q0 28 15 69t37 82.5t55.5 94t63 94t67.5 92t60 78.5t49.5 62.5t28.5 35.5q-8 12 -19.5 23.5t-17.5 18.5t-6 13t7 13q5 5 68 29.5t65 25.5l245 305q-1 -1 -28 -19.5t-39.5 -27t-44.5 -30t-53 -34t-53 -31t-56.5 -30t-51.5 -23
t-50.5 -17t-42.5 -5.5q-40 0 -56 25q-8 11 -8 30q0 37 36.5 88.5t92 97.5t128.5 78.5t138 32.5q68 0 117 -35q6 -6 6 -14q0 -6 -5 -12t-11 -6l-10 4q-47 30 -99 30q-58 0 -125 -33.5t-116 -79t-82 -89t-33 -64.5q0 -6 2 -8q5 -8 25 -8q68 0 225.5 88t288.5 213q4 4 12 4
q7 0 12.5 -5.5t5.5 -12.5t-2 -9l-301 -374q345 139 485 207q146 71 246 139q8 4 13 4q6 0 10 -4q8 -13 -6 -21q-110 -74 -260 -150t-256 -120.5t-277 -112.5l-74 -94q33 -59 33 -131q0 -87 -45.5 -186.5t-109 -175t-132 -125.5t-114.5 -50zM-813 -713q33 0 93 46t119 115
t102.5 161t43.5 172q0 55 -20 102q-25 -31 -52.5 -66t-89 -117.5t-106 -149t-81 -134.5t-36.5 -100q0 -21 15 -27q4 -2 12 -2zM-473 -53l29 35l-43 -17z" />
    <glyph glyph-name="r" unicode="r" horiz-adv-x="718" 
d="M127 86q-24 0 -37 8q-29 17 -29 56q0 42 50.5 134.5t50.5 114.5q0 9 -4 17l-41 47q-13 -10 -49.5 -31.5t-57.5 -36.5q-11 -4 -16 -2.5t-6 5.5v5q0 8 10 15q24 16 102 78v6q0 27 35 55.5t58 28.5q20 0 20 -17q0 -14 -16 -34q-21 -25 -52 -50l43 -49q9 -12 9 -33
q0 -38 -50.5 -130.5t-50.5 -120.5q0 -18 15 -27q9 -6 22 -6q19 0 48 8t65.5 24.5t72.5 33.5t81 42.5t78.5 44.5t78 46t65.5 40t55 34l34 22q8 4 12 4q8 0 10 -4q4 -3 2.5 -10t-8.5 -11q-260 -170 -396 -238q-138 -69 -204 -69z" />
    <glyph glyph-name="s" unicode="s" horiz-adv-x="526" 
d="M-489 39q-40 0 -71 26.5t-34 65.5v4q0 35 21 35q6 0 12 -6q48 -39 125 -39h20q22 35 47 107t43.5 126.5t59 100t96.5 49.5h2q18 0 18 -19q0 -7 -5 -12.5t-13 -5.5q-42 -3 -75 -42t-49.5 -85.5t-40 -113.5t-40.5 -101q208 34 600 285l11 4q6 0 10 -4t4 -8q0 -8 -10 -13
q-81 -54 -144 -93t-155.5 -90t-179 -82t-158.5 -38q-37 -51 -94 -51zM-487 74q24 0 41 14q-61 3 -107 27q7 -18 26 -29.5t40 -11.5z" />
    <glyph glyph-name="t" unicode="t" horiz-adv-x="778" 
d="M-197 92q-77 0 -116 39q-33 33 -33 86q0 77 59 189l8 14q39 73 89 147t116.5 154.5t111.5 131.5t124 138q-452 -28 -617 -50q-45 -6 -86 -13h-6q-14 0 -14 12q0 5 4.5 9.5t11.5 4.5q297 50 744 76q1 0 38 38t82.5 81t98.5 79t84 36q18 0 30 -15q7 -11 7 -20
q0 -46 -129 -189q431 19 761 19q140 0 312 -4q18 0 18 -15q0 -14 -18 -14q-59 2 -203 2q-413 0 -905 -24q-176 -189 -535 -521l-98 -92q-55 -99 -55 -168q0 -41 24 -65q31 -31 94 -31q71 0 176.5 34.5t210 86.5t180 93.5t126.5 74.5l8 2q4 0 12 -4l2 -8q0 -7 -6 -13
q-51 -34 -125 -76.5t-181 -97.5t-217 -91t-188 -36zM252 1032l113 6q10 10 38.5 41t65.5 79.5t37 64.5l-2 6q-2 2 -8 2q-30 0 -123.5 -84t-120.5 -115zM-190 504q390 365 516 495l-113 -6q-92 -100 -145.5 -160.5t-127.5 -153t-130 -175.5z" />
    <glyph glyph-name="u" unicode="u" horiz-adv-x="724" 
d="M53 115q-10 0 -26 4q-25 13 -25 45q0 55 64 162q-1 -1 -28.5 -23t-49 -38.5t-58 -41.5t-65 -42t-59.5 -29.5t-52 -12.5q-28 0 -41 25q-4 16 -4 24q0 85 178 263q6 6 13 6t12.5 -6.5t5.5 -14.5q0 -6 -6 -12q-63 -60 -114.5 -127.5t-51.5 -103.5v-9q2 -10 16 -10
q31 0 118.5 57t163 116.5t85.5 74.5q4 4 12 4t13.5 -5.5t5.5 -12.5l-4 -11q-115 -173 -115 -223q0 -16 12 -22q4 -2 17 -2q94 0 503 264q6 4 13 4q6 0 10 -4l2 -6q0 -10 -10 -15q-404 -278 -535 -278z" />
    <glyph glyph-name="v" unicode="v" horiz-adv-x="636" 
d="M-254 94q-16 0 -22 4q-19 13 -19 39q0 60 64 164.5t104 134.5q4 4 10 4q7 0 13 -6t6 -14q0 -4 -8 -12q-46 -33 -101 -127.5t-55 -135.5q0 -12 4 -14q4 -4 12 -4q39 0 143.5 75t159.5 124q14 48 46.5 77t58.5 29q14 0 14 -14q0 -13 -14 -33q-33 -44 -70 -76q3 -43 53 -43
q18 0 42 5.5t47.5 14.5t52.5 22t52 24.5t50.5 26t43 23.5t34 20t20.5 12q6 4 13 4q8 0 10 -4l2 -6q0 -11 -8 -15q-243 -160 -365 -160q-61 0 -78 50q-234 -189 -315 -189z" />
    <glyph glyph-name="w" unicode="w" horiz-adv-x="901" 
d="M4 49l-18 2q-37 11 -37 62q0 14 3 31t9 36.5t10 30.5t12.5 31.5t8.5 21.5q-53 -58 -123 -114t-117 -56q-20 0 -35 12q-12 12 -12 35q0 53 54.5 143.5t105.5 145.5q6 6 14 6q6 0 12.5 -5.5t6.5 -12.5q0 -5 -7 -12q-35 -38 -95 -126.5t-60 -127.5q0 -13 6 -19t16 -6
q39 0 133.5 88t165.5 178q6 6 15 6q8 0 13 -5.5t5 -12.5l-2 -8q-23 -38 -62.5 -129.5t-39.5 -132.5q0 -15 8 -23q4 -2 12 -2q27 0 76.5 32.5t91.5 67.5q72 60 133 127q12 57 46.5 93t60.5 36q16 0 16 -16t-10 -31q-14 -29 -74 -94q11 -39 60 -39h8q48 3 112.5 29t111.5 53
t114 70q8 4 12 4q7 0 10 -6l2 -6q0 -8 -8 -13q-5 -3 -35 -22.5t-43 -27.5t-44 -26.5t-49.5 -28.5t-47.5 -24t-50.5 -21t-46 -12.5t-44.5 -5.5q-30 0 -52 11q-28 13 -37 36q-46 -47 -93 -90t-114.5 -88t-107.5 -45z" />
    <glyph glyph-name="x" unicode="x" horiz-adv-x="915" 
d="M-455 72q-12 0 -12 10q0 8 12 14q42 20 167.5 97t162.5 98l-41 137l-49 -31q-6 -4 -14 -4q-4 0 -7.5 2.5t-4.5 4.5l-1 3q0 7 11 15l63 49l10 4q16 0 19 -14l45 -148q116 65 182.5 100t146.5 68t119 33q21 0 21 -16q0 -6 -5.5 -11.5t-13.5 -5.5q-54 0 -158.5 -51.5
t-277.5 -151.5q47 -107 121 -122l35 -5q77 0 208 53.5t232 110.5t166 103q6 4 12 4t8 -4q5 -5 5 -8q0 -6 -7 -13q-71 -51 -175 -111t-237.5 -115.5t-215.5 -55.5q-15 0 -39 4q-93 21 -146 141q-241 -140 -331 -182z" />
    <glyph glyph-name="y" unicode="y" horiz-adv-x="759" 
d="M-1444 -793q-14 0 -31 7q-36 13 -36 67q0 41 18 86q37 92 126 191t204 185.5t218 152.5t206 122q79 117 166 263q-179 -179 -269 -179q-21 0 -37 13q-18 13 -18 45q0 85 158 278q6 6 12 6q7 0 12.5 -5t5.5 -13t-4 -12q-149 -181 -149 -250l2 -12q6 -17 22 -17
q35 0 116.5 66t142 127t77.5 82q6 6 13 6t12.5 -5.5t5.5 -11.5l-2 -8q-4 -10 -97.5 -166.5t-103.5 -171.5q65 34 213 107t256.5 132t204.5 122q8 4 14 4q9 0 11 -4l2 -6q0 -9 -9 -15q-171 -115 -497 -280q-183 -94 -236 -123q-221 -325 -358 -486q-247 -297 -371 -297z
M-1440 -758q105 0 338 287q136 159 318 424q-90 -50 -180.5 -110.5t-187.5 -136t-176 -161.5t-120 -166q0 -1 -6.5 -17t-10.5 -26.5t-8 -27.5t-4 -29q0 -27 17 -33q12 -4 20 -4z" />
    <glyph glyph-name="z" unicode="z" horiz-adv-x="788" 
d="M-39 76q-33 0 -64 7t-47.5 13.5t-48.5 23t-43 21.5q-87 -47 -123 -47q-16 0 -28 6q-17 14 -17 29q0 25 28.5 46.5t70.5 21.5q29 0 67 -15q139 76 338 211q-30 -6 -67 -6q-103 0 -148 53l-65 -43q-23 -11 -23 9q0 6 6 12q16 10 36.5 25.5t32.5 23.5t19 8q5 0 11.5 -4
t7.5 -8q21 -43 104 -43q46 0 98 12t80 25l9 2q7 0 11.5 -5.5t4.5 -11.5q0 -11 -8 -16q-62 -45 -187.5 -127.5t-218.5 -136.5q1 -1 15 -7.5t17 -8t15.5 -7.5t17.5 -7.5t17 -6t19.5 -6t18.5 -4t22 -3.5t22 -1q64 0 191 58.5t229.5 119.5t198.5 125l12 4q6 0 10 -4l4 -8
q0 -6 -10 -13q-478 -317 -635 -317zM-362 129q19 0 73 27q-6 2 -22 2q-22 0 -40 -7.5t-22 -19.5z" />
    <glyph glyph-name="Agrave" unicode="&#xc0;" horiz-adv-x="1806" 
d="M-45 -201q-5 0 -8.5 4.5t-3.5 10.5q0 9 8 14q419 421 1108 936q-863 -45 -1153 -107h-6q-15 0 -15 11q0 5 5 10t12 6q164 35 387 60t352 33t397 22q48 3 72 4q21 16 57 42.5t143.5 103.5t209 147.5t232.5 156t235.5 147t197 104t137.5 42.5q24 0 37 -16q4 -6 4 -23
q0 -51 -90 -164l-415 -512q147 3 253 3q15 0 15 -17q0 -7 -5.5 -12.5t-13.5 -5.5q-66 0 -278 -4q-59 -74 -243.5 -302.5t-303 -377.5t-170.5 -219q-6 -9 -14 -9q-6 0 -10.5 4.5t-4.5 10.5q0 5 7 12q148 200 692 879q-282 -6 -660 -25q-742 -552 -1151 -961q-12 -8 -16 -8z
M1174 807q374 16 638 22l433 537q78 98 84 133v4q0 15 -19 15q-48 0 -222.5 -101.5t-385 -244t-342.5 -234.5t-186 -131zM2456 1577l-7 2q-45 31 -77.5 71t-40.5 70l-2 6q0 7 7 14t15 7q10 0 16 -12q26 -77 97 -136q6 -6 6 -10q0 -12 -14 -12z" />
    <glyph glyph-name="Aacute" unicode="&#xc1;" horiz-adv-x="1798" 
d="M2294 1630h-4q-13 0 -13 10t11 13q86 26 141 90q3 6 12 6q7 0 13 -7.5t6 -15.5l-2 -10q-19 -25 -65 -50.5t-99 -35.5zM-43 -201q-14 0 -14 15q0 9 8 14q415 415 1108 936q-863 -45 -1153 -107h-6q-15 0 -15 11q0 5 5 10t12 6q355 75 1141 115q16 1 24.5 1.5t21 1
t23.5 1.5q21 16 57 42.5t143.5 103.5t209 147.5t232.5 156t235.5 147t197 104t137.5 42.5q24 0 37 -16q4 -6 4 -21q0 -50 -92 -166l-413 -512q144 3 251 3q7 0 12 -5.5t5 -11.5q0 -7 -5.5 -12.5t-13.5 -5.5q-62 0 -280 -4q-77 -97 -246.5 -308t-293.5 -366.5t-175 -224.5
q-6 -9 -14 -9q-6 0 -10.5 4.5t-4.5 10.5q0 7 5 12q181 244 694 879q-286 -6 -662 -25q-753 -563 -1151 -961q-12 -8 -14 -8zM1176 807q375 16 639 22q124 155 432 537q78 98 84 133v4q0 15 -19 15q-49 0 -227 -104t-379.5 -240t-348 -238t-181.5 -129z" />
    <glyph glyph-name="Acircumflex" unicode="&#xc2;" horiz-adv-x="1792" 
d="M-43 -201q-14 0 -14 15q0 8 6 14q424 424 1110 936q-863 -45 -1153 -107h-6q-15 0 -15 11q0 5 5 10t12 6q164 35 387 60t352 33t397 22q48 3 72 4q21 16 57 42.5t143.5 103.5t209 147.5t232.5 156t235.5 147t197 104t137.5 42.5q27 0 37 -16q6 -9 6 -23q0 -48 -92 -164
l-415 -512q144 3 253 3q7 0 12 -5.5t5 -11.5t-6 -12t-15 -6q-66 0 -278 -4q-59 -74 -243.5 -302.5t-303 -377.5t-170.5 -219q-6 -9 -14 -9q-5 0 -9 4.5t-4 10.5q0 7 5 12q82 110 303.5 391t390.5 488q-282 -6 -664 -25q-745 -557 -1149 -961q-8 -8 -14 -8zM1174 807
q374 16 638 22q52 66 433 537q78 98 84 133v4q0 15 -17 15q-20 0 -65 -19t-102 -51t-131 -77t-148 -92.5t-156.5 -102.5t-152 -102.5t-141 -97l-117 -81t-85 -59.5t-40.5 -29zM2494 1579q-5 0 -9.5 4t-4.5 10l31 144l-195 -82l-8 -2q-14 0 -14 14q0 10 12 16l223 97h6
q19 0 19 -19v-6l-43 -162q-3 -14 -17 -14z" />
    <glyph glyph-name="Atilde" unicode="&#xc3;" horiz-adv-x="1810" 
d="M2458 1595h-7q-22 2 -34 22t-20.5 40t-20.5 22h-6q-23 0 -70 -47q-6 -6 -12 -6t-11.5 6t-5.5 13q0 6 6 12q61 61 101 61h8q16 -3 28 -17.5t18 -29.5t13.5 -27.5t14.5 -13.5h2q44 0 102 58q6 6 12 6q5 0 10 -5.5t5 -11.5t-6 -12q-79 -70 -127 -70zM-45 -201q-5 0 -8.5 4.5
t-3.5 10.5q0 9 8 14q419 421 1108 936q-863 -45 -1153 -107h-6q-15 0 -15 11q0 5 5 10t12 6q164 35 387 60t352 33t397 22q48 3 72 4q21 16 57 42.5t143.5 103.5t209 147.5t232.5 156t235.5 147t197 104t137.5 42.5q26 0 39 -16q4 -12 4 -21q0 -50 -92 -166
q-19 -23 -413 -512q144 3 251 3q15 0 15 -17q0 -6 -5 -12t-12 -6q-62 0 -280 -4q-54 -68 -186 -231.5t-217.5 -270.5t-178.5 -225t-133 -172q-9 -9 -16 -9q-5 0 -10 4.5t-5 10.5q0 5 7 12q181 244 694 879q-284 -6 -662 -25q-742 -552 -1151 -961q-12 -8 -16 -8zM1174 807
q374 16 638 22l433 537q78 98 84 133v4q0 15 -19 15q-48 0 -222.5 -101.5t-385 -244t-342.5 -234.5t-186 -131z" />
    <glyph glyph-name="Adieresis" unicode="&#xc4;" horiz-adv-x="1816" 
d="M2482 1589q-10 0 -16 6t-6 19q0 21 19 41t42 20q19 0 33 -14q4 -4 4 -10q0 -17 -27 -39.5t-49 -22.5zM2322 1634q-8 0 -14 6t-6 19q0 21 19 41t42 20q19 0 33 -14q4 -4 4 -10q0 -17 -28 -39.5t-50 -22.5zM-45 -201q-5 0 -8.5 4.5t-3.5 10.5q0 8 6 14q415 415 1108 936
q-863 -45 -1153 -107h-4q-15 0 -15 11q0 5 5 10t12 6q164 35 387 60t352 33t397 22q48 3 72 4q21 16 57 42.5t143.5 103.5t209 147.5t232.5 156t235.5 147t197 104t137.5 42.5q27 0 37 -16q6 -9 6 -21q0 -50 -92 -166l-415 -512q144 3 251 3q9 0 14 -5t5 -12q0 -6 -6 -12
t-15 -6q-66 0 -278 -4q-59 -74 -243.5 -302.5t-303 -377.5t-170.5 -219q-6 -9 -12 -9t-10.5 4.5t-4.5 10.5q0 2 5 12q79 107 298.5 385.5t393.5 493.5q-286 -6 -662 -25q-753 -563 -1151 -961q-8 -8 -14 -8zM1174 807q374 16 638 22q52 66 433 537q78 98 84 133v4
q0 15 -17 15q-20 0 -65 -19t-102 -51t-131 -77t-148 -92.5t-156.5 -102.5t-152 -102.5t-141 -97l-117 -81t-85 -59.5t-40.5 -29z" />
    <glyph glyph-name="Aring" unicode="&#xc5;" horiz-adv-x="1812" 
d="M2417 1595q-22 0 -36 15t-14 37q0 42 48 82q26 20 49 20q22 0 35.5 -15.5t13.5 -39.5q0 -46 -45 -80q-28 -19 -51 -19zM2419 1630q17 0 38 23t21 43q0 9 -10 16l-8 2q-11 0 -34.5 -23.5t-23.5 -41.5q0 -10 8 -15q4 -4 9 -4zM-45 -201q-5 0 -8.5 4.5t-3.5 10.5q0 9 8 14
q419 421 1108 936q-863 -45 -1153 -107h-6q-15 0 -15 11q0 5 5 10t12 6q164 35 387 60t352 33t397 22q48 3 72 4q21 16 57 42.5t143.5 103.5t209 147.5t232.5 156t235.5 147t197 104t137.5 42.5q26 0 39 -16q4 -12 4 -21q0 -50 -92 -166l-415 -512q147 3 253 3q15 0 15 -17
q0 -6 -5 -12t-12 -6q-62 0 -280 -4q-46 -57 -240.5 -298t-309 -386t-165.5 -215q-9 -9 -16 -9q-5 0 -10 4.5t-5 10.5q0 5 7 12q181 244 694 879q-284 -6 -662 -25q-742 -552 -1151 -961q-12 -8 -16 -8zM1174 807q374 16 638 22l433 537q78 98 84 133v4q0 15 -19 15
q-48 0 -222.5 -101.5t-385 -244t-342.5 -234.5t-186 -131z" />
    <glyph glyph-name="AE" unicode="&#xc6;" horiz-adv-x="2727" 
d="M1137 -274q-50 0 -76 16q-25 19 -25 49q0 47 60 133q174 253 680 869q-283 -6 -656 -25q-753 -563 -1151 -961q-8 -8 -14 -8q-5 0 -8.5 4.5t-3.5 10.5q0 8 6 14q415 415 1108 936q-860 -45 -1153 -107h-4q-15 0 -15 11q0 5 5 10t12 6q353 75 1140 115q45 3 68 4
q21 16 57 42.5t143.5 103.5t209 147.5t232.5 156t235.5 147t197 104t137.5 42.5q27 0 37 -16q6 -9 6 -21q0 -39 -53 -112q473 30 725 30q198 0 342 -18q17 -3 17 -18q0 -7 -5.5 -13t-13.5 -6h-2q-133 19 -348 19q-243 0 -743 -31l-426 -529q23 0 287 7.5t306 7.5
q7 0 12 -5.5t5 -11.5q0 -8 -5 -14t-14 -6q-46 0 -320.5 -7t-299.5 -7q-54 -67 -221 -269t-278 -344t-206 -278q-53 -76 -53 -111q0 -13 10 -20q17 -11 56 -11q68 0 319 56q144 32 237 50t242.5 37t272.5 19q72 0 143 -6q16 0 16 -16q0 -19 -18 -19h-2q-65 6 -133 6
q-93 0 -188.5 -8.5t-215 -29.5t-167 -30.5t-179.5 -37.5q-256 -57 -327 -57zM1174 807q366 16 630 22l430 527q-24 -1 -37.5 -2.5t-39.5 -1.5q-7 0 -12 6t-5 12t5 11t12 5l112 11q60 80 60 106v4q-3 9 -17 9q-49 0 -228 -103.5t-379 -238t-349 -238.5t-182 -129z" />
    <glyph glyph-name="Ccedilla" unicode="&#xc7;" horiz-adv-x="1460" 
d="M78 -283q-41 0 -74 41l-4 11q0 7 6 12.5t12 5.5q9 0 15 -6q21 -27 47 -27q16 0 22 13q4 4 4 14q0 15 -19 35.5t-19 21.5l-2 4q0 5 16 21l41 33q-119 84 -119 264q0 147 78 313q142 301 407.5 554.5t571.5 393.5q232 105 389 105q104 0 154 -47q36 -33 36 -95
q0 -72 -47.5 -161.5t-99.5 -145.5q-6 -6 -14 -6q-6 0 -12.5 6t-6.5 13q0 6 6 12q46 50 92 134t46 146q0 58 -39 80q-53 29 -123 29q-152 0 -367 -102q-299 -137 -562 -388t-398 -542q-74 -155 -74 -299q0 -207 170 -271q50 -16 102 -16q85 0 203.5 36.5t223 84t236 121.5
t206.5 121t174.5 112t101.5 66q8 4 12 4q7 0 11 -4q2 -2 2 -8q0 -9 -6 -15q-43 -26 -144.5 -92t-185 -119.5t-202 -121t-218 -113t-209 -77.5t-196.5 -32q-68 0 -132 23q-28 12 -40 20l-37 -35q30 -33 30 -65q0 -21 -14 -39q-20 -23 -51 -23z" />
    <glyph glyph-name="Egrave" unicode="&#xc8;" horiz-adv-x="1464" 
d="M995 1352h-2q-16 0 -16 18q0 16 16 16q60 3 208.5 12t225 13t189 8t199.5 4q211 0 360 -20q14 -3 14 -19t-16 -16h-4q-131 18 -357 18q-207 0 -817 -34zM1804 1591l-8 2q-44 29 -77.5 71t-41.5 71v6q0 7 6.5 13.5t14.5 6.5q10 0 16 -12q26 -77 96 -135q7 -7 7 -10
q0 -13 -13 -13zM102 -279q-52 0 -77 17q-25 16 -25 47q0 48 59 133q224 324 523 705q-52 -4 -107 -11t-103 -14.5t-63 -9.5h-4q-16 0 -16 14q0 11 14 14q78 16 307 43q317 407 512 613q6 6 13 6t13.5 -6t6.5 -12q0 -7 -6 -13q-192 -204 -490 -583q381 41 603 41h41
q18 0 18 -19q0 -7 -5 -12.5t-13 -5.5h-39q-220 0 -635 -43q-323 -411 -541 -727q-53 -76 -53 -111q0 -13 10 -20q19 -13 61 -13q77 0 314 51q8 2 93 20.5t109.5 23.5t101.5 20.5t119 21t108.5 14.5t123.5 12t113 3q66 0 127 -6q16 0 16 -18q0 -7 -5 -13t-13 -6h-2
q-67 6 -135 6q-122 0 -270.5 -19t-240.5 -37t-237 -50q-247 -56 -326 -56z" />
    <glyph glyph-name="Eacute" unicode="&#xc9;" horiz-adv-x="1466" 
d="M1561 1563h-7q-12 0 -12 10q0 9 12 12q85 26 140 90q6 6 12 6q8 0 14 -6.5t6 -13.5q0 -4 -4 -12q-19 -25 -64 -50.5t-97 -35.5zM997 1352h-2q-18 0 -18 18q0 16 18 16q57 3 207 12t225.5 13t188 8t199.5 4q211 0 362 -20q14 -3 14 -19t-18 -16h-2q-134 18 -361 18
q-203 0 -813 -34zM104 -279q-54 0 -77 17q-27 15 -27 47q0 51 59 133q209 303 525 705q-52 -4 -107.5 -11t-103 -14.5t-64.5 -9.5h-6q-14 0 -14 12q0 13 16 16q70 15 305 43q308 395 514 613q3 6 11 6q7 0 12.5 -5t5.5 -13q0 -5 -4 -13q-174 -185 -487 -583q381 41 602 41
h41q16 0 16 -19q0 -7 -4.5 -12.5t-11.5 -5.5h-41q-224 0 -633 -43q-323 -411 -541 -727q-53 -76 -53 -111q0 -15 10 -20q16 -13 59 -13q79 0 316 51q9 2 93.5 20.5t109.5 23.5t101.5 20.5t118.5 21t107.5 14.5t122.5 12t113 3q64 0 129 -6q14 0 14 -18q0 -7 -5 -13t-13 -6
q-67 6 -137 6q-121 0 -269 -18.5t-242 -37.5t-235 -50q-247 -56 -326 -56z" />
    <glyph glyph-name="Ecircumflex" unicode="&#xca;" horiz-adv-x="1466" 
d="M102 -279q-54 0 -77 17q-25 16 -25 47q0 48 59 133q231 334 525 705q-52 -4 -107.5 -11t-103 -14.5t-64.5 -9.5h-6q-14 0 -14 12q0 13 16 16q70 15 305 43q317 407 512 613q6 6 13 6t12.5 -6t5.5 -12q0 -5 -4 -13q-194 -206 -487 -583q381 41 602 41h41q16 0 16 -19
q0 -7 -5 -12.5t-13 -5.5h-39q-226 0 -635 -43q-355 -456 -539 -727q-55 -79 -55 -111q0 -14 12 -20q20 -13 59 -13q79 0 316 51q9 2 93.5 20.5t109.5 23.5t101.5 20.5t118.5 21t107.5 14.5t122.5 12t113 3q62 0 127 -6q7 0 11.5 -5.5t4.5 -12.5t-4.5 -13t-11.5 -6h-2
q-67 6 -137 6q-121 0 -269.5 -19t-241.5 -37t-237 -50q-247 -56 -326 -56zM1851 1544q-16 0 -16 19l-8 137l-166 -129l-12 -4q-5 0 -9 4t-4 10q0 8 9 14l190 150q4 4 10 4q19 0 19 -18q0 -135 2 -170q0 -7 -5 -12t-10 -5zM995 1352h-2q-16 0 -16 18q0 16 16 16
q60 3 208.5 12t225 13t189 8t199.5 4q209 0 360 -20q16 -3 16 -19t-16 -16h-4q-134 18 -361 18q-205 0 -815 -34z" />
    <glyph glyph-name="Edieresis" unicode="&#xcb;" horiz-adv-x="1466" 
d="M997 1352h-2q-18 0 -18 18q0 16 18 16q57 3 207 12t225.5 13t188 8t199.5 4q211 0 362 -20q14 -3 14 -19t-18 -16h-2q-134 18 -361 18q-203 0 -813 -34zM102 -279q-52 0 -75 17q-27 15 -27 47q0 51 59 133q242 344 525 705q-52 -4 -107.5 -11t-103 -14.5t-64.5 -9.5h-6
q-14 0 -14 12q0 13 16 16q70 15 305 43q321 411 514 613q3 6 11 6q7 0 12.5 -5t5.5 -13q0 -5 -4 -13q-174 -185 -487 -583q381 41 602 41h41q16 0 16 -19q0 -7 -4.5 -12.5t-11.5 -5.5h-41q-224 0 -633 -43q-323 -411 -541 -727q-55 -79 -55 -111q0 -14 12 -20q16 -13 59 -13
q79 0 316 51q9 2 93.5 20.5t109.5 23.5t101.5 20.5t118.5 21t107.5 14.5t122.5 12t113 3q64 0 129 -6q14 0 14 -18q0 -7 -5 -13t-13 -6q-67 6 -137 6q-121 0 -269 -18.5t-242 -37.5t-235 -50q-251 -56 -328 -56zM1683 1518l-8 2q-14 8 -14 26q0 23 16.5 45.5t38.5 22.5
q13 0 25 -6q6 -3 6 -15q0 -21 -23 -48t-41 -27zM1518 1518l-9 2q-14 6 -14 26q0 24 17 46t40 22q13 0 25 -6q6 -3 6 -15q0 -21 -22.5 -48t-42.5 -27z" />
    <glyph glyph-name="Igrave" unicode="&#xcc;" horiz-adv-x="1165" 
d="M608 1395q-7 0 -11.5 5.5t-4.5 12.5q0 15 12 17q222 86 1256 86h338q16 0 16 -15q0 -5 -4.5 -9.5t-11.5 -4.5h-199q-1151 0 -1383 -90zM1522 1604l-6 2q-45 31 -78 72t-41 71l-2 6q0 7 6 13t14 6q13 0 19 -13q27 -79 94 -135q6 -6 6 -12q0 -10 -12 -10zM-397 -209
q-17 0 -17 14q0 9 11 15q89 52 587 63q144 267 473 733q336 479 586 770q3 7 12 7q5 0 13 -4q6 -6 6 -15q0 -4 -4 -12q-256 -299 -584 -766q-311 -441 -459 -713l248 2q123 0 302.5 -2t213.5 -2q8 0 13.5 -4.5t5.5 -9.5q0 -14 -17 -14l-473 2q-800 0 -905 -62z" />
    <glyph glyph-name="Iacute" unicode="&#xcd;" horiz-adv-x="1167" 
d="M1341 1612h-4q-12 0 -12 10q0 9 10 12q84 26 142 90q6 9 14 9q7 0 12.5 -8t5.5 -17l-4 -10q-19 -25 -65 -50.5t-99 -35.5zM-397 -209q-6 0 -11.5 4t-5.5 10q0 10 8 15q91 52 590 63q150 279 471 733q336 479 586 770q7 7 14 7q9 0 13 -4q6 -6 6 -15q0 -8 -4 -12
q-243 -279 -584 -766q-320 -454 -461 -713l250 2q125 0 303.5 -2t212.5 -2q21 0 21 -14t-19 -14l-473 2q-799 0 -907 -62zM610 1395q-7 0 -12.5 6t-5.5 14q0 12 10 15q224 86 1258 86h335q19 0 19 -15q0 -5 -5.5 -9.5t-13.5 -4.5h-196q-1148 0 -1383 -90z" />
    <glyph glyph-name="Icircumflex" unicode="&#xce;" horiz-adv-x="1165" 
d="M608 1395q-16 0 -16 20q0 13 10 15q222 86 1258 86h335q19 0 19 -15q0 -5 -5.5 -9.5t-13.5 -4.5h-196q-1150 0 -1385 -90zM-397 -209q-6 0 -11.5 4t-5.5 10q0 10 8 15q89 52 590 63q150 279 471 733q336 479 586 770q7 7 14 7t11 -4q8 -5 8 -15q0 -6 -6 -12
q-256 -299 -584 -766q-311 -441 -459 -713l250 2q123 0 301.5 -2t212.5 -2q21 0 21 -14t-19 -14l-473 2q-797 0 -905 -62zM1546 1616q-16 0 -16 16l-12 140l-162 -134q-8 -4 -10 -4q-6 0 -10.5 4.5t-4.5 10.5q0 8 6 14l189 154q4 4 12 4q16 0 16 -19q5 -98 5 -170v-2
q0 -14 -13 -14z" />
    <glyph glyph-name="Idieresis" unicode="&#xcf;" horiz-adv-x="1167" 
d="M1487 1602l-10 2q-13 6 -13 26q0 24 16.5 46t39.5 22q13 0 24 -8q8 -3 8 -15q0 -20 -22.5 -46.5t-42.5 -26.5zM1321 1602l-10 2q-13 6 -13 26q0 23 17.5 45.5t40.5 22.5q13 0 22 -6q8 -3 8 -15q0 -21 -22.5 -48t-42.5 -27zM610 1395q-7 0 -12.5 6t-5.5 14q0 12 10 15
q224 86 1258 86h335q19 0 19 -15q0 -5 -5.5 -9.5t-13.5 -4.5h-196q-1148 0 -1383 -90zM-397 -209q-6 0 -11.5 4t-5.5 10q0 10 8 15q91 52 590 63q150 279 471 733q336 479 586 770q7 7 14 7q9 0 13 -4q6 -6 6 -15q0 -8 -4 -12q-243 -279 -584 -766q-320 -454 -461 -713
l250 2q125 0 303.5 -2t212.5 -2q21 0 21 -14t-19 -14l-473 2q-799 0 -907 -62z" />
    <glyph glyph-name="Eth" unicode="&#xd0;" horiz-adv-x="1724" 
d="M203 -285q-269 0 -328 201l-2 8q0 7 6 12t12 5q13 0 19 -13q53 -178 295 -178q59 0 108 8q168 26 355 111t352 203.5t306.5 262.5t229.5 288q173 284 173 489q0 245 -248 350q-153 66 -371 66q-156 0 -307.5 -32.5t-266 -92.5t-153.5 -135q-8 -11 -8 -25
q0 -20 19.5 -42.5t49 -43.5t63.5 -51.5t63.5 -64.5t49 -85.5t19.5 -111.5q0 -81 -35 -176l504 710q5 8 12 8t14 -6t7 -12t-2 -10l-521 -733l207 -7q15 0 15 -14q0 -16 -19 -16l-223 8q-65 -92 -154.5 -216t-136 -188.5t-98.5 -142.5t-88 -139q-5 -10 -17 -10t-12 14l4 10
q83 139 326 486q66 98 110 188l-145 2l-113 -2q-14 0 -14 14q0 15 14 15l134 4l139 -4q53 123 53 215q0 57 -19.5 105.5t-48.5 80t-63 61.5t-63 51.5t-48.5 48t-19.5 52.5t12 45q63 119 288 199t476 80q223 0 381 -68q270 -117 270 -387q0 -221 -178 -506
q-92 -147 -236.5 -293.5t-312.5 -267t-357.5 -207t-361.5 -112.5q-61 -9 -116 -9z" />
    <glyph glyph-name="Ntilde" unicode="&#xd1;" horiz-adv-x="2134" 
d="M20 -221h-2q-8 0 -13 5.5t-5 12.5q0 16 16 19q119 15 268 108.5t295 230t296.5 298t285.5 320.5t248 289t198.5 211t123.5 81l8 -2q26 -6 26 -54q0 -41 -14 -96q-16 -61 -120 -341t-191.5 -549.5t-87.5 -374.5q0 -49 20 -60l14 -2q40 0 128 85.5t201 224.5t244 309
t269.5 346t265.5 327.5t242.5 262t190.5 141.5l8 2q14 0 14 -14q0 -9 -12 -15q-75 -31 -189.5 -142.5t-239.5 -263.5t-261.5 -329t-268 -347.5t-246.5 -310t-209 -225.5t-145 -86q-16 0 -22 4q-35 17 -35 95q0 104 65 321.5t143 421t143 387.5t65 229q0 16 -6 19h-5
q-29 0 -108.5 -80.5t-190.5 -211t-246 -289t-287.5 -320t-301 -298t-300 -230t-272.5 -109.5zM2353 1565h-6q-17 1 -28.5 14t-16 28t-12.5 28t-19 14h-4q-25 0 -69 -47q-7 -7 -15 -7q-6 0 -11 6t-5 13q0 6 6 12q62 62 102 62h9q20 -4 33 -26t21 -42t17 -21h2q45 0 103 58
q6 6 12 6q14 0 14 -14q0 -9 -6 -15q-73 -69 -127 -69z" />
    <glyph glyph-name="Ograve" unicode="&#xd2;" horiz-adv-x="1509" 
d="M1430 1491l-7 2q-45 31 -78.5 71.5t-41.5 69.5v4q0 9 7 16t15 7q11 0 14 -12q26 -77 97 -136q6 -6 6 -10q0 -12 -12 -12zM143 -184q-53 0 -94 30q-49 41 -49 125q0 76 36.5 181t92.5 207.5t100.5 174t81.5 123.5v15q0 99 50 213t134 217t186 188.5t216 136t213 50.5
q94 0 162 -43q135 -84 135 -252q0 -153 -107 -348q-148 -276 -446 -570q27 -2 78 -2q153 0 304 39.5t273 112.5q4 4 15 4q8 0 8 -4l2 -8q0 -10 -8 -15q-132 -77 -290.5 -121.5t-311.5 -44.5q-52 0 -105 6q-53 -50 -120.5 -106.5t-170.5 -133t-207 -126t-178 -49.5zM145 -152
q65 0 162 48t194.5 121t161 125.5t109.5 95.5q-82 13 -156.5 43t-137 75t-105.5 109t-56 139q-23 -28 -67 -101.5t-92 -167.5t-83.5 -197t-35.5 -171q0 -65 33 -94q28 -25 73 -25zM807 268q69 66 139 143t149.5 178.5t139.5 198.5t99.5 202t39.5 190q0 21 -8 67
q-22 100 -113 156q-62 39 -145 39q-112 0 -245.5 -73.5t-242 -182t-185.5 -239t-85 -238.5q158 210 319.5 345.5t278.5 135.5h10q8 0 13.5 -6t5.5 -13q0 -18 -19 -18h-12q-114 0 -277.5 -144.5t-320.5 -361.5q6 -84 49 -153t109.5 -114.5t142.5 -73t158 -38.5z" />
    <glyph glyph-name="Oacute" unicode="&#xd3;" horiz-adv-x="1509" 
d="M143 -184q-57 0 -94 30q-49 41 -49 125q0 75 37 180.5t92.5 206.5t101.5 175.5t82 123.5l-2 15q0 99 50 213.5t134.5 217.5t187 188t216.5 135.5t213 50.5q94 0 162 -43q135 -86 135 -250q0 -141 -109 -350q-143 -270 -446 -570q25 -2 78 -2q152 0 303.5 39.5
t273.5 112.5q4 4 15 4q8 0 10 -4v-6q0 -12 -8 -17q-132 -77 -290.5 -121.5t-311.5 -44.5q-56 0 -105 6q-53 -50 -120.5 -106.5t-170.5 -133t-207 -126t-178 -49.5zM143 -152q65 0 162.5 48t195 121t161.5 126t110 95q-172 28 -299.5 123t-155.5 243q-23 -28 -67 -101.5
t-92 -168t-83.5 -198t-35.5 -171.5q0 -66 33 -92q28 -25 71 -25zM807 268q88 85 177.5 187.5t181 229t149 258.5t57.5 237q0 32 -6 67q-22 100 -113 156q-65 39 -145 39q-113 0 -246.5 -73.5t-242 -182t-185 -239t-84.5 -238.5q156 210 318 345.5t280 135.5h13q14 0 14 -19
q0 -6 -5 -12t-12 -6h-12q-114 0 -276.5 -144t-319.5 -362q5 -68 34 -126.5t73.5 -100.5t103 -74t120 -51t126.5 -27zM1253 1567h-2q-14 0 -14 12q0 7 10 10q83 28 139 90q6 9 15 9q7 0 12.5 -7.5t5.5 -15.5l-2 -10q-20 -25 -66 -51t-98 -37z" />
    <glyph glyph-name="Ocircumflex" unicode="&#xd4;" horiz-adv-x="1509" 
d="M143 -184q-53 0 -94 30q-49 41 -49 125q0 76 36.5 181t92.5 207.5t100.5 174t81.5 123.5v15q0 99 50 213t134 217t186 188.5t216 136t213 50.5q94 0 162 -43q137 -84 137 -252q0 -146 -109 -348q-148 -276 -446 -570q27 -2 78 -2q153 0 304 39.5t273 112.5q4 4 15 4
q8 0 8 -4l2 -8q0 -10 -8 -15q-132 -77 -290.5 -121.5t-311.5 -44.5q-52 0 -105 6q-53 -50 -120.5 -106.5t-170.5 -133t-207 -126t-178 -49.5zM145 -152q65 0 162 48t194.5 121t161 125.5t109.5 95.5q-82 13 -156.5 43t-137 75t-105.5 109t-56 139q-34 -42 -95.5 -149
t-122 -253.5t-60.5 -234.5q0 -65 33 -94q28 -25 73 -25zM807 268q88 84 177.5 187.5t181 230t149 258.5t57.5 236q0 37 -6 67q-22 98 -113 156q-62 39 -145 39q-112 0 -245.5 -73.5t-242 -182t-185.5 -239t-85 -238.5q158 210 319.5 345.5t278.5 135.5h10q8 0 13.5 -6
t5.5 -13q0 -18 -19 -18h-12q-114 0 -277.5 -144.5t-320.5 -361.5q6 -84 49 -153t109.5 -114.5t142.5 -73t158 -38.5zM1460 1501q-14 0 -14 15l24 141l-190 -88l-8 -2q-15 0 -15 14q0 11 13 14l225 107q7 0 12.5 -5.5t5.5 -13.5v-6q-3 -12 -11 -49t-15 -68.5t-10 -46.5
q-3 -12 -17 -12z" />
    <glyph glyph-name="Otilde" unicode="&#xd5;" horiz-adv-x="1511" 
d="M143 -184q-57 0 -94 30q-49 41 -49 125q0 75 37 180.5t92.5 206.5t101.5 175.5t82 123.5l-2 15q0 99 50 213.5t134.5 217.5t187 188t216.5 135.5t213 50.5q94 0 162 -43q135 -86 135 -250q0 -141 -109 -350q-146 -277 -446 -570q25 -2 78 -2q152 0 303.5 39.5
t275.5 112.5q4 4 13 4q8 0 10 -4l2 -8q0 -8 -10 -15q-131 -77 -289 -121.5t-313 -44.5q-56 0 -105 6q-49 -47 -119 -105.5t-172 -134t-206.5 -125.5t-178.5 -50zM143 -152q65 0 162 47.5t196.5 122t161 125t111.5 95.5q-112 18 -206 63.5t-162.5 124t-86.5 178.5
q-34 -40 -97.5 -149t-123 -255t-59.5 -235q0 -66 33 -92q28 -25 71 -25zM807 268q88 85 177.5 187.5t181 229t149 258.5t57.5 237q0 32 -6 67q-19 98 -113 156q-65 39 -145 39q-112 0 -245.5 -73.5t-241.5 -182t-185 -239t-86 -238.5q156 209 318.5 345t279.5 136h13
q14 0 14 -19q0 -18 -14 -18h-13q-115 0 -277.5 -144t-320.5 -362q5 -68 34 -126.5t73.5 -100.5t103 -74t120 -51t126.5 -27zM1378 1548l-16 2q-22 4 -31.5 25.5t-15 42.5t-17.5 24l-10 3q-18 0 -71 -39l-13 -4q-6 0 -11 5t-5 11q0 9 8 14q60 49 100 49q11 0 17 -2
q19 -6 29.5 -28.5t16.5 -43t15 -22.5h10q47 0 101 43q4 4 10 4q14 0 14 -14q0 -9 -8 -14q-74 -56 -123 -56z" />
    <glyph glyph-name="Odieresis" unicode="&#xd6;" horiz-adv-x="1509" 
d="M1376 1491l-10 4q-10 5 -10 23q0 22 18 44.5t41 22.5q14 0 27 -10q6 -3 6 -12q0 -21 -25.5 -46.5t-46.5 -25.5zM1223 1544l-13 4q-10 5 -10 23q0 22 18.5 44.5t41.5 22.5q13 0 26 -10q6 -3 6 -12q0 -20 -24.5 -46t-44.5 -26zM143 -184q-53 0 -94 30q-49 41 -49 125
q0 76 36.5 181t92.5 207.5t100.5 174t81.5 123.5v15q0 123 78 268t194.5 262t261 196t267.5 79q95 0 160 -43q137 -84 137 -252q0 -146 -109 -348q-148 -276 -446 -570q27 -2 78 -2q153 0 304 39.5t273 112.5q4 4 15 4q8 0 10 -4l2 -6q0 -10 -10 -17q-132 -77 -289.5 -121.5
t-312.5 -44.5q-52 0 -105 6q-53 -50 -120.5 -106.5t-170.5 -133t-207 -126t-178 -49.5zM145 -152q65 0 162 48t194.5 121t161 125.5t109.5 95.5q-82 13 -156.5 43t-137 75t-105.5 109t-56 139q-34 -42 -95.5 -149.5t-122 -254.5t-60.5 -235q0 -63 33 -92q28 -25 73 -25z
M807 268q69 66 139 143t149.5 178.5t139.5 198.5t99.5 202t39.5 190q0 21 -8 67q-22 100 -113 156q-62 39 -145 39q-112 0 -245.5 -73.5t-242 -182t-185.5 -239t-85 -238.5q158 210 319.5 345.5t278.5 135.5h10q8 0 13.5 -6t5.5 -13q0 -18 -19 -18h-12q-114 0 -277.5 -144.5
t-318.5 -361.5q5 -68 34 -126.5t73.5 -100.5t103 -74t120 -51t126.5 -27z" />
    <glyph glyph-name="Oslash" unicode="&#xd8;" horiz-adv-x="1568" 
d="M20 -289q-8 0 -14 6t-6 13q0 6 2 10l86 125q-31 45 -31 106q0 75 37 180t93 207.5t100.5 174.5t81.5 124v15q0 99 49.5 213t134 217t186.5 188.5t216 136t214 50.5q95 0 160 -43q27 -17 43 -33q83 74 109 96l12 4q7 0 12.5 -5.5t5.5 -12.5q0 -10 -8 -15q-10 -8 -104 -92
q67 -75 67 -194q0 -148 -108 -348q-147 -274 -447 -570q27 -2 80 -2q152 0 303 39.5t273 112.5q4 4 14 4q8 0 8 -4l4 -8q0 -8 -10 -15q-132 -77 -290.5 -121.5t-311.5 -44.5q-51 0 -104 6q-37 -36 -87 -79.5t-130.5 -105.5t-156 -111t-158.5 -84t-144 -35q-49 0 -86 24
l-82 -121q-3 -8 -13 -8zM510 426q481 609 836 950l-35 27q-62 39 -144 39q-113 0 -246.5 -73.5t-242 -182t-185 -239t-85.5 -238.5q158 210 319.5 345.5t278.5 135.5h10q8 0 13 -6t5 -13q0 -18 -18 -18h-12q-114 0 -277.5 -144.5t-320.5 -361.5q11 -128 104 -221zM111 -102
q146 208 376 499q-92 89 -112 207q-64 -77 -171.5 -293.5t-107.5 -343.5q0 -42 15 -69zM203 -150q65 0 162.5 48t193 119t162 126t108.5 95q-192 30 -315 135q-238 -301 -379 -504q29 -19 68 -19zM864 268q69 65 140 143t149.5 179t139 198.5t100 202.5t39.5 189q0 37 -9 67
q-13 62 -51 103q-334 -318 -835 -949q126 -109 327 -133z" />
    <glyph glyph-name="Ugrave" unicode="&#xd9;" horiz-adv-x="1198" 
d="M1415 1509l-8 2q-44 29 -77.5 71t-41.5 73v6q0 7 6.5 12.5t14.5 5.5q10 0 16 -12q26 -77 96 -135q6 -6 6 -10q0 -5 -4 -9t-8 -4zM858 -432l-10 2q-125 58 -125 219l2 47q18 162 106.5 369.5t188.5 382.5q-1 -1 -59 -62.5t-93 -98.5t-110 -111.5t-130.5 -124t-132 -112.5
t-135.5 -100.5t-121.5 -64.5t-109.5 -27q-45 0 -78 23q-51 39 -51 117q0 89 67 231t167.5 288.5t218 304t218.5 282t169 217t69 114.5v2q0 13 -20 13q-44 0 -162 -54.5t-247.5 -133t-242.5 -177.5t-141 -176q-3 -12 -16 -12q-6 0 -12.5 5.5t-6.5 12.5l2 6q34 93 201 229
t352.5 234t274.5 98q55 0 55 -43v-6q-2 -26 -70.5 -121.5t-170 -222.5t-219 -284.5t-218.5 -302.5t-168 -282t-67 -218q0 -60 37 -90q24 -21 61 -21q52 0 129.5 40.5t157.5 101.5t174.5 147t169.5 161t156 161t120 130t74 84q21 35 73.5 114t130 190.5t148.5 191.5t101 80
l8 -2q6 -3 6 -12q0 -30 -58 -115.5t-145.5 -191.5t-141 -168.5t-93.5 -106.5q-310 -506 -369 -813q-16 -90 -16 -131q0 -126 106 -184q12 -6 12 -17q0 -12 -16 -12zM1292 954l236 303q-86 -83 -236 -303z" />
    <glyph glyph-name="Uacute" unicode="&#xda;" horiz-adv-x="1198" 
d="M860 -432q-6 0 -10 2q-127 59 -127 215q0 19 4 51q17 162 105 369t188 383q-7 -7 -25 -27q-622 -674 -868 -674q-47 0 -76 23q-51 39 -51 115q0 106 93 283.5t226.5 360.5t266.5 353t228 293.5t97 148.5v2q0 13 -20 13q-45 0 -163.5 -54.5t-248 -133t-242 -177.5
t-139.5 -176q-6 -12 -16 -12q-8 0 -14.5 5.5t-6.5 12.5l2 6q34 93 201 229t352.5 234t274.5 98q55 0 55 -43v-6q-2 -30 -97 -156.5t-228 -297.5t-266.5 -353t-226.5 -354t-93 -268q0 -65 37 -92q24 -21 59 -21q52 0 129.5 40.5t157.5 101.5t174.5 147t169.5 161t156 161
t120 130t74 84q373 576 453 576l8 -2q6 -3 6 -12q0 -31 -57.5 -116.5t-144.5 -191t-141 -168t-93 -106.5q-310 -506 -371 -813q-16 -90 -16 -129q0 -125 106 -186q12 -6 12 -17q0 -12 -14 -12zM1292 954l236 303q-86 -83 -236 -303zM1278 1530h-2q-14 0 -14 12q0 8 10 10
q86 29 141 90q6 9 12 9q7 0 13 -7.5t6 -15.5l-2 -10q-18 -25 -64.5 -51t-99.5 -37z" />
    <glyph glyph-name="Ucircumflex" unicode="&#xdb;" horiz-adv-x="1200" 
d="M1444 1497q-14 0 -14 16l10 142l-180 -105l-11 -2q-6 0 -10 4t-4 9q0 11 10 16l209 121q2 2 10 2q6 0 11.5 -4t5.5 -10v-7q-2 -21 -11.5 -87t-11.5 -81q-3 -14 -14 -14zM860 -432q-6 0 -10 2q-127 59 -127 215q0 19 4 51q17 161 104 365t189 387q-7 -7 -25 -27
q-622 -674 -868 -674q-47 0 -76 23q-51 39 -51 115q0 106 93 283.5t226.5 360.5t266.5 353t228 293.5t97 148.5v2q0 13 -20 13q-45 0 -163.5 -54.5t-248 -133t-242 -177.5t-139.5 -176q-6 -12 -16 -12q-8 0 -14.5 5.5t-6.5 12.5l2 6q34 93 201 229t352.5 234t274.5 98
q55 0 55 -43v-6q-2 -30 -97 -156.5t-228 -297.5t-266.5 -353t-226.5 -354t-93 -268q0 -65 37 -92q24 -21 59 -21q52 0 129.5 40.5t157.5 101.5t174.5 147t169.5 161t156 161t120 130t74 84q373 576 455 576l8 -2q6 -3 6 -12q0 -30 -58 -115.5t-145.5 -191.5t-141 -168.5
t-93.5 -106.5q-310 -506 -371 -813q-16 -86 -16 -127q0 -128 108 -188q10 -5 10 -17t-14 -12zM1292 954l236 303q-93 -93 -236 -303z" />
    <glyph glyph-name="Udieresis" unicode="&#xdc;" horiz-adv-x="1200" 
d="M1366 1470q-2 0 -12 5q-8 8 -8 20q0 21 19.5 42.5t41.5 21.5q18 0 33 -15q4 -4 4 -10q0 -17 -28 -40.5t-50 -23.5zM1206 1509q-4 0 -12 4q-8 8 -8 21q0 21 19.5 42t41.5 21q17 0 31 -14q4 -4 4 -10q0 -19 -27 -41.5t-49 -22.5zM860 -432q-6 0 -10 2q-127 59 -127 215
q0 19 4 51q17 161 104 365t189 387q-7 -7 -25 -27q-622 -674 -868 -674q-47 0 -76 23q-51 39 -51 115q0 106 93 283.5t226.5 360.5t266.5 353t228 293.5t97 148.5v2q0 13 -20 13q-45 0 -163.5 -54.5t-248 -133t-242 -177.5t-139.5 -176q-6 -12 -16 -12q-8 0 -14.5 5.5
t-6.5 12.5l2 6q34 93 200.5 229t352 234t275.5 98q55 0 55 -43v-6q-2 -30 -97 -156.5t-228 -297.5t-266.5 -353t-226.5 -354t-93 -268q0 -65 37 -92q24 -21 59 -21q52 0 129.5 40.5t157.5 101.5t174.5 147t169.5 161t156 161t120 130t74 84q373 576 455 576l8 -2q6 -3 6 -12
q0 -30 -58 -115.5t-145.5 -191.5t-141 -168.5t-93.5 -106.5q-310 -506 -371 -813q-16 -90 -16 -129q0 -125 106 -186q12 -6 12 -17q0 -12 -14 -12zM1292 954l236 303q-93 -93 -236 -303z" />
    <glyph glyph-name="Yacute" unicode="&#xdd;" horiz-adv-x="1341" 
d="M1358 1327h-2q-13 0 -13 12q0 10 11 13q82 25 139 88q5 8 14 8q7 0 13 -7.5t6 -15.5l-4 -10q-19 -25 -65.5 -51.5t-98.5 -36.5zM150 -498h-9q-71 0 -106 32t-35 87q0 56 33.5 125.5t98 139.5t147.5 128t192 94.5t221 36.5q101 0 185 -24q161 211 532 747
q-61 -64 -138 -138t-187 -168t-212.5 -167.5t-209.5 -124.5t-183 -51q-35 0 -65 12q-70 26 -70 105q0 80 79.5 217t174.5 256.5t201 249t133 170.5q35 56 35 78q0 10 -9 16t-30 6q-55 0 -162 -49t-212.5 -119t-185 -155t-79.5 -148q0 -29 18 -53l4 -10q0 -7 -6 -13t-12 -6
q-8 0 -14 6q-25 36 -25 72q0 59 52.5 131.5t134 137t173 119.5t178 87.5t140.5 32.5q32 0 47 -10q22 -13 22 -43q0 -41 -38 -99q-24 -37 -126.5 -163.5t-199 -247.5t-176.5 -255.5t-80 -205.5q0 -57 47 -74q21 -8 51 -8q82 0 210.5 72t258 177t261 228.5t224.5 221
t144 159.5q5 8 14 8q6 0 12.5 -5.5t6.5 -12.5l-4 -10q-22 -32 -129 -190t-148.5 -217.5t-126 -181t-152.5 -214t-137 -182.5q151 -50 287 -166q6 -6 6 -13q0 -8 -5.5 -14t-12.5 -6q-4 0 -12 4q-138 118 -287 164q-220 -281 -398.5 -426.5t-340.5 -149.5zM147 -463
q153 4 324 144t381 409q-72 19 -156 19q-131 0 -257.5 -52.5t-212.5 -128t-138.5 -157.5t-52.5 -144q0 -42 26.5 -66t79.5 -24h6z" />
    <glyph glyph-name="Thorn" unicode="&#xde;" horiz-adv-x="962" 
d="M-721 -156q-5 0 -8.5 4.5t-3.5 10.5q0 8 2 12q157 289 481 690t602 676q13 10 21 10q14 0 14 -16q0 -8 -6 -14q-185 -187 -323 -349t-312 -393q176 155 337 245.5t284 113.5q44 8 86 8q68 0 105.5 -29t37.5 -80q0 -22 -10 -49q-21 -66 -75.5 -130.5t-125 -114t-143 -86.5
t-140.5 -60q-124 -45 -252 -45q-150 0 -241 65q-73 -98 -131.5 -182t-85.5 -124t-59 -90.5t-40 -61.5q-5 -11 -14 -11zM-152 283q125 0 266 50.5t258.5 140t166.5 192.5q20 39 20 67q0 38 -30.5 56t-79.5 18q-22 0 -76 -8q-141 -29 -330 -145t-393 -320q73 -51 198 -51z" />
    <glyph glyph-name="germandbls" unicode="&#xdf;" horiz-adv-x="1155" 
d="M481 41q-17 0 -45 4q-96 20 -96 82q0 54 68 118t174 109t202 45h15q18 0 18 -16q0 -12 -16 -12h-13q-85 0 -184.5 -41.5t-165 -98.5t-65.5 -100t67 -57l35 -4q75 0 170.5 47.5t172 125.5t95.5 156q5 35 5 39q0 67 -54.5 118.5t-127 75t-144.5 23.5q-19 0 -19 19
q0 13 15 16q77 14 173 70t173.5 124.5t130.5 140.5t53 116q0 14 -6 26q-23 39 -68 39q-52 0 -131 -54.5t-163 -138t-181 -196t-177.5 -215.5t-160 -210.5t-122 -167.5t-68.5 -99l-8 -14q-7 -7 -15 -7q-6 0 -12 6t-6 13l10 20q32 48 75.5 110.5t124.5 173.5t161.5 213
t179 214.5t184 194t170 135t144.5 53.5q53 0 86 -39q20 -23 20 -59q0 -46 -37.5 -107t-94.5 -118t-121 -107.5t-122 -84t-92 -40.5q116 -20 190 -89.5t74 -156.5l-4 -39q-18 -84 -97 -168t-181.5 -136t-188.5 -52z" />
    <glyph glyph-name="agrave" unicode="&#xe0;" horiz-adv-x="755" 
d="M117 526l-6 2q-31 21 -54.5 50t-29.5 51v4q0 6 5 10t11 4q7 0 10 -8q17 -54 68 -96l4 -8q0 -9 -8 -9zM61 117q-31 0 -43 18t-12 43q0 61 76 172q-285 -229 -387 -229q-20 0 -37 10q-27 18 -27 53q0 50 49.5 115.5t126 113.5t142.5 48q62 0 102 -45q4 -4 4 -10
q0 -8 -5.5 -13.5t-12.5 -5.5q-6 0 -12 6q-29 33 -76 33q-56 0 -124.5 -45t-113.5 -102t-45 -93q0 -17 12 -26q4 -4 19 -4q90 0 463 305q4 4 12 4q16 0 16 -16q0 -9 -4 -13q-13 -19 -40.5 -59t-41 -60t-30.5 -49t-24 -49.5t-7 -38.5q0 -15 6 -24t25 -9q97 0 495 267q6 4 15 4
q8 0 10 -4l2 -6q0 -10 -8 -15q-50 -35 -108 -73t-141.5 -88.5t-158 -82.5t-117.5 -32z" />
    <glyph glyph-name="aacute" unicode="&#xe1;" horiz-adv-x="757" 
d="M-2 539h-2q-8 0 -8 8q0 5 8 8q58 17 98 63q2 5 8 5t10.5 -4.5t4.5 -10.5l-2 -8q-13 -18 -46 -36t-71 -25zM61 117q-31 0 -43 18q-14 17 -14 43q0 58 78 172q-158 -124 -233 -169q-99 -60 -154 -60q-20 0 -37 10q-27 18 -27 53q0 49 49.5 114.5t126 114t142.5 48.5
q62 0 102 -45q4 -8 4 -13q0 -6 -5.5 -11t-12.5 -5q-6 0 -12 6q-29 33 -76 33q-56 0 -124.5 -45t-113.5 -102.5t-45 -94.5q0 -15 12 -24q4 -4 19 -4q90 0 463 305q4 4 12 4q6 0 11 -6t5 -13l-2 -10l-10 -12q-98 -139 -119 -187q-16 -34 -16 -55q0 -18 8 -26q6 -9 23 -9
t45 9.5t57.5 23t71 36t72.5 40.5t76.5 46.5t68 42.5t62 40t44.5 29q4 4 13 4q8 0 10 -4l2 -8q0 -8 -8 -13q-398 -276 -525 -276z" />
    <glyph glyph-name="acircumflex" unicode="&#xe2;" horiz-adv-x="757" 
d="M137 516q-8 0 -8 10l-6 70l-90 -64q-2 -2 -8 -2q-7 0 -7 7l5 8l100 82l6 2q5 0 10.5 -3.5t5.5 -9.5v-90q0 -10 -8 -10zM61 117q-31 0 -43 18q-14 17 -14 43q0 58 78 172q-158 -124 -233 -169q-99 -60 -154 -60q-20 0 -37 10q-27 18 -27 53q0 50 50 115t126.5 113.5
t143.5 48.5q62 0 102 -45q4 -8 4 -10q0 -7 -6 -13t-14 -6q-6 0 -12 6q-29 33 -76 33q-56 0 -124.5 -45t-113.5 -102.5t-45 -94.5q0 -15 12 -24q4 -4 19 -4q90 0 463 305q4 4 12 4q6 0 11 -6t5 -13l-2 -10l-10 -12q-98 -139 -119 -187q-16 -34 -16 -55q0 -18 8 -26
q6 -9 23 -9q90 0 497 267q4 4 13 4q8 0 10 -4l2 -8q0 -7 -6 -13q-406 -276 -527 -276z" />
    <glyph glyph-name="atilde" unicode="&#xe3;" horiz-adv-x="755" 
d="M61 117q-31 0 -43 18t-12 43q0 61 76 172q-4 -3 -14 -11q-276 -218 -373 -218q-20 0 -37 10q-27 18 -27 53q0 50 49.5 115.5t126 113.5t142.5 48q62 0 102 -45q4 -4 4 -10q0 -8 -5.5 -13.5t-12.5 -5.5q-6 0 -12 6q-29 33 -76 33q-56 0 -124.5 -45t-113.5 -102t-45 -93
q0 -17 12 -26q4 -4 19 -4q90 0 463 305q4 4 12 4q16 0 16 -16q0 -9 -4 -13q-14 -21 -41 -59.5t-40.5 -59t-30.5 -48.5t-24 -49.5t-7 -39.5q0 -15 6 -24t25 -9q97 0 495 267q6 4 15 4q8 0 10 -4l2 -6q0 -10 -8 -15q-50 -35 -108 -73t-141.5 -88.5t-158 -82.5t-117.5 -32z
M145 522h-4q-21 2 -32 30t-19 30h-2q-17 0 -53 -33l-8 -4q-5 0 -9 4t-4 8l4 8q43 43 72 43h6q19 -3 32 -31.5t19 -29.5h3q32 0 73 41q2 4 8 4q9 0 9 -10q0 -7 -4 -11q-49 -49 -91 -49z" />
    <glyph glyph-name="adieresis" unicode="&#xe4;" horiz-adv-x="755" 
d="M61 117q-31 0 -43 18t-12 43q0 61 76 172q-4 -3 -14 -11q-276 -218 -373 -218q-20 0 -37 10q-27 18 -27 53q0 50 49.5 115.5t126 113.5t142.5 48q62 0 102 -45q4 -4 4 -10q0 -8 -5.5 -13.5t-12.5 -5.5q-6 0 -12 6q-29 33 -76 33q-56 0 -124.5 -45t-113.5 -102t-45 -93
q0 -17 12 -26q4 -4 19 -4q90 0 463 305q4 4 12 4q16 0 16 -16q0 -9 -4 -13q-14 -21 -41 -59.5t-40.5 -59t-30.5 -48.5t-24 -49.5t-7 -39.5q0 -15 6 -24t25 -9q97 0 495 267q6 4 15 4q8 0 10 -4l2 -6q0 -10 -8 -15q-72 -51 -154.5 -104.5t-199 -112.5t-171.5 -59zM123 547
l-6 2q-11 7 -11 18q0 16 12.5 31.5t28.5 15.5q11 0 17 -4q6 -3 6 -10q0 -14 -17 -33.5t-30 -19.5zM6 547l-6 2q-10 7 -10 18q0 16 12.5 31.5t28.5 15.5q10 0 16 -4q4 -2 4 -10q0 -14 -16 -33.5t-29 -19.5z" />
    <glyph glyph-name="aring" unicode="&#xe5;" horiz-adv-x="755" 
d="M82 522q-17 0 -27 10.5t-10 26.5q0 31 33 57q20 17 37 17q15 0 25 -12t10 -29q0 -32 -35 -57q-20 -13 -33 -13zM82 549q12 0 26.5 15.5t14.5 27.5q0 9 -8 12v2h-2q-9 0 -26 -17t-17 -30q0 -4 4 -8q2 -2 8 -2zM61 117q-31 0 -43 18t-12 43q0 61 76 172q-4 -3 -14 -11
q-276 -218 -373 -218q-20 0 -37 10q-27 18 -27 53q0 50 49.5 115.5t126 113.5t142.5 48q62 0 102 -45q4 -4 4 -10q0 -8 -5.5 -13.5t-12.5 -5.5q-6 0 -12 6q-29 33 -76 33q-56 0 -124.5 -45t-113.5 -102t-45 -93q0 -17 12 -26q4 -4 19 -4q90 0 463 305q4 4 12 4q16 0 16 -16
q0 -9 -4 -13q-14 -21 -41 -59.5t-40.5 -59t-30.5 -48.5t-24 -49.5t-7 -39.5q0 -15 6 -24t25 -9q97 0 495 267q6 4 15 4q8 0 10 -4l2 -6q0 -10 -8 -15q-72 -51 -154.5 -104.5t-199 -112.5t-171.5 -59z" />
    <glyph glyph-name="ae" unicode="&#xe6;" horiz-adv-x="907" 
d="M104 96q-51 0 -77 23q-35 28 -35 76q0 51 39 114q-237 -188 -336 -188q-20 0 -37 10q-27 18 -27 51q0 50 50 116t127 114.5t143 48.5q62 0 102 -45q4 -8 4 -10q0 -7 -6 -13t-14 -6q-6 0 -12 6q-29 33 -76 33q-55 0 -123 -45t-113 -102t-45 -93q0 -16 13 -26q4 -4 18 -4
q84 0 436 284q83 80 156 80q28 0 43.5 -12t15.5 -31q0 -21 -20 -41t-60 -33q-63 -18 -139 -18q-34 -39 -66 -92.5t-32 -95.5q0 -33 22 -50q16 -16 58 -16q161 0 608 283q4 4 12 4q6 0 10 -2l2 -8q0 -10 -8 -15q-60 -40 -121 -77.5t-162 -94t-194 -91t-156 -34.5zM174 424
q44 3 78 13.5t48.5 21.5t14.5 20q0 8 -16 8q-43 0 -125 -63z" />
    <glyph glyph-name="ccedilla" unicode="&#xe7;" horiz-adv-x="636" 
d="M-442 0q-32 0 -52 29q-2 2 -2 8q0 5 4.5 8.5t10.5 3.5t8 -4q13 -18 31 -18q15 0 18 8l4 10q0 10 -14.5 25t-14.5 16v4q0 3 11 14q14 14 26 21q-10 17 -10 41l2 33q24 98 147.5 197.5t204.5 99.5q17 0 27 -7q25 -11 25 -36q0 -36 -39 -78q-3 -6 -13 -6q-8 0 -14 5.5
t-6 12.5l4 10q33 37 33 54q0 2 -4 6q-4 2 -15 2q-37 0 -105 -39.5t-132 -104.5t-78 -125l-2 -18q0 -47 65 -47q80 0 251.5 69t293 131.5t164.5 88.5q6 4 14 4q5 0 7 -2l4 -8q0 -10 -9 -15q-30 -20 -113.5 -65t-196.5 -99.5t-232 -94.5t-189 -40q-40 0 -67 17l-23 -21
q23 -23 23 -47q0 -12 -11 -27q-13 -16 -36 -16z" />
    <glyph glyph-name="egrave" unicode="&#xe8;" horiz-adv-x="604" 
d="M74 551q-4 0 -6 2q-32 21 -55.5 50t-28.5 50v4q0 5 4 10t10 5q7 0 10 -10q21 -57 70 -97l4 -8q0 -6 -8 -6zM-141 96q-43 0 -76 23q-37 25 -37 74q0 8 4 32q14 78 74 145t137 103q56 23 86 23q38 0 49 -27q4 -12 4 -20q0 -36 -48.5 -65.5t-102.5 -29.5q-44 0 -70 23
q-36 -36 -66 -88t-30 -92q0 -33 22 -50q19 -16 60 -16h8q49 0 129 29.5t160 71.5t152.5 84.5t120.5 72t50 29.5q7 0 11 -4t4 -8q0 -8 -11 -13q-242 -156 -381 -222q-159 -75 -249 -75zM-51 389q36 0 76.5 20t40.5 37q-6 17 -25 17q-25 0 -71 -24t-62 -38q15 -12 41 -12z" />
    <glyph glyph-name="eacute" unicode="&#xe9;" horiz-adv-x="604" 
d="M-6 549h-2q-8 0 -8 8q0 5 8 8q57 17 98 64q2 4 10 4q5 0 9 -4.5t4 -10.5l-2 -8q-13 -18 -46 -36t-71 -25zM-141 96q-43 0 -76 23q-37 25 -37 74q0 8 4 32q14 78 74 145t137 103q56 23 86 23q38 0 49 -27q4 -12 4 -20q0 -36 -48.5 -65.5t-102.5 -29.5q-44 0 -70 23
q-36 -36 -66 -88t-30 -92q0 -33 22 -50q19 -16 60 -16h8q49 0 129 29.5t160 71.5t152.5 84.5t120.5 72t50 29.5q7 0 11 -4t4 -8q0 -8 -11 -13q-242 -156 -381 -222q-159 -75 -249 -75zM-51 389q36 0 76.5 20t40.5 37q-6 17 -25 17q-25 0 -71 -24t-62 -38q15 -12 41 -12z" />
    <glyph glyph-name="ecircumflex" unicode="&#xea;" horiz-adv-x="604" 
d="M121 551q-8 0 -8 10l-7 68l-90 -64l-6 -2q-8 0 -8 8l4 7l107 86q5 0 10.5 -4.5t5.5 -8.5v-92q0 -8 -8 -8zM-141 96q-43 0 -76 23q-37 25 -37 74q0 8 4 32q14 78 74 145t137 103q56 23 86 23q38 0 49 -27q4 -12 4 -20q0 -36 -48.5 -65.5t-102.5 -29.5q-44 0 -70 23
q-36 -36 -66 -88t-30 -92q0 -33 22 -50q19 -16 60 -16h8q49 0 129 29.5t160 71.5t152.5 84.5t120.5 72t50 29.5q7 0 11 -4t4 -8q0 -8 -11 -13q-242 -156 -381 -222q-159 -75 -249 -75zM-51 389q36 0 76.5 20t40.5 37q-6 17 -25 17q-25 0 -71 -24t-62 -38q15 -12 41 -12z" />
    <glyph glyph-name="edieresis" unicode="&#xeb;" horiz-adv-x="604" 
d="M127 565l-6 2q-10 7 -10 19q0 16 12.5 31.5t28.5 15.5q10 0 16 -4q4 -2 4 -11q0 -14 -16 -33.5t-29 -19.5zM8 565l-6 2q-8 5 -8 19q0 16 12.5 32.5t28.5 16.5q4 0 16 -4q4 -4 4 -10q0 -14 -17 -35t-30 -21zM-141 96q-43 0 -76 23q-37 25 -37 74q0 8 4 32q14 78 74 145
t137 103q56 23 86 23q38 0 49 -27q4 -12 4 -20q0 -36 -48.5 -65.5t-102.5 -29.5q-44 0 -70 23q-36 -36 -66 -88t-30 -92q0 -33 22 -50q19 -16 60 -16h8q49 0 129 29.5t160 71.5t152.5 84.5t120.5 72t50 29.5q7 0 11 -4t4 -8q0 -8 -11 -13q-242 -156 -381 -222
q-159 -75 -249 -75zM-51 389q36 0 76.5 20t40.5 37q-6 17 -25 17q-25 0 -71 -24t-62 -38q15 -12 41 -12z" />
    <glyph glyph-name="igrave" unicode="&#xec;" horiz-adv-x="598" 
d="M29 489l-6 3q-31 21 -54.5 49.5t-29.5 50.5v4q0 6 5 10t11 4q7 0 10 -8q17 -54 68 -96l4 -8q0 -9 -8 -9zM-215 96q-38 0 -57 19t-19 49q0 60 60.5 146t117.5 141q6 6 13 6t12.5 -5.5t5.5 -13.5q0 -6 -6 -12q-49 -49 -108.5 -131.5t-59.5 -128.5q0 -17 10 -27
q13 -10 35 -10q64 0 217 65t270 126t175 96l12 4q7 0 10 -6l2 -8q0 -8 -10 -13q-17 -11 -90.5 -52.5t-184.5 -99.5t-226.5 -101.5t-178.5 -43.5z" />
    <glyph glyph-name="iacute" unicode="&#xed;" horiz-adv-x="598" 
d="M-78 526h-2q-8 0 -8 9q0 5 6 8q59 19 100 63q4 4 11 4q12 0 12 -14l-2 -8q-14 -17 -47 -36t-70 -26zM-215 96q-38 0 -57 19t-19 49q0 61 60 147t116 140q6 6 13 6t13.5 -6.5t6.5 -12.5t-6 -12q-52 -55 -110 -135t-58 -125q0 -17 10 -27q13 -10 35 -10q64 0 217 65
t270 126t175 96l12 4q7 0 10 -6l2 -6q0 -10 -10 -15q-17 -11 -90.5 -52.5t-184.5 -99.5t-226.5 -101.5t-178.5 -43.5z" />
    <glyph glyph-name="icircumflex" unicode="&#xee;" horiz-adv-x="598" 
d="M-215 96q-38 0 -57 19t-19 49q0 61 60 147t116 140q6 6 13 6t13.5 -6.5t6.5 -12.5t-6 -12q-52 -55 -110 -135t-58 -125q0 -17 10 -27q13 -10 35 -10q64 0 217 65t270 126t175 96l12 4q7 0 10 -6l2 -6q0 -10 -10 -15q-37 -22 -94.5 -54t-178 -96t-232.5 -105.5t-175 -41.5
zM39 516q-8 0 -8 10l6 70l-105 -47q-8 0 -8 8q0 5 6 8l115 64q6 0 12 -4.5t6 -10.5q-13 -68 -16 -90q0 -8 -8 -8z" />
    <glyph glyph-name="idieresis" unicode="&#xef;" horiz-adv-x="598" 
d="M-94 524q-6 0 -10 4q-7 7 -7 15q0 15 13.5 30t29.5 15q13 0 23 -10q4 -4 4 -9q0 -12 -19 -28.5t-34 -16.5zM18 498q-6 0 -10 4q-6 6 -6 12q0 16 14 31.5t31 15.5q13 0 23 -10q4 -4 4 -6q0 -13 -20.5 -30t-35.5 -17zM-215 96q-38 0 -57 19t-19 49q0 60 60.5 146t117.5 141
q6 6 13 6t12.5 -5.5t5.5 -13.5q0 -6 -6 -12q-49 -49 -108.5 -131.5t-59.5 -128.5q0 -17 10 -27q13 -10 37 -10q91 0 317 108.5t343 178.5l12 4q7 0 10 -6l2 -8q0 -8 -8 -13q-36 -21 -95 -54t-179 -96t-232.5 -105t-175.5 -42z" />
    <glyph glyph-name="eth" unicode="&#xf0;" horiz-adv-x="862" 
d="M-279 111q-17 0 -26 6q-39 20 -39 61q0 56 65 135.5t151.5 137t145.5 57.5q62 0 68 -70v-2q0 -18 -20 -18q-6 0 -11.5 4.5t-5.5 11.5q-3 37 -37 37q-44 0 -122 -54t-138.5 -124t-60.5 -111q0 -23 20 -32q7 -5 23 -5q78 0 297 164q23 62 97.5 176t176.5 244l-188 -2
q-7 0 -12 5t-5 11q0 5 5.5 10t13.5 5q141 6 215 6q176 220 339.5 376t241.5 156q15 0 27 -6q19 -13 19 -37q0 -109 -360 -478l-13 -13q51 0 162 -6q16 0 16 -15q0 -16 -18 -16l-193 2q-261 -261 -489 -432q-15 -35 -15 -66q0 -41 31 -51q20 -4 35 -4q100 0 278.5 84
t292.5 158l10 4l11 -4q4 -4 4 -10q0 -5 -8 -13q-101 -72 -298.5 -163t-302.5 -91q-28 0 -43 6q-47 15 -47 76q0 25 4 39q-210 -149 -297 -149zM90 354q178 144 414 373l-150 2q-211 -262 -264 -375zM541 764q54 54 133.5 139.5t167.5 197t88 146.5q0 10 -6 13q-12 4 -19 4
q-60 0 -209 -147.5t-313 -352.5h158z" />
    <glyph glyph-name="ntilde" unicode="&#xf1;" horiz-adv-x="837" 
d="M41 510h-2q-19 2 -31 30.5t-22 30.5h-4q-19 0 -50 -34l-8 -5q-12 0 -12 13q0 8 4 10q43 43 74 43h4q19 -3 32.5 -32t18.5 -29h2q31 0 74 38q3 5 8 5q8 0 8 -11q0 -4 -4 -8q-47 -51 -92 -51zM-420 94q-7 0 -12.5 5.5t-5.5 13.5l4 10q186 270 241 323q7 7 13 7t11 -6t5 -13
q0 -8 -4 -12q-25 -25 -139 -180q224 198 319 198h11q21 -2 34.5 -14.5t19.5 -35.5t7.5 -43t1.5 -50v-31q0 -78 23 -92q4 -4 22 -4q47 0 161.5 58t192.5 105.5t129 82.5l13 4q9 0 12 -6l2 -6q0 -7 -8 -15q-227 -150 -345 -207q-107 -51 -163 -51q-24 0 -35 8
q-26 15 -33.5 51.5t-7.5 94.5v14q0 26 -0.5 39t-3 30t-9 25t-16.5 9h-8q-19 0 -46.5 -11.5t-54.5 -28t-62.5 -43t-62 -49t-62 -54t-54.5 -49t-47 -44t-31 -29.5q-4 -4 -12 -4z" />
    <glyph glyph-name="ograve" unicode="&#xf2;" 
d="M43 516l-6 2q-32 22 -54.5 51.5t-29.5 51.5v4q0 5 4.5 9.5t9.5 4.5q10 0 13 -10q17 -53 67 -97l4 -8q0 -8 -8 -8zM-262 92q-21 0 -31 4q-43 13 -43 66q0 51 33 110q65 106 168 168l8 2q7 0 12.5 -6t5.5 -12q0 -9 -8 -14q-82 -52 -133 -123q-16 -20 -33.5 -58t-17.5 -65
q0 -18 8 -28t29 -11h4q47 0 119 60.5t100 105.5q-45 42 -45 98q0 31 16 51.5t39 20.5q15 0 23 -4q41 -17 41 -68q0 -41 -27 -90q27 -12 68 -12q79 0 189.5 42t178.5 85q6 4 11 4q3 1 6 -1.5t5 -6t1 -4.5q0 -8 -8 -13q-76 -48 -189 -95.5t-200 -47.5q-48 0 -82 18
q-47 -65 -118 -120.5t-130 -55.5zM-23 324q19 34 19 61q0 16 -6.5 26.5t-14.5 12.5h-4q-22 0 -22 -33q0 -17 8 -37t20 -30z" />
    <glyph glyph-name="oacute" unicode="&#xf3;" 
d="M-55 524h-2q-11 0 -11 8q0 6 9 9q60 17 100 63q2 4 8 4q14 0 14 -14l-2 -8q-13 -18 -45.5 -36.5t-70.5 -25.5zM-262 92q-21 0 -31 4q-43 13 -43 66q0 51 33 110q65 106 168 168l8 2q7 0 12.5 -6t5.5 -12q0 -9 -8 -14q-82 -52 -133 -123q-16 -20 -33.5 -58t-17.5 -65
q0 -18 8 -28t29 -11h4q47 0 119 60.5t100 105.5q-45 42 -45 98q0 31 16 51.5t39 20.5q15 0 23 -4q41 -17 41 -68q0 -41 -27 -90q27 -12 68 -12q79 0 189.5 42t178.5 85q6 4 11 4q3 1 6 -1.5t5 -6t1 -4.5q0 -8 -8 -13q-76 -48 -189 -95.5t-200 -47.5q-48 0 -82 18
q-47 -65 -118 -120.5t-130 -55.5zM-23 324q19 34 19 61q0 16 -6.5 26.5t-14.5 12.5h-4q-22 0 -22 -33q0 -17 8 -37t20 -30z" />
    <glyph glyph-name="ocircumflex" unicode="&#xf4;" 
d="M57 514q-8 0 -8 10l-6 68l-90 -64l-6 -2q-6 0 -6 9q0 6 4 8l100 82l6 2q5 0 10 -3.5t5 -9.5v-92q0 -8 -9 -8zM-262 92q-21 0 -31 4q-43 13 -43 66q0 51 33 110q65 106 168 168l8 2q7 0 12.5 -6t5.5 -12q0 -9 -8 -14q-82 -52 -133 -123q-16 -20 -33.5 -58t-17.5 -65
q0 -18 8 -28t29 -11h4q47 0 119 60.5t100 105.5q-45 42 -45 98q0 31 16 51.5t39 20.5q15 0 23 -4q41 -17 41 -68q0 -41 -27 -90q27 -12 68 -12q79 0 189.5 42t178.5 85q6 4 11 4q3 1 6 -1.5t5 -6t1 -4.5q0 -8 -8 -13q-76 -48 -189 -95.5t-200 -47.5q-48 0 -82 18
q-47 -65 -118 -120.5t-130 -55.5zM-23 324q19 34 19 61q0 16 -6.5 26.5t-14.5 12.5h-4q-22 0 -22 -33q0 -17 8 -37t20 -30z" />
    <glyph glyph-name="otilde" unicode="&#xf5;" 
d="M53 535h-4q-21 2 -32 29.5t-19 29.5h-4q-15 0 -51 -33l-9 -4q-4 0 -8 3.5t-4 8.5l4 9q43 43 72 43h6q19 -3 32 -32t19 -30h2q33 0 74 41q2 4 8 4q8 0 8 -10q0 -6 -4 -10q-49 -49 -90 -49zM-262 92q-21 0 -31 4q-43 13 -43 66q0 51 33 110q65 106 168 168l8 2q7 0 12.5 -6
t5.5 -12q0 -9 -8 -14q-82 -52 -133 -123q-16 -20 -33.5 -58t-17.5 -65q0 -18 8 -28t29 -11h4q47 0 119 60.5t100 105.5q-45 42 -45 98q0 31 16 51.5t39 20.5q15 0 23 -4q41 -17 41 -68q0 -41 -27 -90q27 -12 68 -12q79 0 189.5 42t178.5 85q6 4 11 4q3 1 6 -1.5t5 -6t1 -4.5
q0 -8 -8 -13q-76 -48 -189 -95.5t-200 -47.5q-48 0 -82 18q-47 -65 -118 -120.5t-130 -55.5zM-23 324q19 34 19 61q0 16 -6.5 26.5t-14.5 12.5h-4q-22 0 -22 -33q0 -17 8 -37t20 -30z" />
    <glyph glyph-name="odieresis" unicode="&#xf6;" 
d="M57 524q-16 3 -16 21q0 16 11.5 31.5t27.5 15.5q22 0 22 -14q0 -15 -16 -34.5t-29 -19.5zM-59 524q-17 3 -17 21q0 16 11.5 31.5t27.5 15.5q23 0 23 -14t-16 -34t-29 -20zM-262 92q-21 0 -31 4q-43 13 -43 66q0 51 33 110q65 106 168 168l8 2q7 0 12.5 -6t5.5 -12
q0 -9 -8 -14q-82 -52 -133 -123q-16 -20 -33.5 -58t-17.5 -65q0 -36 37 -39q49 0 121 59t102 107q-45 45 -45 98q0 31 16 51.5t39 20.5q15 0 23 -4q41 -17 41 -68q0 -41 -27 -90q27 -12 68 -12q79 0 191 42.5t177 84.5q6 4 11 4h2q3 0 6.5 -4.5t3.5 -7.5q0 -8 -8 -13
q-71 -46 -186 -94.5t-203 -48.5q-48 0 -82 18q-47 -65 -118 -120.5t-130 -55.5zM-23 324q21 38 21 61q0 39 -27 39q-22 0 -22 -33q0 -17 8 -37t20 -30z" />
    <glyph glyph-name="divide" unicode="&#xf7;" horiz-adv-x="608" 
d="M356 268h-6q-14 4 -14 21q0 22 18 43.5t45 21.5q5 0 17 -4q12 -2 12 -16q0 -19 -24.5 -42.5t-47.5 -23.5zM526 526h-6q-14 4 -14 21q0 22 17.5 43.5t43.5 21.5l19 -4q12 -2 12 -16q0 -19 -24.5 -42.5t-47.5 -23.5zM670 422h-2q-115 8 -258 8l-131 -2q-7 0 -12 4.5t-5 9.5
q0 6 5 11.5t14 5.5l225 4q82 0 164 -6q18 0 18 -19q0 -16 -18 -16z" />
    <glyph glyph-name="oslash" unicode="&#xf8;" horiz-adv-x="610" 
d="M-461 49q-6 0 -12 7t-6 14l4 12l67 63l-2 23q0 71 66 149.5t137 120.5q2 2 8 2q7 0 13 -5t6 -11q0 -11 -10 -16q-62 -37 -118.5 -103t-66.5 -131q27 23 102 90t115 101l-2 20q0 32 17.5 53t42.5 21q19 0 37 -15l79 68q4 4 13 4q14 0 14 -14q0 -9 -6 -15q-26 -18 -84 -69
q6 -15 6 -33q0 -40 -27 -86q22 -14 68 -14q79 0 189.5 43t179.5 86q8 4 10 4q14 0 14 -15q0 -5 -10 -12q-70 -46 -184 -93.5t-201 -47.5q-50 0 -84 18q-37 -53 -115.5 -115.5t-138.5 -62.5q-30 0 -51 21l-58 -56q-6 -6 -12 -6zM-123 395l31 25q-8 4 -10 4q-21 0 -21 -29z
M-336 123q47 0 121.5 61.5t97.5 106.5q-12 12 -30 41q-158 -141 -220 -199q10 -10 31 -10zM-94 322q18 38 18 61l-2 10l-41 -37q9 -21 25 -34z" />
    <glyph glyph-name="ugrave" unicode="&#xf9;" horiz-adv-x="722" 
d="M123 479l-6 2q-32 21 -55.5 50t-30.5 51v2q0 6 5.5 10t10.5 4q7 0 10 -6q21 -57 68 -96q6 -6 6 -9q0 -8 -8 -8zM53 115q-18 0 -26 4q-25 11 -25 45q0 55 64 162q-226 -187 -312 -187q-28 0 -41 25q-4 12 -4 24q0 89 176 265q8 4 13 4q8 0 14 -6t6 -13t-8 -12
q-65 -65 -115.5 -132.5t-50.5 -103.5v-6q3 -12 16 -12q47 0 199 111t170 141l12 4q7 0 13 -6t6 -12l-4 -11q-1 -2 -16 -25t-30 -47.5t-31.5 -54t-27 -56t-10.5 -42.5q0 -18 10 -20q12 -4 19 -4q94 0 503 264q8 4 15 4q4 0 8 -4l2 -6q0 -10 -10 -15q-49 -34 -103.5 -69
t-143.5 -88.5t-167 -87t-121 -33.5z" />
    <glyph glyph-name="uacute" unicode="&#xfa;" horiz-adv-x="724" 
d="M55 115q-18 0 -26 4q-25 11 -25 45q0 50 62 162q-226 -187 -312 -187q-28 0 -41 25q-4 12 -4 24q0 87 178 265l13 4q7 0 12.5 -6.5t5.5 -12.5t-6 -12q-66 -66 -116 -132.5t-50 -103.5v-6q3 -12 16 -12q45 0 197 110.5t172 141.5q8 4 10 4q7 0 13 -6t6 -12l-4 -11
q-1 -2 -16 -24.5t-30 -47t-31.5 -53.5t-27 -55.5t-10.5 -42.5q0 -19 12 -22q12 -4 17 -4q16 0 40 7t51 18.5t60 28t64 33.5t66 37.5t63 38t57.5 36t47.5 30t35.5 23t18.5 12.5q12 4 15 4q4 0 8 -4l4 -8q0 -6 -10 -13q-49 -34 -103.5 -69t-143.5 -88.5t-167 -87t-121 -33.5z
M29 496h-2q-9 0 -9 6t7 10q61 21 100 63l10 5q5 0 8.5 -4.5t3.5 -10.5l-4 -8q-12 -17 -44.5 -35.5t-69.5 -25.5z" />
    <glyph glyph-name="ucircumflex" unicode="&#xfb;" horiz-adv-x="722" 
d="M53 115q-18 0 -26 4q-25 11 -25 45q0 52 61 162q-32 -28 -77 -63.5t-118.5 -79.5t-113.5 -44q-28 0 -41 25q-4 12 -4 24q0 89 176 265q8 4 13 4q8 0 14 -6t6 -13t-8 -12q-65 -65 -115.5 -132.5t-50.5 -103.5v-6q3 -12 16 -12q47 0 199 111t170 141l12 4q7 0 13 -6t6 -12
l-4 -11q-1 -2 -16 -25t-30 -47.5t-31.5 -54t-27 -56t-10.5 -42.5q0 -18 10 -20q12 -4 19 -4q94 0 503 264q8 4 15 4q4 0 8 -4l2 -6q0 -10 -10 -15q-49 -34 -103.5 -69t-143.5 -88.5t-167 -87t-121 -33.5zM119 477q-10 0 -10 8l6 72l-105 -51q-8 0 -8 8q0 5 6 8l117 66
q5 0 9.5 -4.5t4.5 -8.5q-1 -11 -7 -46.5t-7 -43.5q0 -8 -6 -8z" />
    <glyph glyph-name="udieresis" unicode="&#xfc;" horiz-adv-x="724" 
d="M119 483l-10 4q-7 3 -7 13q0 16 13.5 31.5t31.5 15.5q10 0 19 -6l4 -11q0 -12 -18 -29.5t-33 -17.5zM4 502q-2 0 -10 4q-6 3 -6 14q0 16 13 31.5t30 15.5q8 0 20 -8q4 -2 4 -8q0 -14 -18 -31.5t-33 -17.5zM53 115q-18 0 -26 4q-25 13 -25 45q0 55 64 162
q-31 -28 -77 -63.5t-120.5 -79.5t-114.5 -44q-28 0 -41 25q-4 12 -4 24q0 87 178 265l13 4q7 0 12.5 -6.5t5.5 -12.5t-6 -12q-65 -63 -116.5 -131.5t-51.5 -104.5v-6q3 -12 16 -12q33 0 121.5 57t164 117.5t85.5 77.5l12 4q6 0 11.5 -6t5.5 -12l-4 -11q-1 -2 -16 -24.5
t-30 -47t-31.5 -53.5t-27 -55.5t-10.5 -42.5q0 -19 12 -22q12 -4 17 -4q94 0 503 264q12 4 15 4q4 0 8 -4l4 -8q0 -6 -10 -13q-49 -34 -103.5 -69t-143.5 -88.5t-167.5 -87t-122.5 -33.5z" />
    <glyph glyph-name="yacute" unicode="&#xfd;" horiz-adv-x="761" 
d="M-1444 -795q-14 0 -31 7q-36 13 -36 67q0 37 18 86q30 74 96.5 155.5t144.5 149.5t175 137t176.5 118t159.5 93q78 113 168 263q-181 -181 -267 -181q-21 0 -39 15t-18 45q0 89 158 278q6 6 14 6q7 0 12.5 -5t5.5 -13l-4 -10q-151 -179 -151 -252l2 -12q6 -19 24 -19
q50 0 175 116.5t159 162.5q4 4 15 4q7 0 12.5 -5.5t5.5 -13.5l-2 -6q-4 -10 -98 -166t-105 -172q56 29 211.5 106t261 135t203.5 122q6 2 12 2q7 0 11 -4l4 -8q0 -10 -9 -13q-165 -111 -499 -280q-20 -10 -105.5 -54t-130.5 -69q-208 -309 -358 -486q-249 -299 -371 -299z
M-1442 -760q103 0 340 287q142 165 318 426q-70 -40 -141 -85t-152.5 -105t-150 -120t-128.5 -130.5t-92 -135.5q-8 -15 -18.5 -46t-10.5 -54q0 -27 15 -33zM-596 502h-2q-8 0 -8 6q0 7 6 10q58 19 100 64q8 4 11 4q4 0 8 -5.5t4 -11.5l-2 -6q-14 -17 -47 -35.5t-70 -25.5z
" />
    <glyph glyph-name="thorn" unicode="&#xfe;" horiz-adv-x="1464" 
d="M20 -717q-8 0 -14 5t-6 12l2 10q17 28 95 154.5t87 140.5q143 237 234 379q105 167 314.5 453.5t279.5 355.5q8 4 12 4q5 0 8.5 -4.5t3.5 -10.5t-6 -12q-38 -43 -219 -286.5t-244 -336.5q53 64 98.5 113.5t104 105t113 86.5t98.5 31q28 0 49 -12q35 -20 35 -61
q0 -52 -46 -122.5t-85 -103.5q303 96 506 232q4 2 10 2t10 -4l4 -11q0 -7 -8 -10q-310 -201 -668 -287h-4q-9 0 -14.5 6.5t-5.5 14.5q0 13 12 16q61 16 111 51.5t79 76.5t44.5 78t15.5 63q0 19 -10 26q-13 8 -35 8q-51 0 -127.5 -58t-160.5 -155.5t-164 -200.5t-159 -219.5
t-124 -185t-78 -121.5l-133 -215q-3 -8 -15 -8z" />
    <glyph glyph-name="ydieresis" unicode="&#xff;" horiz-adv-x="761" 
d="M-1446 -795q-15 0 -29 7q-36 13 -36 65q0 34 20 88q30 74 96.5 155.5t144.5 149.5t175 137t176.5 118t159.5 93q78 113 168 263q-35 -34 -54 -51t-64 -54.5t-83.5 -56.5t-67.5 -19q-22 0 -37 15q-20 14 -20 45q0 87 160 278q3 6 12 6q7 0 12.5 -5t5.5 -13l-2 -10
q-151 -179 -151 -252l2 -12q3 -19 22 -19q35 0 117 67.5t139 126t80 85.5q2 4 13 4q7 0 12.5 -5.5t5.5 -13.5v-6q-4 -10 -98 -166t-105 -172q56 29 211.5 106t261 135t203.5 122q4 2 12 2q3 0 11 -4l2 -8q0 -10 -6 -13q-162 -109 -500 -280q-20 -10 -105.5 -54t-130.5 -69
q-208 -309 -358 -486q-252 -299 -375 -299zM-1442 -760q102 0 342 287q158 189 318 426q-70 -40 -141 -85t-152.5 -105t-150 -120t-128.5 -130.5t-92 -135.5q-9 -13 -20 -44.5t-11 -55.5q0 -27 17 -33zM-518 477l-6 2q-11 3 -11 19t12.5 32.5t28.5 16.5l19 -4q4 -4 4 -11
q0 -14 -17 -34.5t-30 -20.5zM-637 477l-4 2q-10 3 -10 19q0 17 12 33t29 16q4 0 16 -4q4 -4 4 -11q0 -15 -17 -35t-30 -20z" />
    <glyph glyph-name="Ydieresis" unicode="&#x178;" horiz-adv-x="1341" 
d="M150 -498h-11q-69 0 -104 32t-35 87q0 70 54.5 159.5t144.5 171t223 137.5t272 56q99 0 183 -24q178 230 532 747q-62 -65 -138 -138t-187 -168t-213 -168t-209 -124t-183 -51q-35 0 -65 12q-70 26 -70 103q0 65 50.5 165.5t129 208t157.5 205t153.5 188.5t99.5 128
q33 53 33 78q0 10 -6 16q-12 6 -31 6q-56 0 -163 -49t-212.5 -118.5t-184.5 -154.5t-79 -149q0 -29 18 -53l4 -10q0 -7 -6 -13t-14 -6t-14 6q-25 36 -25 72q0 59 52.5 131.5t134 137t173 119.5t178 87.5t140.5 32.5q32 0 47 -10q22 -13 22 -43q0 -41 -38 -99
q-24 -36 -127.5 -163.5t-199 -248.5t-175.5 -255t-80 -205q0 -57 47 -74q19 -8 51 -8q82 0 210.5 72t258 177t261 228.5t224.5 221t144 159.5q5 8 14 8q8 0 13.5 -5.5t5.5 -12.5l-4 -10q-37 -54 -131 -192.5t-144.5 -212t-129 -186.5t-148.5 -208.5t-140 -185.5
q151 -50 287 -166q6 -6 6 -15q0 -8 -5 -13t-13 -5l-10 4q-142 119 -289 164q-220 -281 -398.5 -426.5t-340.5 -149.5zM147 -463q153 4 324 144t381 409q-72 19 -156 19q-132 0 -258.5 -52.5t-212 -128t-138 -157.5t-52.5 -144q0 -42 26.5 -66t79.5 -24h6zM1253 1329
q-10 0 -14 4q-8 5 -8 19q0 21 19.5 42t43.5 21q16 0 31 -12q4 -4 4 -10q0 -19 -27 -41.5t-49 -22.5zM1413 1290q-10 0 -14 4q-8 5 -8 19q0 21 19.5 42t43.5 21q17 0 31 -14q4 -4 4 -10q0 -17 -27 -39.5t-49 -22.5z" />
    <glyph glyph-name="e.calt" unicode="&#xe005;" horiz-adv-x="1540" 
d="M-35 45q-215 0 -215 137q0 11 4 43q14 78 73.5 145t135.5 103q56 23 86 23q37 0 49 -29q4 -6 4 -21q0 -36 -47.5 -64t-101.5 -28q-44 0 -70 23q-36 -35 -64 -85.5t-28 -96.5q0 -59 49 -91q39 -24 125 -24q106 0 300 40t380 90t408 98.5t368 62.5h4q7 0 7 -6t-9 -9
q-124 -12 -336.5 -64t-401 -106t-394 -97.5t-326.5 -43.5zM-47 389q36 0 75.5 20t39.5 37l-2 7q-3 10 -21 10q-26 0 -72.5 -24t-62.5 -38q15 -12 43 -12z" />
    <glyph glyph-name="y.calt" unicode="&#xe025;" horiz-adv-x="456" 
d="M-1430 -791q-24 0 -43 13q-22 17 -22 53q0 68 70 180q105 167 279.5 300t363.5 192q111 161 215 334q-179 -179 -267 -179q-20 0 -36 13q-19 19 -19 47q0 88 156 274q5 8 14 8q8 0 13.5 -5.5t5.5 -12.5l-5 -12q-147 -178 -147 -252v-10q3 -15 21 -15q40 0 114 60
q60 46 123 109.5t96 103.5q6 6 13 6q8 0 14 -6t6 -13l-2 -8q-64 -132 -266 -434q111 27 266 27q193 0 301 -58q8 -8 8 -10l-2 -4q0 -4 -8 -4l-10 2q-115 47 -287 47q-98 0 -187 -14t-108 -25q-33 -48 -52.5 -76t-79.5 -111t-105 -140t-112 -135t-119.5 -126.5t-107.5 -83.5
t-94 -35zM-1425 -750q36 0 91 38.5t118.5 106.5t121 134.5t120.5 151.5t94 127t63 88q-177 -64 -333 -187.5t-253 -281.5q-57 -92 -57 -146q0 -20 12 -26q15 -5 23 -5z" />
    <glyph glyph-name="g.salt" unicode="&#xe033;" horiz-adv-x="555" 
d="M-1530 -815q-35 0 -55.5 20t-20.5 54q0 52 45 120q61 90 170.5 175.5t221 143.5t225.5 99l403 557q-285 -235 -395 -235q-22 0 -35 8q-22 16 -22 47q0 41 39 97.5t96 106.5t128 85t128 35q61 0 96 -41q6 -6 6 -11q0 -7 -6 -12.5t-12 -5.5q-8 0 -14 6q-28 31 -72 31
q-64 0 -150 -57.5t-145 -126.5t-59 -105q0 -13 10 -20q4 -2 16 -2q99 0 490 325q4 4 12 4t13 -5.5t5 -12.5q0 -6 -6 -12q-19 -20 -112.5 -147.5t-209.5 -288.5t-143 -197q188 61 640 122.5t825 61.5q464 0 592 -106q8 -5 8 -15q0 -7 -5.5 -12.5t-13.5 -5.5l-12 4
q-126 104 -567 104q-379 0 -847.5 -68.5t-658.5 -135.5l-35 -47q-35 -47 -88.5 -114.5t-116.5 -141t-133 -141t-124 -101.5q-62 -39 -111 -39zM-1530 -780q38 0 90 35q52 33 112 88t124 130t103.5 124t98.5 125q4 5 6 8t5 7t6 7q-168 -68 -319 -170.5t-228 -214.5
q-39 -59 -39 -98q0 -41 41 -41z" />
    <glyph glyph-name="Name_Preview" horiz-adv-x="9433" 
d="M1452 502q0 6 2 10q23 42 379 754q14 34 20 71q-57 -8 -152 -31.5t-104 -25.5l-4 -2q-14 0 -14 10q-3 14 10 17q66 22 271 67q3 36 0 72q-10 66 -52 122.5t-97 95t-109 70t-96 60.5t-50 53v8q-4 32 43 65t135.5 63t198 58.5t246 54.5t262.5 47t262 40q424 60 541 64
q12 2 18 -15q0 -17 -14 -20h-2q-74 0 -482 -60q-210 -30 -399.5 -62t-376 -71t-295.5 -81t-104 -78l2 -5q9 -22 51 -49t95.5 -58t107.5 -69t95.5 -97t51.5 -128q4 -37 2 -59l320 630q7 11 12 11q7 1 13 -4t8 -13q0 -6 -2 -10q-121 -234 -314 -621q86 17 643 111q16 0 19 -16
q0 -16 -13 -19q-69 -9 -289 -45.5t-380 -68.5l-432 -848q-2 -8 -13 -11q-14 0 -14 13zM3146 1036q0 2 1 5.5t1 5.5q60 123 135 253q-312 -287 -420 -303q-14 0 -20 2q-28 6 -31 37q-7 53 39 158q-187 -200 -262 -209q-30 -7 -39 14q-6 9 -10 23q-5 34 23 93.5t55.5 99.5
t52.5 71q3 6 10 6q6 2 12 -3.5t6 -12.5q0 -10 -2 -12q-51 -62 -90 -131t-33 -103q3 -16 17 -14q41 5 164.5 123.5t142.5 150.5l8 8q6 0 13.5 -5t7.5 -11q-2 -9 -25 -54.5t-41 -96t-14 -80.5q4 -17 14 -19h12q34 5 104.5 53t153.5 118.5t124.5 107t72.5 65.5q6 6 8 6h2
q6 0 12.5 -4.5t8.5 -9.5q0 -4 -4 -12q-14 -19 -105 -185q183 215 268 226q42 5 58.5 -26t25.5 -97l5 -27q11 -76 32 -84q10 -5 21 -2q95 12 413 289q2 4 9 4q9 3 12 -4l2 -4q3 -5 -4 -12q-219 -198 -334 -264q-60 -35 -98 -40q-19 -3 -35 3q-13 6 -22.5 18t-15.5 33.5
t-8.5 35.5t-6.5 42v10q-5 31 -9 47t-13 30.5t-23 14.5q-96 -13 -349 -336q-6 -6 -12 -6q-6 -2 -12.5 2.5t-7.5 11.5zM3918 1143q-2 4 2 12q0 1 46.5 90.5t83 159t104 192t124 217t129 204.5t132 184t120 127t105.5 59q35 3 57 -16q13 -17 16 -33q24 -172 -714 -884l-19 -19
q-19 -35 -38.5 -72.5t-40 -76t-29.5 -56.5l129 129l-4 10q-3 23 12 23l22 -4q113 109 165 143q40 25 67 29q18 3 28 -2q20 -8 23 -31q7 -46 -50.5 -104.5t-144.5 -69.5q-37 -6 -77 0v-2q22 -45 59 -73t82 -32h29q19 3 43 11.5t46 19t51.5 28.5t50.5 32t53 38t49.5 37.5
t49.5 40t43 35.5t40.5 34t31.5 27q3 2 8.5 5t6.5 4q3 0 8 -5q3 0 6 -6q0 -4 -8 -12q-6 -5 -42 -37.5t-54.5 -48t-58 -49t-66 -53t-65.5 -46.5t-68.5 -42.5t-62.5 -28.5t-60 -17h-33q-54 4 -96.5 34.5t-67.5 80.5l-197 -192q-7 -7 -10 -7q-6 0 -11 4t-5 9zM4805 2333
q0 4 -4 12q-15 17 -39 14q-53 -8 -147.5 -119.5t-192.5 -266.5t-163 -264.5t-100 -174.5q2 2 57.5 59.5t105.5 110.5t125 134.5t134.5 152t114.5 141t84 123t25 78.5zM4405 1522q-1 1 -2 3t-2 3h-10q-30 -5 -94 -58t-99 -88q29 0 41 2q54 7 95 37t56.5 57.5t14.5 43.5z
M4291 365q-22 11 -29 45q-8 66 41 174q74 167 217 312t309 224q82 162 154 334q-143 -189 -221 -199q-18 -3 -35 7q-20 17 -23 41q-12 81 107 272q4 6 12 10q18 0 18 -14l-2 -12q-111 -179 -102 -250l2 -11q3 -14 21 -10q33 5 98 70q50 50 100.5 118.5t71.5 104.5
q2 2 5.5 4.5t4.5 3.5q20 0 23 -14l-2 -8q-29 -94 -187 -434q93 39 240 59q180 27 285 -12q8 -8 8 -9v-4q0 -3 -8 -6l-11 2q-116 28 -268 4q-90 -12 -169.5 -36t-96.5 -37q-353 -712 -522 -736q-22 -3 -41 7zM4805 1067q-155 -80 -282.5 -214t-195.5 -292q-40 -94 -32 -141
q0 -20 14 -23h20q39 5 98.5 68.5t111.5 140.5t114.5 185t92 163t59.5 113zM2576 -784v2q-13 84 119 227q4 4 12 4q9 3 13 -8q0 -8 -6 -14q-119 -127 -109 -197q7 -47 65.5 -63t145.5 -3q104 14 207 60.5t151 107.5q66 82 56 164q-9 60 -61 123t-121 117.5t-138 109.5
t-121 118t-61 124q-6 42 8 86q33 90 208 225.5t368 237t290 115.5h5q76 10 116.5 -16.5t46.5 -80.5q11 -76 -33.5 -180t-121 -184.5t-148.5 -91.5q-57 -6 -96 30l-6 11q0 6 5 12t11 6q9 0 13 -4q30 -27 69 -21q60 9 129 83t112 169t34 160q-5 41 -36.5 62t-90.5 14h-2
q-90 -14 -278.5 -113.5t-360.5 -230t-201 -213.5q-11 -35 -8 -70q8 -56 59.5 -116t120.5 -114.5t138 -110.5t121.5 -121.5t61.5 -129.5q13 -98 -61 -192q-52 -66 -160 -116t-219 -66q-100 -13 -168.5 8.5t-77.5 79.5zM3430 -487q-17 14 -24 43q-7 56 36 139.5t89 146.5
q2 2 5.5 4.5t4.5 3.5q7 0 14 -5t9 -11q0 -2 -5 -12q-36 -45 -80.5 -130.5t-39.5 -129.5q4 -15 12 -23q14 -7 35 -4q58 8 192.5 89t226 146.5t150.5 110.5q9 6 10 6q8 0 8 -2l5 -8q2 -3 -7 -12q-15 -13 -77.5 -61t-156 -115t-193 -121.5t-156.5 -63.5q-36 -6 -58 9zM3627 -59
l-2 8q7 37 32.5 71.5t57.5 38.5l4 2q6 0 11.5 -5t5.5 -11q2 -5 -2.5 -11t-12.5 -7h-4q-19 -3 -42 -31t-28 -51q-3 -15 -12 -15q-3 -2 -5.5 1.5t-2.5 9.5zM3469 -1282q-7 48 27 117q45 90 134 182.5t184.5 161t193.5 119.5l297 565q-235 -257 -332 -269q-19 -3 -33 3
q-23 13 -26 41q-7 50 41 129t126.5 144t147.5 75q57 7 94 -25q9 -9 9 -10q0 -6 -5 -11.5t-10 -7.5q-9 0 -14 5q-30 24 -70 18q-59 -8 -131 -72t-117 -135t-41 -104q3 -14 13 -17q6 -3 16 0q31 4 92 51.5t130 117t110.5 114t73.5 80.5q4 4 12 4q14 4 18 -14q0 -9 -4 -13
q-15 -21 -84.5 -151.5t-153 -289.5t-106.5 -200q163 80 570.5 196t748.5 165q425 60 559 -21q8 -5 8 -12q3 -17 -14 -21l-12 2q-134 81 -535 23q-347 -49 -767 -173t-586 -210q-1 -1 -27 -48t-67 -116.5t-89 -145t-104 -146.5t-101 -109q-55 -46 -96 -49q-32 -5 -54 10.5
t-26 46.5zM3623 -1266q45 39 94 99.5t104 148.5t79.5 129t76.5 133q-145 -84 -270 -198t-182 -228q-28 -64 -23 -94q3 -39 43 -33q37 7 78 43zM4403 -350l4 10q144 282 178 328q2 3 11 8q6 0 12 -5t8 -11q0 -9 -4 -13q-24 -35 -102 -182q177 212 268 225h8q19 1 32.5 -8.5
t22 -29t12.5 -36.5t9 -45l4 -34q11 -73 33 -80q6 -3 20 0q43 5 140.5 72t165 122.5t106.5 91.5q7 5 10 5q3 2 10 -5q8 -8 -2 -16q-319 -288 -430 -303q-24 -3 -35 2q-20 9 -32.5 36.5t-17 59.5t-9 63t-13 51t-24.5 19h-8q-28 -4 -66.5 -31.5t-84.5 -76.5t-76 -83t-73 -88
l-44 -54q-2 -7 -10 -7q-8 -2 -15 3t-8 12zM5540 -129q-5 57 47 168q-225 -245 -324 -260q-26 -3 -44 10.5t-21 38.5q-9 74 78 179t180 118q57 7 96 -29l6 -10q3 -17 -14 -20q-8 0 -14 6q-33 26 -74 20q-50 -8 -106 -57.5t-90 -108t-29 -92.5q1 -12 10 -19t20 -5q39 5 124 79
t145.5 138t113.5 125q2 1 6.5 3t6.5 3q5 0 11 -5.5t7 -11.5l-2 -8q-77 -151 -91 -195q-12 -38 -9 -59q3 -33 32 -29q56 8 190.5 115t229.5 197q4 4 13 4q1 1 5.5 -2t6.5 -6q0 -5 -4 -13q-60 -57 -128.5 -117t-168 -129.5t-150.5 -76.5q-49 -6 -59 49zM6033 -102
q-35 27 -41 73q-9 72 31 183l4 14q34 93 95.5 206t107 183.5t127.5 192.5q-483 -102 -635 -150l-6 -2q-14 0 -14 10q-2 5 2 10t10 5q269 85 674 168l30 39q29 39 64.5 84t80 85t73.5 43q17 3 28 -8q8 -12 8 -18q7 -40 -94 -189q408 73 699 115q190 27 286 37q16 3 19 -10
q0 -14 -17 -17q-87 -10 -186 -24q-327 -45 -827 -140q-30 -44 -69.5 -97.5t-70 -93.5t-81.5 -104t-71.5 -90t-73 -91t-56.5 -70l-80 -99q-37 -102 -29 -161q6 -37 31 -56q36 -25 92 -16q84 12 219.5 89.5t224 143.5t154.5 121l6 4q4 0 12 -4l2 -6q3 -5 -4 -12
q-41 -37 -104 -86.5t-153 -113t-187 -111.5t-168 -58q-69 -9 -113 21zM6506 778l-102 -20q-71 -104 -112.5 -167t-97.5 -157.5t-95 -177.5q291 362 407 522zM6537 819q3 3 29 41t53 84.5t25 61.5l-2 6q-3 3 -9 0q-19 -3 -68.5 -56.5t-82.5 -95.5t-47 -61zM6937 14
q-24 10 -27 39q-7 47 37 156q-1 -1 -29 -31t-53 -54t-59.5 -54.5t-66 -49.5t-54.5 -22q-27 -3 -41 16q0 1 -3 9.5t-3 13.5q-12 80 129 264q6 6 10 6q16 3 20 -16l-4 -12q-49 -60 -88 -130t-35 -104l2 -8q3 -9 17 -6q28 4 101 67t134 127.5t68 79.5q6 6 10 6q7 1 13 -3.5
t8 -10.5l-2 -10q-20 -36 -51 -110.5t-27 -108.5q3 -16 14 -21h16q17 3 45 17t58.5 34t67.5 47.5t68.5 52.5t66.5 54t57 47.5t43 37.5t22 19q4 4 11 4q6 2 10 -2l2 -4q4 -8 -6 -14q-204 -183 -312 -256q-93 -63 -143 -70h-26zM7533 76q-29 12 -33 47q-5 39 28.5 131t30.5 111
q-4 12 -6 16l-43 37q-13 -13 -44 -38t-46 -38q-9 -5 -13.5 -4t-6.5 4l-1 4q-2 5 7 14q27 24 84 86v5q-4 26 24 56.5t49 33.5q17 3 21 -13q3 -13 -10 -34q-14 -21 -41 -52l45 -39q8 -8 12 -28q5 -36 -29.5 -128t-30.5 -118q4 -18 17 -23q13 -4 22 -2q106 14 492 347q8 4 10 4
q7 4 10 -2q3 -2 3 -8.5t-5 -10.5q-382 -342 -512 -360q-20 -3 -34 2zM7979 221q-2 12 -2 41q3 74 48.5 143t111.5 111q53 29 75 33q36 4 50 -21q2 -4 6 -18q4 -33 -36 -64.5t-91 -39.5q-38 -7 -66 12q-29 -36 -48 -86.5t-13 -93.5q7 -53 57 -76q39 -16 117 -6
q98 14 271 75.5t337.5 131.5t362 143.5t329.5 105.5h4q5 0 7 -4q0 -4 -9 -10q-112 -27 -300 -102t-354 -149t-348.5 -141t-293.5 -83q-199 -26 -215 98zM8235 506l-2 4q-5 8 -21 8q-24 -4 -62 -31t-54 -43q16 -10 41 -6q33 4 66.5 28t31.5 40z" />
    <glyph glyph-name="_262" horiz-adv-x="0" 
 />
    </font>
</defs>
</svg>
